<?xml version="1.0" encoding="UTF-8"?>
<svg xmlns="http://www.w3.org/2000/svg" version="1.1" viewBox="0 0 941.62 1070.3">
  <!-- Generator: Adobe Illustrator 30.1.0, SVG Export Plug-In . SVG Version: 2.1.1 Build 136)  -->
  <defs>
    <style>
      .st0 {
        fill: #8d5470;
        mix-blend-mode: screen;
      }

      .st1, .st2 {
        fill: #673170;
      }

      .st2 {
        opacity: .52;
      }

      .st2, .st3 {
        mix-blend-mode: multiply;
      }

      .st4 {
        isolation: isolate;
      }

      .st5 {
        opacity: .75;
      }

      .st5, .st6 {
        fill: #c1a2b9;
      }

      .st7 {
        fill: #542b55;
      }

      .st3 {
        opacity: .39;
      }
    </style>
  </defs>
  <g class="st4">
    <g id="Layer_1">
      <g>
        <g>
          <path class="st7" d="M267.13,977.61c-.08.4-.16.81-.25,1.21-.22,1.08-.47,2.16-.74,3.24.21-1.09.44-2.17.69-3.24.1-.4.2-.81.3-1.21Z"/>
          <path class="st7" d="M286.05,1050.46c10.29-.01,22.16-.01,35.31-.01-4.51.26-9.02.45-13.54.52-7.79.11-15.61-.12-23.44-.51h1.67Z"/>
          <path class="st7" d="M275.55,8.99c-5.12-.09-10.23-.09-15.34-.1-2.86-.39-5.74-.72-8.62-.97-1.34-.12,7.61-.2,24.26-.27,13.36-.05,31.68-.09,53.63-.11,36.66-.04,83.45-.04,134.18,0-63.55.25-113.25.57-117.05,1.06-.85.11-1.71.22-2.56.35-2.44,0-3.99,0-4.56.01-8.66.15-17.32.63-25.98.88-2.54.08-5.08.14-7.63.16-5.99.06-11.95-.24-17.92-.53-4.13-.21-8.27-.41-12.41-.48Z"/>
          <path class="st7" d="M321.36,1050.45c2.95-.17,5.9-.38,8.85-.61,4.91.21,9.82.41,14.73.59-8.24,0-16.12.01-23.58.02Z"/>
          <path class="st7" d="M355.58,1050.8c-3.55-.11-7.09-.23-10.64-.37,110.01-.06,284.92-.22,403.88-.43-48.33.98-386.08,1.02-393.24.8Z"/>
          <path class="st7" d="M761.04,987.7c-.08-.16-.17-.36-.28-.61.09.17.2.4.28.61Z"/>
          <path class="st7" d="M761.08,986.87s-.08-.07-.17-.16c.08.07.15.13.17.16Z"/>
          <path class="st7" d="M773.97,953.22c-.04.22-.09.44-.13.65-.05.12-.09.23-.13.35-.01.05-.02.1-.03.15-.01.05-.04.1-.06.15-.05.14-.09.28-.12.43,0-.03.01-.05.01-.07-.05.25-.14.5-.29.72-.13.17-.26.34-.4.51-.17.14-.35.29-.52.44-.28.21-.58.36-.91.44-.19.09-.39.13-.6.13-.29.05-.57.04-.85-.05-.08-.04-.15-.07-.23-.11-.35.08-.7.09-1.05.01-.24,0-.47-.07-.68-.2-.33-.11-.6-.32-.8-.62-.09-.21-.19-.41-.28-.62-.1-.36-.09-.71.01-1.06.05-.39.19-.75.42-1.08.02-.03.04-.07.07-.1.49-.74,1.28-1.38,2.09-1.71.29-.13.6-.22.9-.3.04-.01.08-.02.13-.02.32-.04.71-.11,1.06-.08.04,0,.07.01.1.01.26.04.51.07.77.12.07.01.14.03.21.04.33.08.59.24.79.48.17.12.29.29.34.49.05.09.1.18.12.28.07.2.09.4.06.62Z"/>
          <path class="st7" d="M784.29,8.21c-83.81-.36-211.35-.6-320.63-.67,118.42-.47,284.93-.67,292.04-1.13,7.22-.46,14.43-.97,21.65-1.42h.02c2.83-.18,5.67-.34,8.5-.49,1.26-.07,2.53-.14,3.79-.2,11.08-.54,22.35-1.23,33.4.1.77.09,1.54.19,2.31.3,7.81,1.09,15.53,2.82,23.34,3.87-6.61-.05-14.32-.11-22.99-.16-8.77-.05-18.52-.1-29.1-.15-4-.01-8.11-.03-12.33-.05Z"/>
          <path class="st7" d="M809.36,186.12c-1.2,3.3-2.39,5.35-3.6,5.7-.13.04-.26.07-.39.11,1.32-1.21,2.65-3.19,3.99-5.81Z"/>
          <path class="st7" d="M837.04,74.59c-.08,4.5-.15,9.33-.23,14.35-.36,1.32-.71,2.65-1.08,3.99.12-8.61.23-14.69.33-17.84.33-.16.66-.33.98-.5Z"/>
          <path class="st7" d="M842.48,70.06c-.03.55-.06,1.12-.09,1.72-.2.11-.39.21-.59.32.22-.69.45-1.37.68-2.04Z"/>
          <path class="st7" d="M852.12,8.98c-1.14-.11-2.28-.25-3.41-.41,1.97.02,3.84.04,5.61.05,8.99.09,15.34.18,18.55.27-6.02.58-12.05.81-18.13.34-.87-.07-1.75-.15-2.62-.25Z"/>
          <path class="st7" d="M844.73,1048.71c2.91-.11,5.84-.26,8.74-.58,4.43.07,8.87.33,13.3.66h.01c3.33.24,6.66.52,9.97.77.62.05-3.89.1-12.63.15-10.55.05-27.25.1-48.51.16-14.23.03-30.5.07-48.33.1-5.95.01-12.07.02-18.35.03,3.15-.06,5.04-.13,5.51-.2,7.09-1.09,14.16-2.95,21.35-3.05,7.77-.1,15.5.98,23.27,1.19,7.62.21,15.25.29,22.88.55,2.22.08,4.44.15,6.66.21.87.18,1.74.38,2.61.57.57.13,1.13.28,1.7.41.49-.1.98-.2,1.48-.29,1.27-.22,2.53-.4,3.8-.56,2.18,0,4.36-.04,6.54-.12Z"/>
          <path class="st7" d="M822.1,968.72c1.12,1.66,2.23,3.33,3.32,5,.4-.97.71-1.97.9-2.98-1.42-.66-2.82-1.33-4.22-2.02ZM857.4,973.49c-.55-1.63-1.58-2.86-2.89-3.95-.43-.37-.91-.69-1.41-.96-.7-.36-1.45-.74-2.23-.9-1.09-.24-2.12-.31-3.22-.06-.23.05-.45.11-.67.18.96.68,1.92,1.35,2.89,2.02,2.51,1.72,5.06,3.42,7.75,4.85-.02-.4-.09-.79-.22-1.18ZM857.4,973.49c-.55-1.63-1.58-2.86-2.89-3.95-.43-.37-.91-.69-1.41-.96-.7-.36-1.45-.74-2.23-.9-1.09-.24-2.12-.31-3.22-.06-.23.05-.45.11-.67.18.96.68,1.92,1.35,2.89,2.02,2.51,1.72,5.06,3.42,7.75,4.85-.02-.4-.09-.79-.22-1.18ZM825.42,973.72c.4-.97.71-1.97.9-2.98-1.42-.66-2.82-1.33-4.22-2.02,1.12,1.66,2.23,3.33,3.32,5ZM785.71,1012.11c-2.78.11-5.57.41-8.35.75,7.17.22,14.34.75,21.51,1.08-4.34-.98-8.66-2.01-13.16-1.83ZM760.84,1013.13c-4.02.32-7.97,1.05-11.9,1.94,3.47-.03,5.48-.05,5.82-.07,5.19-.33,10.37-.78,15.54-1.3,2.34-.24,4.7-.55,7.06-.84-.17,0-.34,0-.51-.02-5.34-.15-10.68-.14-16.01.29ZM771.78,42.88c.1-1.86.16-3.74.21-5.64-1.42.09-2.83.2-4.25.31.63,5.19,1.53,10.38,3.03,15.38.53-3.32.83-6.68,1.01-10.05ZM744.47,36.94c5.53.27,10.87,1.24,16.44,1.03,2.28-.08,4.56-.25,6.83-.42-.12-1.03-.23-2.05-.34-3.07-.06-.58-.11-1.15-.16-1.73-4.09.14-8.2.43-12.4.71-10.1.68-396.5-.4-406.63-.24-4.76.07-9.52.24-14.29.41-.59,2.17-1.19,4.33-1.8,6.48.87.01,1.75-.01,2.64-.06,11.18-.59,398.45-3.66,409.71-3.11ZM347.88,1015.44c-10.13.43-20.15,2.25-30.28,2.69-6.98.3-13.95-.52-20.92-.83-3.56-.16-7.14-.32-10.71-.63.04.82.07,1.64.1,2.46,7.55-.02,15.76-.04,24.56-.05,2.25,0,4.54-.01,6.86-.01,11.61-.02,24.14-.04,37.4-.06,3.08-.01,6.2-.01,9.35-.01,2-.01,4.02-.01,6.06-.01,0,0,.02,0,.03,0t.02,0s.1,0,.15,0c.02,0,.05,0,.07,0,.07,0,.13,0,.2,0,.11,0,.22,0,.33,0,74.44-.88,369.88-2.01,374.19-3.06,1.22-.3,2.43-.59,3.65-.86-48.49.28-380.99.45-385.76.47-5.1.02-10.2-.31-15.3-.1ZM324.07,63.25c2.19-4.97,4.04-10.08,5.68-15.26.83-2.62,1.61-5.24,2.37-7.88-2.45-.02-4.86-.22-7.28-.42-.57,7.84-.92,15.69-.77,23.56ZM325.22,34.86s-.06.1-.09.15c-1.06,1.6-2.39,3.04-3.8,4.4,1.18.08,2.34.18,3.51.28.12-1.61.24-3.22.38-4.83ZM317.9,42.62c1.12-1.05,2.3-2.11,3.43-3.21-.41-.03-.82-.06-1.23-.08-3.31-.19-5.66,1.05-7.52,3.8-1.41,2.08-2.22,4.36-2.73,6.73.15-.12.3-.25.45-.38,2.59-2.22,5.11-4.53,7.6-6.86ZM310.02,74.61c.14-4.43-.42-8.86-.82-13.27-.12-1.34-.25-2.71-.34-4.1-.32,3.39-.69,6.75-1.92,9.82.44,2.66.83,5.32.95,8,.05,1.34,2.09.6,2.13-.45ZM309.03,50.56c-.33,2.18-.3,4.45-.17,6.68.24-2.48.46-4.98.99-7.38-.28.24-.55.47-.82.7ZM306.94,67.06c-.27-1.72-.56-3.43-.8-5.15-.1,2.43-.18,4.86-.22,7.29.4-.69.74-1.41,1.02-2.14ZM295.47,63.72c2.95-3.65,6.39-6.9,9.94-10.02,0,2.58.32,5.18.66,7.73.02.16.04.32.07.48.2-4.83.45-9.66.53-14.49-.37.26-.66.62-.76,1.07-.04.19-.06.38-.1.57-4.19,4.45-8.11,9.07-11.77,14-.7.94.84,1.39,1.43.66ZM304.31,36.28c-3.71.1-7.39.49-11.07.94,2.12-.07,4.24-.21,6.39-.42,1.56-.15,3.12-.33,4.68-.52ZM917.92,982.17c-.82-9.66-1.6-19.27-1.71-28.97-.11-9.57.04-19.15-.17-28.73-.21-9.92-.93-19.77-2.42-29.59-.2-1.31-.39-2.62-.56-3.94-.09-.66-.18-1.32-.26-1.97-.09-.71-.17-1.42-.26-2.12-.14-1.3-.28-2.6-.4-3.9s-.22-2.6-.31-3.9c-.19-2.8-.29-5.6-.29-8.4.01-7.96.97-786.31,2.28-794.16.74-4.44,1.44-8.77,1.31-13.3-.13-4.11-.74-8.18-1.63-12.19-1-4.49-2.3-8.92-3.64-13.35-.05-.17-.1-.34-.15-.51-.3-1.02-.61-2.04-.91-3.06-.18-.6-.36-1.19-.53-1.79-.18-.6-.35-1.19-.52-1.79-.69-2.39-1.33-4.78-1.9-7.19-.37-.41-.74-.81-1.11-1.21-.11-.11-.21-.22-.32-.33-.13-.14-.26-.28-.4-.41-.24-.25-.48-.5-.73-.74-.13-.14-.27-.27-.41-.4-.15-.15-.3-.29-.45-.43-.04-.04-.08-.08-.12-.12-.39-.37-.78-.73-1.18-1.09-.03-.02-.05-.04-.07-.06h0c-.07-.07-.15-.14-.22-.2-.14-.12-.29-.25-.44-.38-.43-.38-.86-.74-1.3-1.11-.02-.01-.03-.02-.05-.04-.17-.14-.33-.27-.5-.4-.08-.07-.17-.14-.25-.2-.08-.07-.16-.14-.24-.2-4.29-3.42-9.05-6.27-14.14-8.47-3.68.53-7.36,1.02-11.05,1.37,1.96.05,2.76.11,2.29.17-6.63.84-13.32,2-20.02,3.11-.03.01-.07.01-.1.01-.77.13-1.53.25-2.3.38-.17.03-.33.05-.5.08-.37.06-.74.12-1.11.18-2.3.37-4.6.72-6.9,1.04-1.2.17-2.4.33-3.61.47-9.55,1.18-19.12,1.69-28.64.42-5.47-.73-10.87-1.85-16.26-2.97-4.49-.93-8.98-1.87-13.52-2.56-1.65-.25-3.28-.45-4.9-.59-.97-.09-1.93-.16-2.89-.21-.44-.03-.89-.05-1.33-.07-.16-.01-.31-.01-.45-.02-.42-.01-.83-.03-1.25-.04-.5-.01-1.01-.02-1.52-.03-.62-.01-1.25-.01-1.88-.01-.73,0-1.46.01-2.19.03h-.14c-5.44.12-10.89.55-16.48.98-10.55.8-359.87-.37-405.12-.31-1.03.13-2.07.28-3.1.44-1.13.17-2.26.35-3.39.52-1.14.18-2.26.36-3.4.55-1.12.18-2.26.36-3.39.55-.34.06-.67.11-1.01.17-.79.13-1.58.26-2.38.38-4.4.71-8.82,1.37-13.25,1.87-.1,0-.21.02-.31.03-8.89.97-17.46.69-26.23-.38-1.36-.16-2.73-.35-4.1-.55-2.62-.39-5.24-.8-7.86-1.23-3.93-.64-7.85-1.3-11.79-1.89-1.18-.18-2.36-.35-3.55-.51-.03,0-.05-.01-.08-.01h-1.58c-1.27,0-2.54,0-3.81-.01h-.76c-2.05,0-4.1-.03-6.15-.07-11.76-.21-23.83-.81-35.36-3.46-3.07.39-6.13.77-9.2,1.14-4.81.58-9.62,1.14-14.44,1.64-1.48.17-2.97.33-4.45.48-6.35.64-12.7,1.22-19.07,1.72-6.28.49-12.63,1.1-18.94,1.13-12.35.06-24.3-3.46-36.49-4.89-3.06-.36-6.15-.58-9.23-.59-3.02,0-5.99.49-8.99.61-5.95.23-11.57,2.6-17.52,2.85-8.17.34-15.48-3.87-23.2-5.82-3.35.66-6.6,1.6-9.74,2.78h-.01c-.53.19-1.05.39-1.58.6-.52.21-1.03.43-1.55.65-.51.23-1.02.46-1.53.7-.01,0-.02.01-.03.01-.5.23-.99.47-1.48.72-.5.25-.99.51-1.48.77-.5.27-.98.54-1.47.81,0,.01-.01.01-.02.01-.47.28-.95.56-1.42.84-.47.29-.94.59-1.41.89-.7.46-1.39.92-2.08,1.4-.68.48-1.35.98-2.01,1.48-.89.66-1.75,1.36-2.59,2.09-.84.71-1.65,1.44-2.45,2.19l-.03.03c-.4.38-.8.77-1.19,1.16-.77.76-1.53,1.55-2.26,2.36-1.65,2.9-3.23,5.86-4.77,8.83.27,6.01.54,12.03.65,18.05.1,4.91.07,9.82-.18,14.72-.27,5.09-.96,113.92-1.56,118.98-2.36,19.84.13,706.44,1.92,726.21.8,8.79,1.48,17.59,1.54,26.41.01.95.01,1.89,0,2.84v.46c-.05,4.41-.26,8.72-1.2,13.05-.91,4.18-2.28,8.25-3.72,12.28-1.38,3.86-2.84,7.7-3.99,11.64-.11.4-.22.8-.34,1.21-.89,3.27-1.6,6.73-1.38,10.11.28,4.17,2.31,8.12,3.88,11.92,1.7,4.11,2.82,8.05,3.07,12.5.13,2.45.15,4.91.12,7.37,4.51,3.8,8.79,7.91,12.85,12.19.91.96,1.81,1.94,2.69,2.93.52.59,1.03,1.17,1.54,1.77s1.01,1.2,1.5,1.81c1.35,1.69,2.71,3.45,3.72,5.38.46.87.83,1.77,1.17,2.68,3.97,1.42,7.97,2.77,12.02,3.95.68.2,1.35.39,2.03.58.06.02.12.03.18.05.4.11.8.22,1.2.32.64.18,1.29.34,1.93.5.67.17,1.35.33,2.03.48,3.28.73,6.66,1.36,10.03,1.41,3.21.05,6.44-.98,9.41-2.1.46-.17.92-.35,1.37-.53.71-.29,1.41-.58,2.11-.88,1.64-.7,3.26-1.45,4.88-2.2,3.32-1.52,6.66-3.03,10.15-4.13,7.1-2.23,14.58-1.98,21.95-1.75,5.02.15,10.02.46,15.02.84,3.74.29,7.47.62,11.2.95,7.55.67,15.1,1.38,22.66,1.84,3.87.24,7.75.22,11.59.81,3.86.59,7.63,1.61,11.4,2.59,3.98,1.03,7.98,2.04,12.07,2.45,4.03.42,7.95-.18,11.91-.92,7.2-1.34,14.3-3.28,21.65-3.72,1.66-.1,3.33-.12,5-.08,4.24.09,8.52.55,12.76.99,2.36.24,4.71.48,7.05.65.87.06,1.74.13,2.61.19,1.67.12,3.34.24,5.02.36-4.88.24-9.75.73-14.62,1.05-.51.03-1.02.07-1.53.1-.55.03-1.09.06-1.64.08-.34.02-.68.03-1.03.05-.71.03-1.42.05-2.13.06,1.1.02,16.52.03,41.9.02-1.54-.08-3.08-.17-4.62-.26-1.37-.08-2.73-.17-4.1-.25-1.15-.08-2.3-.15-3.46-.23-2.48-.17-4.96-.34-7.44-.52-.43-.03-.88-.06-1.31-.1.08,0,.16-.01.24-.01,7.47-.34,14.93-.47,22.4-.46,14.71.03,29.41.61,44.12,1.21,9.83-.73,19.66-1.66,29.5-2.25,2.7-.16,42.15-.25,95.38-.31h1.82c43.58-.06,96.12-.1,145.23-.13,1.03-.01,2.07-.01,3.1-.01,2.16,0,4.31,0,6.45-.01,32.05-.03,62.27-.06,87.08-.1,4.78-.02,9.36-.03,13.71-.03h.34c2.93-.01,5.75-.02,8.45-.02.6-.01,1.19-.01,1.77,0,7.71-.03,14.48-.05,20.12-.07.87-.01,1.71-.01,2.52-.01.86-.01,1.69-.01,2.48-.01.46-.01.92-.01,1.36-.01.79-.01,1.55-.01,2.27-.01.81-.01,1.58-.02,2.3-.02.97-.01,1.86-.02,2.67-.02,2.89-.03,4.66-.06,5.16-.09,1.68-.11,3.36-.24,5.04-.39,6.77-.57,13.52-1.41,20.3-1.88,4.92-.35,9.84-.29,14.75.07.85.06,1.7.13,2.55.21.85.08,1.7.17,2.54.26.68.08,1.36.16,2.03.24,1.02.13,2.04.26,3.05.41,1.27.18,2.53.38,3.79.59,4.23.7,8.45,1.54,12.63,2.45,3.19.09,6.39.15,9.59.13,5.07-.63,10.17-.8,15.28-.7,3.41-.37,6.77-.98,10.04-2.04.01.01.01,0,.02,0,.65-.21,1.29-.43,1.93-.68.25-.1.51-.2.76-.3,1.44-.57,2.87-1.2,4.28-1.85,1.44-.66,2.86-1.34,4.29-2.02.6-.29,1.21-.58,1.82-.86.74-.35,1.48-.7,2.22-1.03.54-.26,1.09-.5,1.64-.73.94-.42,1.9-.82,2.86-1.2,4.8-1.89,9.66-2.98,14.63-4.28,4.66-1.21,8.35-3.51,11.23-7.42,1.92-2.6,3.26-5.3,4.09-8.42.35-1.33.65-2.67.95-4.01.23-1.01.47-2.01.73-3.01.08-.34.17-.67.27-1,.1-.35.21-.7.32-1.05.91-2.76,2.27-5.22,3.9-7.5-.47-6.19-1-12.38-1.53-18.56ZM107.2,33.61c5.41-.2,10.51-2.1,15.92-2.29,2.73-.09,5.42-.48,8.17-.48s5.6.18,8.38.47c6.98.72,13.87,2.11,20.83,3.02.01,0,.03,0,.04.01,9.89,2.29,20.08,3.93,30.24,3.3,1.61-.1,3.22-.21,4.82-.34,1.62,4.82,3.62,9.5,6.25,13.81.84-3.81,1.37-7.68,1.68-11.56.08-.97.14-1.94.19-2.91,8.2-.7,16.4-1.43,24.65-1.61,6.57-.15,13.05.13,19.57.96,3.24.41,6.46.89,9.69,1.34.57,1.95,1.24,3.87,2.05,5.73.4-1.76.77-3.53,1.09-5.31,2.15.29,4.3.54,6.46.74,6.36.58,12.58.37,18.91-.38,2.37-.28,4.74-.6,7.1-.89,2.12-.07,4.24-.21,6.39-.42,1.56-.15,3.12-.33,4.68-.52.5-.02.99-.03,1.49-.03.42,0,.71.34.73.72.19,3.48.21,6.96.14,10.45-.37.26-.66.62-.76,1.07-.04.19-.06.38-.1.57-4.19,4.45-8.11,9.07-11.77,14-.7.94.84,1.39,1.43.66,2.95-3.65,6.39-6.9,9.94-10.02,0,2.58.32,5.18.66,7.73.02.16.04.32.07.48-.1,2.43-.18,4.86-.22,7.29.4-.69.74-1.41,1.02-2.14.44,2.66.83,5.32.95,8,.05,1.34,2.09.6,2.13-.45.14-4.43-.42-8.86-.82-13.27-.12-1.34-.25-2.71-.34-4.1.24-2.48.46-4.98.99-7.38.15-.12.3-.25.45-.38,2.59-2.22,5.11-4.53,7.6-6.86,1.12-1.05,2.3-2.11,3.43-3.21,1.18.08,2.34.18,3.51.28-.57,7.84-.92,15.69-.77,23.56,2.19-4.97,4.04-10.08,5.68-15.26.83-2.62,1.61-5.24,2.37-7.88.87.01,1.75-.01,2.64-.06,11.18-.59,398.45-3.66,409.71-3.11,5.53.27,10.87,1.24,16.44,1.03,2.28-.08,4.56-.25,6.83-.42.63,5.19,1.53,10.38,3.03,15.38.53-3.32.83-6.68,1.01-10.05.1-1.86.16-3.74.21-5.64,1.64-.11,3.27-.2,4.91-.24,5.22-.12,10.27.45,15.37,1.49,5.38,1.1,10.54,3.07,15.93,4.14,5.56,1.11,11.03.9,16.54-.35,4.58-1.03,9.14-1.59,13.75-2.24-.18,1.62-.35,3.23-.52,4.84-.18,1.77-.37,6.2-.54,12.43-.15.25-.31.5-.47.74-.51.79-1.04,1.58-1.56,2.36.36-.43.72-.86,1.09-1.29.31-.35.61-.7.92-1.05,2.33-2.66,4.72-5.26,7.26-7.72.55-.53,1.1-1.06,1.66-1.58-.46,2.13-.94,4.25-1.45,6.37,1.77-1.43,3.67-2.71,5.49-3.92.4-.27.81-.53,1.21-.8,3.31-2.17,6.6-4.34,9.72-6.74,1.14,1.13,1.97,2.71,2.64,4.04,1.66,3.31,2.88,6.83,3.98,10.37,2.02-1.05,4.05-2.08,6.09-3.07.26-.13.51-.25.77-.37,1.38,4.05,2.78,8.11,3.82,12.22.8,3.2,1.36,6.46,1.48,9.75.12,3.62-.52,110.91-1.19,114.47-1.2,6.27-2.06,679.23-2.07,685.6,0,2.77.14,5.54.4,8.31-1.93.37-3.86.76-5.78,1.15.37,3.17.68,6.35.99,9.54,2.09.12,4.17.21,6.26.29.01.03.01.07.02.1,1.35,7.85,2.01,15.73,2.2,23.67.19,7.67.05,15.33.15,22.99.1,7.76.81,15.46,1.56,23.18.47,4.95.96,9.9,1.38,14.85-1.48,1.83-2.72,3.8-3.54,6.01-.6,1.61-1,3.26-1.42,4.91-3.53-1.41-7.08-2.79-10.64-4.14-.52-.2-1.03-.39-1.55-.59.4.59.73,1.23.95,1.93.9,2.87-.01,6.25-1.43,8.8-2.96,5.3-8.75,8.35-14.24,10.38-1.52.56-3.07,1.06-4.63,1.5-4.87,1.39-9.89,2.24-14.89,2.91-5.74.78-11.51,1.38-17.29,1.62-.11-3.42-.48-6.81-1.23-10.16-1.36,3.39-2.62,6.82-3.78,10.28-.52.01-1.03.01-1.55.01-3.3-.02-6.59-.13-9.89-.29-4.34-.98-8.66-2.01-13.16-1.83-2.78.11-5.57.41-8.35.75-.17,0-.34,0-.51-.02-5.34-.15-10.68-.14-16.01.29-4.02.32-7.97,1.05-11.9,1.94-48.49.28-380.99.45-385.76.47-5.1.02-10.2-.31-15.3-.1-10.13.43-20.15,2.25-30.28,2.69-6.98.3-13.95-.52-20.92-.83-3.56-.16-7.14-.32-10.71-.63-2.95-.24-5.88-.59-8.78-1.11-3.03-.55-6.72-1.31-9.57-3.07-.68,1.99-1.32,4-1.94,6.02-5.35-.49-10.74-1-16.05-.72-.95.05-1.89.12-2.83.22-.22-1.81-.47-3.61-.76-5.4-.5-3.26-1.1-6.5-1.81-9.72-1.34,3.17-2.44,6.43-3.33,9.76-1.63.11-3.25.38-4.91.92-5.08,1.66-9.49,4.99-15.01,5.15-5.52.16-10.86-1.94-16.12-3.33-5.32-1.4-10.63-1.96-16.13-1.88-5.59.07-11.19.37-16.74-.37-5.86-.78-11.58-2.37-17.31-3.76-3.81-.91-7.62-1.64-11.47-2.22-.04-.64-.09-1.28-.16-1.92-.26.6-.52,1.19-.77,1.79-1.62-.24-3.25-.45-4.88-.63-3.64-.41-7.4-.76-11,.18-4.13,1.09-7.76,3.5-11.46,5.53-4.51,2.47-9.53,3.92-14.64,4.36-1.55.14-3.11.18-4.69.14,2.49-5.82,4.84-11.7,6.87-17.7-5.28,4.36-10.53,8.76-15.71,13.23-1.02.88-2.04,1.76-3.05,2.65-5.15-1.46-10.08-3.74-14.34-6.68-1.23-.85-2.41-1.76-3.52-2.75-2.24-1.96-4.23-4.2-5.88-6.72-1.28-1.95-2.34-4.03-3.29-6.17-.67-1.51-1.66-3.28-1.88-4.91-.29-2.14,0-4.24-.73-6.34-.86-2.48-2.33-4.8-3.71-7.02-2.25-3.63-4.65-7.21-6.19-11.19.15-.53.31-1.05.48-1.56,1.04-3.16,2.37-6.23,3.63-9.32.37-.91.73-1.82,1.08-2.73,7.52-5.38,14.9-10.96,22.11-16.74-.61-.1-1.22-.2-1.83-.27-1.41-.2-2.83-.32-4.25-.4-2.78-.16-5.57-.12-8.35.04-1.44.08-2.87.19-4.3.33,0-.17.01-.33.01-.5.05-4.82-.17-9.63-.55-14.43.39-10.94-.65-21.97-.93-32.96-.11-4.38-.08-8.77.21-13.14.14-2.26.36-4.51.66-6.76.26-1.95,1.01-670.45,1.73-672.27.75-1.93,1.56-3.83,2.22-5.78.67-1.96,1.35-107.92,1.26-110-.18-4.08-1.49-8.01-2.22-12.01-.67-3.63-.9-7.34.14-10.92.64-2.21,1.61-4.34,2.91-6.24.2-.29.4-.57.62-.85,2.76,1.47,5.56,2.88,8.4,4.21-.91-3.12-2.05-6.16-3.38-9.13,1.41-1.03,2.91-1.94,4.47-2.73,8.33-4.22,17.81-5.75,27-7.24,3.86,1.17,7.76,2.15,11.9,2ZM857.62,974.67c-.02-.4-.09-.79-.22-1.18-.55-1.63-1.58-2.86-2.89-3.95-.43-.37-.91-.69-1.41-.96-.7-.36-1.45-.74-2.23-.9-1.09-.24-2.12-.31-3.22-.06-.23.05-.45.11-.67.18.96.68,1.92,1.35,2.89,2.02,2.51,1.72,5.06,3.42,7.75,4.85ZM826.32,970.74c-1.42-.66-2.82-1.33-4.22-2.02,1.12,1.66,2.23,3.33,3.32,5,.4-.97.71-1.97.9-2.98ZM293.24,37.22c2.12-.07,4.24-.21,6.39-.42,1.56-.15,3.12-.33,4.68-.52-3.71.1-7.39.49-11.07.94ZM305.91,48.49c-.04.19-.06.38-.1.57-4.19,4.45-8.11,9.07-11.77,14-.7.94.84,1.39,1.43.66,2.95-3.65,6.39-6.9,9.94-10.02,0,2.58.32,5.18.66,7.73.02.16.04.32.07.48.2-4.83.45-9.66.53-14.49-.37.26-.66.62-.76,1.07ZM306.14,61.91c-.1,2.43-.18,4.86-.22,7.29.4-.69.74-1.41,1.02-2.14-.27-1.72-.56-3.43-.8-5.15ZM309.03,50.56c-.33,2.18-.3,4.45-.17,6.68.24-2.48.46-4.98.99-7.38-.28.24-.55.47-.82.7ZM309.2,61.34c-.12-1.34-.25-2.71-.34-4.1-.32,3.39-.69,6.75-1.92,9.82.44,2.66.83,5.32.95,8,.05,1.34,2.09.6,2.13-.45.14-4.43-.42-8.86-.82-13.27ZM320.1,39.33c-3.31-.19-5.66,1.05-7.52,3.8-1.41,2.08-2.22,4.36-2.73,6.73.15-.12.3-.25.45-.38,2.59-2.22,5.11-4.53,7.6-6.86,1.12-1.05,2.3-2.11,3.43-3.21-.41-.03-.82-.06-1.23-.08ZM325.13,35.01c-1.06,1.6-2.39,3.04-3.8,4.4,1.18.08,2.34.18,3.51.28.12-1.61.24-3.22.38-4.83-.02.05-.06.1-.09.15ZM324.84,39.69c-.57,7.84-.92,15.69-.77,23.56,2.19-4.97,4.04-10.08,5.68-15.26.83-2.62,1.61-5.24,2.37-7.88-2.45-.02-4.86-.22-7.28-.42ZM363.18,1015.54c-5.1.02-10.2-.31-15.3-.1-10.13.43-20.15,2.25-30.28,2.69-6.98.3-13.95-.52-20.92-.83-3.56-.16-7.14-.32-10.71-.63.04.82.07,1.64.1,2.46,7.55-.02,15.76-.04,24.56-.05,2.25,0,4.54-.01,6.86-.01,11.61-.02,24.14-.04,37.4-.06,3.08,0,6.19-.01,9.35-.01,2-.01,4.02-.01,6.06-.01,0,0,.02,0,.03,0t.02,0s.1,0,.15,0c.02,0,.05,0,.07,0,.07,0,.13,0,.2,0,.11,0,.22,0,.33,0,74.44-.88,369.88-2.01,374.19-3.06,1.22-.3,2.43-.59,3.65-.86-48.49.28-380.99.45-385.76.47ZM767.4,34.48c-.06-.58-.11-1.15-.16-1.73-4.09.14-8.2.43-12.4.71-10.1.68-396.5-.4-406.63-.24-4.76.07-9.52.24-14.29.41-.59,2.17-1.19,4.33-1.8,6.48.87.01,1.75-.01,2.64-.06,11.18-.59,398.45-3.66,409.71-3.11,5.53.27,10.87,1.24,16.44,1.03,2.28-.08,4.56-.25,6.83-.42-.12-1.03-.23-2.05-.34-3.07ZM767.74,37.55c.63,5.19,1.53,10.38,3.03,15.38.53-3.32.83-6.68,1.01-10.05.1-1.86.16-3.74.21-5.64-1.42.09-2.83.2-4.25.31ZM776.85,1012.84c-5.34-.15-10.68-.14-16.01.29-4.02.32-7.97,1.05-11.9,1.94,3.47-.03,5.48-.05,5.82-.07,5.19-.33,10.37-.78,15.54-1.3,2.34-.24,4.7-.55,7.06-.84-.17,0-.34,0-.51-.02ZM785.71,1012.11c-2.78.11-5.57.41-8.35.75,7.17.22,14.34.75,21.51,1.08-4.34-.98-8.66-2.01-13.16-1.83Z"/>
          <path class="st7" d="M877.02,1045.94l-3.16-.25c-.23.12-.47.23-.71.34,2.88-.04,4.23-.06,3.87-.09ZM873.48,12.46c-6.1.6-12.38.87-18.67.4-.12,0-.23-.01-.35-.02-.74-.06-1.48-.12-2.22-.2-1.53-.15-3.06-.34-4.58-.55-13.4-.11-31.08-.22-51.94-.31-7-.03-14.36-.07-22.03-.1-2.57-.01-5.17-.02-7.81-.03-63.28-.23-146.05-.38-226.64-.46-95.38.24-188.62.55-192.17,1-.97.12-1.94.26-2.92.4,3.02.04,6.05.16,9.01.27,6.53.26,389.55.53,396.29.02l1.29-.1c5.15-.39,10.16-.78,15.15-.88,2.58-.06,5.15-.04,7.74.09,2.66.14,5.33.4,8.02.81,4.5.69,9.07,1.64,13.5,2.56,5.31,1.11,10.81,2.25,16.35,2.98,9.7,1.3,19.4.82,28.99-.34,4.47-.54,8.91-1.22,13.31-1.93,1.69-.28,3.37-.56,5.05-.84,5.52-.92,11.23-1.87,16.76-2.57.55-.07-.2-.14-2.13-.2ZM837.88,1045.22c2.25-.01,4.47-.05,6.71-.13,2.88-.11,5.84-.25,8.78-.59-5.15-.09-10.33.08-15.49.72ZM812.46,11.16c8.93,1.18,18.06.73,27.16-.37-1.18-.2-2.35-.41-3.51-.62-3.41-.62-6.91-1.25-10.39-1.76-1.04-.15-2.07-.29-3.1-.41-9.35-1.13-19.1-.75-28.59-.28.87.18,1.73.36,2.59.54,5.19,1.08,10.56,2.19,15.84,2.9ZM832,1045.73c.33.07.65.15.98.23.26-.05.53-.1.79-.14,1.37-.24,2.74-.44,4.11-.6-2.88,0-5.79-.05-8.78-.13.97.21,1.94.43,2.9.64ZM802.83,1040.97c-5.23-.41-10.51-.49-15.82-.12-4.06.28-8.15.7-12.11,1.1-4.33.44-8.81.9-13.2,1.17-4.31.27-8.75.35-13.03.44-4.22.08-384.86.16-389.18.41-6.39.38-12.86.92-19.12,1.43-3.37.28-6.77.56-10.2.81.56.02,1.11.05,1.66.07,4.37.18,8.82.36,13.29.53,110.43-.07,286.07-.23,405.04-.43-15.51.39-75.89.63-144.92.76,81.64-.08,153.02-.17,156.68-.4,1.68-.11,3.36-.24,5.04-.39-5.41,0-10.96.02-16.64.03,1.99-.05,3.2-.1,3.57-.16,2.09-.32,4.23-.72,6.31-1.11,5.02-.94,10.21-1.91,15.54-1.98,4.65-.07,9.27.28,13.74.61,3.18.24,6.47.49,9.68.58.96.03,1.92.05,2.89.07,2.1.05,4.2.09,6.31.13,1.31.03,2.63.06,3.97.08,3.22.08,6.49.16,9.73.27,2.41.08,4.75.16,7.04.22-5.34-1.15-10.83-2.22-16.41-3.02-3.26-.48-6.55-.86-9.86-1.1ZM749.17,9.26c5.59-.43,11.04-.86,16.48-.98h.14c.73-.02,1.46-.03,2.19-.03.63,0,1.26,0,1.88.01.51.01,1.02.02,1.52.03.42.01.83.03,1.25.04.14.01.29.01.45.02.44.02.89.04,1.33.07-.03.13-.07.27-.1.4.99-.06,1.99-.13,2.99-.19,2.33-.15,4.66-.29,6.99-.42-83.81-.36-211.35-.6-320.63-.67-63.55.25-113.25.57-117.05,1.06-.85.11-1.71.22-2.56.35,45.25-.06,394.57,1.11,405.12.31ZM339.56,12.58c-4.09.07-8.24.22-12.31.38-1.06.04-2.11.09-3.16.13-3.38.14-6.81.27-10.27.37-2.63.08-5.27.14-7.9.17-5.94.06-11.92-.23-17.7-.52l-.63-.03c-3.98-.2-8.08-.39-12.11-.46-3.95-.07-7.97-.09-11.9-.09h-1.76c-.61,0-1.22,0-1.84-.01,1.19.16,2.37.33,3.56.51,3.09.46,6.17.97,9.2,1.47,3.4.56,6.81,1.12,10.23,1.62,11.71,1.72,21.74,2.01,31.56.91,4.18-.47,8.37-1.09,12.5-1.74,1.81-.29,3.6-.58,5.37-.87,2.41-.4,4.86-.8,7.31-1.18,1.48-.23,2.96-.45,4.44-.65-1.42-.03-2.83-.03-4.23-.01h-.36ZM263.52,1045.47h-.05c7.01.51,14.11,1.01,21.22,1.37h1.43c10.21-.01,21.96-.01,34.98-.02,3.03-.17,6.06-.38,9.07-.61-14.46-.59-29.23-1.17-44.02-1.19-7.55-.02-15.11.1-22.63.45ZM921.64,983.12l-.1-1.26c-.44-5.11-.84-9.97-1.14-14.71-.3-4.73-.51-9.35-.56-13.99-.05-4.02-.05-8.05-.05-12.07,0-5.47,0-11.12-.12-16.69-.23-10.84-1.04-20.67-2.46-30.06-1.4-9.24-2.05-16.77-2.04-23.68,0-6.73.71-680.7,2.22-689.75.71-4.23,1.51-112.85,1.36-117.83-.12-3.99-.68-8.2-1.71-12.86-1.11-4.99-2.59-9.92-4.03-14.69-1.28-4.28-2.61-8.71-3.62-13.05-.14-.59-.43-1.14-.83-1.59-6.39-7.13-14.42-12.9-23.2-16.7-.62-.26-1.3-.36-1.96-.26-3.49.5-7.07.98-10.69,1.32,1.87.07,2.57.14,2,.21-5.68.72-11.46,1.68-17.05,2.61-1.11.19-2.22.37-3.34.55-.73.13-1.46.25-2.2.36-4.14.68-8.32,1.31-12.5,1.81,2.65.47,5.34.93,8.04,1.3,2.67.03,5.16.05,7.48.08,8.91.09,15.19.19,18.34.29,3.37-.32,6.68-.74,9.92-1.2,1.73.78,3.42,1.64,5.07,2.6,2.27,1.3,4.45,2.75,6.53,4.33,2.71,2.07,5.24,4.38,7.54,6.87,1.03,4.25,2.3,8.47,3.53,12.55.16.54.32,1.08.48,1.62,1.24,4.14,2.48,8.38,3.41,12.56.93,4.21,1.44,7.98,1.54,11.51.13,4.27-.58,8.5-1.26,12.6-1.58,9.45-2.32,787.62-2.33,794.75,0,2.88.11,5.84.32,8.97.33,4.8.93,9.99,1.81,15.81.05.36.11.72.15,1.08,1.28,8.74,2.01,17.94,2.23,28.04.12,5.5.12,11.11.12,16.54,0,4.05,0,8.1.04,12.16.11,9.51.85,18.86,1.73,29.23l.11,1.25c.45,5.33.9,10.66,1.31,16-1.61,2.43-2.8,4.86-3.63,7.37-.03.08-.05.17-.08.25-.61,1.91-1.04,3.81-1.45,5.66-.25,1.13-.5,2.25-.8,3.37-.69,2.6-1.8,4.89-3.49,7.19-2.28,3.09-5.22,5.01-9.24,6.07-.92.24-1.83.47-2.75.7-4.02,1.02-8.17,2.08-12.29,3.7-3.09,1.22-6.08,2.65-8.98,4.03-2.17,1.03-4.25,2.03-6.35,2.93-.84.36-1.67.7-2.52,1.03-3.44,1.32-7.09,2.05-10.78,2.47,4.31.06,8.6.3,12.85.61,2.25.16,4.5.33,6.73.51l.91.07c.77-.36,1.53-.72,2.28-1.08,2.91-1.38,5.66-2.69,8.52-3.82,3.69-1.45,7.45-2.41,11.42-3.42.93-.24,1.86-.47,2.8-.72,5.63-1.47,9.96-4.34,13.23-8.78,2.23-3.01,3.76-6.17,4.68-9.64.31-1.2.58-2.42.86-3.63.41-1.84.8-3.58,1.34-5.24.72-2.19,1.84-4.32,3.41-6.53.49-.69.73-1.53.66-2.38-.44-5.78-.93-11.56-1.42-17.33ZM838.46,1052.45c-1.16.14-2.31.31-3.45.51-.35.06-.69.13-1.02.2l-.38.07c-.5.1-1.02.09-1.51-.02l-.83-.2c-.28-.07-.56-.14-.85-.2-.75-.17-1.5-.33-2.25-.49-2.08-.05-4.19-.12-6.36-.2-4.53-.16-9.14-.25-13.6-.34-3.09-.07-6.17-.13-9.25-.21-3.38-.09-6.76-.35-10.02-.59-4.52-.34-8.77-.66-13.1-.6-4.71.07-9.37.94-14.31,1.86-2.13.4-4.33.81-6.53,1.15-.51.08-2.44.15-5.62.23,76.17-.14,129.18-.29,127.09-.45l-4.09-.32c-6.18-.49-12.47-.98-18.72-1.09-2.97.32-5.92.46-8.8.57-2.14.08-4.27.12-6.4.12ZM872.71,5.25c-3.72-.13-12.09-.25-24.2-.36,2.18.3,4.35.55,6.52.72,5.88.46,11.84.21,17.68-.36ZM837.88,1045.22c2.25-.01,4.47-.05,6.71-.13,2.88-.11,5.84-.25,8.78-.59-5.15-.09-10.33.08-15.49.72ZM773.69,11.68c-2.57-.01-5.17-.02-7.81-.03-63.28-.23-146.05-.38-226.64-.46-95.38.24-188.62.55-192.17,1-.97.12-1.94.26-2.92.4,3.02.04,6.05.16,9.01.27,6.53.26,389.55.53,396.29.02l1.29-.1c5.15-.39,10.16-.78,15.15-.88,2.58-.06,5.15-.04,7.74.09,2.66.14,5.33.4,8.02.81,4.5.69,9.07,1.64,13.5,2.56,5.31,1.11,10.81,2.25,16.35,2.98,9.7,1.3,19.4.82,28.99-.34,4.47-.54,8.91-1.22,13.31-1.93,1.69-.28,3.37-.56,5.05-.84,5.52-.92,11.23-1.87,16.76-2.57.55-.07-.2-.14-2.13-.2-6.1.6-12.38.87-18.67.4-.12,0-.23-.01-.35-.02-.74-.06-1.48-.12-2.22-.2-1.53-.15-3.06-.34-4.58-.55-13.4-.11-31.08-.22-51.94-.31-7-.03-14.36-.07-22.03-.1ZM825.72,8.41c-1.04-.15-2.07-.29-3.1-.41-9.35-1.13-19.1-.75-28.59-.28.87.18,1.73.36,2.59.54,5.19,1.08,10.56,2.19,15.84,2.9,8.93,1.18,18.06.73,27.16-.37-1.18-.2-2.35-.41-3.51-.62-3.41-.62-6.91-1.25-10.39-1.76ZM832,1045.73c.33.07.65.15.98.23.26-.05.53-.1.79-.14,1.37-.24,2.74-.44,4.11-.6-2.88,0-5.79-.05-8.78-.13.97.21,1.94.43,2.9.64ZM825.37,4.7c8.75.06,16.51.12,23.14.19-3.73-.53-7.46-1.2-11.12-1.86-4.52-.82-9.2-1.66-13.9-2.23-10.63-1.28-21.41-.75-31.83-.23l-2.18.11c-8.08.39-16.26.94-24.18,1.47-3.27.22-6.55.43-9.83.64-3.44.22-6.89.38-10.34.54-3.75.18-103.42.35-202.2.61,88.29.09,178.79.28,242.94.56,14.66.06,27.94.13,39.5.2ZM802.83,1040.97c-5.23-.41-10.51-.49-15.82-.12-4.06.28-8.15.7-12.11,1.1-4.33.44-8.81.9-13.2,1.17-4.31.27-8.75.35-13.03.44-4.22.08-384.86.16-389.18.41-6.39.38-12.86.92-19.12,1.43-3.37.28-6.77.56-10.2.81.56.02,1.11.05,1.66.07,4.37.18,8.82.36,13.29.53,110.43-.07,286.07-.23,405.04-.43-15.51.39-75.89.63-144.92.76-1.03,0-2.07,0-3.1.01-48.59.08-101.16.12-145.23.13h-1.82c-55.57.01-97.19-.04-99.4-.11-3.51-.11-7.04-.23-10.57-.36-8.4,0-16.43.01-24.02.01-4.45.27-8.91.46-13.34.52-7.15.1-14.4-.09-21.64-.43-.48-.02-.95-.05-1.43-.07h-25.91c-4.08,0-7.45,0-10.06-.01-3.76.01-5.92,0-6.31-.01,2.08-.04,4.19-.15,6.3-.29,1.88-.13,3.76-.28,5.61-.43,1.53-.12,3.09-.25,4.67-.36,1.48-.1,2.97-.2,4.45-.27-.89-.06-1.78-.13-2.66-.19l-1.67-.12-3.05-.23c-2.43-.17-4.96-.44-7.41-.69h-.03c-4.04-.43-8.18-.86-12.35-.96-1.83-.04-3.66-.02-5.5.09-5.52.33-10.87,1.45-16.04,2.55-2.02.42-4.03.85-6.06,1.22-3.49.65-7.21,1.26-10.87.89-3.73-.38-7.42-1.3-11.53-2.36l-.91-.24c-3.5-.91-7.12-1.85-10.85-2.42-2.91-.45-5.79-.57-8.58-.69-1.11-.04-2.23-.09-3.34-.16-6.68-.4-13.49-1.01-20.07-1.6-.74-.07-1.49-.13-2.24-.2-3.52-.32-7.08-.63-10.66-.91-5.32-.41-10.68-.75-16.02-.92h-.21c-7.53-.24-15.32-.48-22.94,1.92-2.35.74-4.62,1.64-6.82,2.6-1.42.62-2.82,1.26-4.2,1.89-2.63,1.21-5.11,2.34-7.68,3.31-2.64.99-5.44,1.91-8.07,1.87-3.19-.06-6.49-.7-9.31-1.33-1.79-.4-3.57-.85-5.33-1.34-4.15-1.14-8.21-2.5-12.09-3.87-.23-.54-.46-1.03-.71-1.5-1.18-2.24-2.67-4.17-4.1-5.95-.97-1.21-2-2.43-3.16-3.73-.85-.95-1.76-1.95-2.77-3.01-3.9-4.12-7.88-7.94-11.84-11.36,0-2.15-.04-4.09-.14-5.91-.25-4.48-1.28-8.7-3.33-13.68-.29-.69-.59-1.38-.89-2.08-1.31-3.03-2.54-5.89-2.73-8.7-.22-3.31.68-6.95,1.59-10.07.24-.82.49-1.63.75-2.45.72-2.21,1.52-4.42,2.3-6.57l.87-2.41c1.43-4,2.88-8.31,3.84-12.73,1.05-4.83,1.24-9.48,1.29-13.78.01-1.12.01-2.24,0-3.36-.06-9.08-.77-18.17-1.55-26.72-.23-2.43-.46-4.86-.69-7.3-1.61-16.97-3.27-701.13-1.25-718.15l.32-2.64c.51-4.14,1.03-112.25,1.26-116.58.23-4.52.29-9.41.19-14.98-.1-5.64-.36-11.36-.6-16.88l-.02-.29c1.44-2.76,2.78-5.23,4.06-7.5.76-.82,1.54-1.62,2.34-2.39,6.15-6,13.56-10.6,21.58-13.44,2.4-.85,4.86-1.55,7.36-2.07,2.13.58,4.25,1.33,6.48,2.13,5.31,1.89,10.81,3.85,16.97,3.58,3.29-.14,6.38-.83,9.37-1.51,2.82-.63,5.48-1.24,8.14-1.34,1.39-.05,2.74-.18,4.05-.3,1.66-.15,3.23-.3,4.79-.3h.01c2.7,0,5.58.18,8.81.56,4.38.52,8.86,1.33,13.2,2.12,7.67,1.4,15.6,2.88,23.72,2.8,5.37-.03,10.77-.46,15.99-.89l3.22-.25c6.11-.48,12.55-1.06,19.16-1.74,1.53-.15,3.09-.32,4.67-.48,4.42-.48,9.05-1.01,13.97-1.6,2.87-.35,5.83-.72,8.91-1.11,11.85,2.65,24.04,3.21,35.46,3.41,2.11.04,4.24.06,6.35.07,1.94.02,3.88.02,5.79.02-1.94-.27-3.89-.51-5.82-.71-.96-.1-1.92-.2-2.88-.28-.42-.04.57-.07,2.86-.1,2.11-.03,5.33-.06,9.54-.08,3.37-.02,7.37-.04,11.95-.05,13.46-.06,31.94-.1,54.09-.12h.04c3.45-.01,6.99-.01,10.61-.01,53.5-.06,125.28-.05,198.87.02,100.06-.26,202.49-.44,206.22-.61,3.5-.16,6.99-.33,10.47-.55,3.27-.21,6.52-.43,9.79-.65h.07c2.81-.19,5.66-.37,8.52-.56.99-.06,1.99-.13,2.99-.19,2.33-.15,4.66-.29,6.99-.42,1.85-.1,3.7-.2,5.54-.29l2.19-.1c.67-.03,1.34-.07,2.01-.1-3.7-.76-7.48-1.51-11.28-2.09-1.81-.28-3.6-.49-5.38-.64h-.02c-9.17-.81-17.95-.14-27.16.56l-1.29.1c-6.32.47-389.13.22-395.45-.03-3.18-.13-6.45-.26-9.73-.29-4.2.57-8.41,1.26-12.5,1.93-.58.09-1.16.19-1.74.28-5.19.85-10.52,1.7-15.76,2.28-.07.01-.14.02-.21.02-8.01.88-16.22.77-25.55-.37-1.29-.16-2.6-.33-3.94-.53-2.72-.4-5.45-.84-8.17-1.29-.65-.1-1.29-.2-1.94-.31-4.39-.72-8.87-1.46-13.4-2.07-4.14,0-8.37-.02-12.54-.09-11.23-.2-23.2-.75-34.6-3.37-.42-.09-.85-.12-1.27-.06-10.43,1.33-19.59,2.39-28,3.25-6.56.67-12.94,1.24-18.99,1.71l-3.24.26c-5.09.42-10.35.84-15.44.87-7.46.07-14.71-1.29-22.39-2.68-4.45-.81-9.05-1.65-13.66-2.19-3.51-.41-6.67-.61-9.65-.61h-.02c-1.88,0-3.7.17-5.45.33-1.27.11-2.47.23-3.66.27-3.32.13-6.44.84-9.45,1.52-2.8.63-5.45,1.23-8.08,1.34-4.75.18-9.36-1.44-14.24-3.18-2.55-.9-5.19-1.84-7.92-2.53-.52-.13-1.06-.15-1.59-.04-13.86,2.71-26.76,10.03-36.32,20.61-.18.19-.33.41-.46.64-1.53,2.68-3.11,5.61-4.84,8.95-.29.56-.43,1.19-.4,1.83l.05,1.26c.25,5.48.5,11.14.6,16.7.1,5.39.04,10.12-.19,14.46-.21,4.08-.69,8.05-1.21,12.26l-.32,106.48c-2.12,17.79-.41,702.35,1.23,719.69.23,2.43.46,4.86.68,7.28.86,9.41,1.63,19.48,1.53,29.34-.05,3.91-.21,8.12-1.12,12.31-.88,4.03-2.25,8.07-3.59,11.84l-.86,2.38c-1.11,3.06-2.26,6.23-3.2,9.47-1.08,3.73-2.15,8.14-1.85,12.57.26,4.06,1.88,7.8,3.3,11.09.29.67.57,1.33.84,1.98,1.74,4.19,2.6,7.68,2.8,11.31.11,2.11.15,4.44.11,7.12-.02,1.09.46,2.13,1.29,2.83,4.19,3.52,8.41,7.53,12.55,11.91,2.23,2.35,3.99,4.34,5.54,6.28,1.2,1.51,2.46,3.12,3.34,4.79.33.63.64,1.36.99,2.28.38,1,1.17,1.78,2.18,2.14,6.18,2.2,12.86,4.46,19.81,6,3.17.71,6.92,1.44,10.77,1.5h.28c3.73,0,7.37-1.17,10.45-2.33,2.81-1.06,5.53-2.3,8.15-3.5,3.46-1.59,6.74-3.1,10.17-4.18,6.46-2.03,13.3-1.81,20.55-1.59h.21c9.48.3,19.14,1.17,28.49,2.01,6.63.6,13.49,1.21,20.28,1.62,1.16.07,2.32.12,3.48.17,2.71.11,5.27.22,7.78.6,3.36.52,6.65,1.37,10.12,2.28l.92.24c4.4,1.14,8.38,2.12,12.62,2.55,4.61.47,8.92-.22,12.93-.97,2.08-.38,4.15-.82,6.22-1.26,5.15-1.08,10-2.11,14.98-2.4,5.42-.33,11.14.27,16.68.84,2.51.26,5.1.53,7.66.72l4.71.34c1.05.08,2.11.15,3.16.23.15,0,.29,0,.44-.02,22.09-1.02,44.62-.13,66.44.76,3.59-.27,7.15-.56,10.68-.85,6.21-.51,12.64-1.04,18.95-1.42,4.18-.24,384.74-.32,388.89-.4,4.36-.09,8.87-.17,13.34-.45,1.71-.11,3.42-.24,5.13-.39,2.81-.24,5.61-.52,8.35-.8,3.9-.4,7.94-.81,11.89-1.09,9.4-.65,18.87.24,28.09,1.79,4.25.7,8.45,1.55,12.56,2.45,3.51.1,6.91.16,10.29.13,5-.63,10.09-.79,15.2-.69,3.49-.37,7-.98,10.46-2.05.89-.28,1.77-.58,2.65-.92h.01c2.17-.84,4.3-1.79,6.37-2.76-2.28.01-5.52.04-9.62.06-.01,0-.01.01-.02,0-10.57.05-26.91.1-47.54.16-14.41.03-30.91.06-49.01.1-5.41,0-10.96.02-16.64.03,1.99-.05,3.2-.1,3.57-.16,2.09-.32,4.23-.72,6.31-1.11,5.02-.94,10.21-1.91,15.54-1.98,4.65-.07,9.27.28,13.74.61,3.18.24,6.47.49,9.68.58.96.03,1.92.05,2.89.07,2.1.05,4.2.09,6.31.13,1.31.03,2.63.06,3.97.08,3.22.08,6.49.16,9.73.27,2.41.08,4.75.16,7.04.22-5.34-1.15-10.83-2.22-16.41-3.02-3.26-.48-6.55-.86-9.86-1.1ZM749.17,1053.62c-118.88.21-294.02.38-404.14.44,3.48.13,6.97.26,10.44.36,6.73.21,344.45.24,393.7-.8ZM275.61,5.36c4.35.08,8.73.3,12.97.51,5.67.28,11.54.56,17.27.51,5.97-.06,12.06-.3,17.95-.54,5.11-.2,10.4-.42,15.63-.51,1.43-.02,2.86-.02,4.29,0,.81-.12,1.62-.23,2.43-.33,3.75-.48,99.84-.81,196.78-1.06-151.03-.15-295.63-.03-291.03.37,2.88.24,5.75.58,8.61.96h1.32c4.51.01,9.18.01,13.78.09ZM339.56,12.58c-4.09.07-8.24.22-12.31.38-1.06.04-2.11.09-3.16.13-3.38.14-6.81.27-10.27.37-2.63.08-5.27.14-7.9.17-5.94.06-11.92-.23-17.7-.52l-.63-.03c-3.98-.2-8.08-.39-12.11-.46-3.95-.07-7.97-.09-11.9-.09h-1.76c-.61,0-1.22,0-1.84-.01,1.19.16,2.37.33,3.56.51,3.09.46,6.17.97,9.2,1.47,3.4.56,6.81,1.12,10.23,1.62,11.71,1.72,21.74,2.01,31.56.91,4.18-.47,8.37-1.09,12.5-1.74,1.81-.29,3.6-.58,5.37-.87,2.41-.4,4.86-.8,7.31-1.18,1.48-.23,2.96-.45,4.44-.65-1.42-.03-2.83-.03-4.23-.01h-.36ZM345.03,1054.06c-4.53-.16-9.06-.35-13.49-.53-.42-.02-.83-.03-1.25-.05-2.93.22-5.89.43-8.85.6,7.47-.01,15.35-.02,23.59-.02ZM321.1,1046.82c3.03-.17,6.06-.38,9.07-.61-14.46-.59-29.23-1.17-44.02-1.19-7.55-.02-15.11.1-22.63.45h-.05c7.01.51,14.11,1.01,21.22,1.37h1.43c10.21-.01,21.96-.01,34.98-.02ZM307.87,1054.6c4.52-.07,9.05-.26,13.57-.52-13.9,0-26.37,0-37.06.01,7.83.4,15.69.62,23.49.51ZM254.9,1053.33c-4.03.33-8.19.66-12.35.74,1.09.02,16.49.03,41.83.02-7.03-.36-14.05-.85-20.97-1.35-2.82.13-5.72.37-8.51.59Z"/>
        </g>
        <path class="st7" d="M266.88,978.82c-.22,1.08-.47,2.16-.74,3.24.21-1.09.44-2.17.69-3.24h.05Z"/>
        <path class="st7" d="M286.05,1050.46c10.29-.01,22.16-.01,35.31-.01-4.51.26-9.02.45-13.54.52-7.79.11-15.61-.12-23.44-.51h1.67Z"/>
        <path class="st7" d="M321.36,1050.45c2.95-.17,5.9-.38,8.85-.61,4.91.21,9.82.41,14.73.59-8.24,0-16.12.01-23.58.02Z"/>
        <path class="st7" d="M355.58,1050.8c-3.55-.11-7.09-.23-10.64-.37,110.01-.06,284.92-.22,403.88-.43-48.33.98-386.08,1.02-393.24.8Z"/>
        <path class="st7" d="M761.04,987.7c-.08-.16-.17-.36-.28-.61.09.17.2.4.28.61Z"/>
        <path class="st7" d="M761.08,986.87s-.08-.07-.17-.16c.08.07.15.13.17.16Z"/>
        <path class="st7" d="M773.97,953.22c-.04.22-.09.44-.13.65-.05.12-.09.23-.13.35-.01.05-.02.1-.03.15-.01.05-.04.1-.06.15-.05.14-.09.28-.12.43,0-.03.01-.05.01-.07-.05.25-.14.5-.29.72-.13.17-.26.34-.4.51-.17.14-.35.29-.52.44-.28.21-.58.36-.91.44-.19.09-.39.13-.6.13-.29.05-.57.04-.85-.05-.08-.04-.15-.07-.23-.11-.35.08-.7.09-1.05.01-.24,0-.47-.07-.68-.2-.33-.11-.6-.32-.8-.62-.09-.21-.19-.41-.28-.62-.1-.36-.09-.71.01-1.06.05-.39.19-.75.42-1.08.02-.03.04-.07.07-.1,2.29-.24,4.46-.47,6.51-.69.07.2.09.4.06.62Z"/>
        <path class="st7" d="M837.04,74.59c-.08,4.5-.15,9.33-.23,14.35-.36,1.32-.71,2.65-1.08,3.99.12-8.61.23-14.69.33-17.84.33-.16.66-.33.98-.5Z"/>
        <path class="st7" d="M842.48,70.06c-.03.55-.06,1.12-.09,1.72-.2.11-.39.21-.59.32.22-.69.45-1.37.68-2.04Z"/>
        <path class="st7" d="M844.73,1048.71c2.91-.11,5.84-.26,8.74-.58,4.43.07,8.87.33,13.3.66h.01c3.33.24,6.66.52,9.97.77.62.05-3.89.1-12.63.15-10.55.05-27.25.1-48.51.16-14.23.03-30.5.07-48.33.1-5.95.01-12.07.02-18.35.03,3.15-.06,5.04-.13,5.51-.2,7.09-1.09,14.16-2.95,21.35-3.05,7.77-.1,15.5.98,23.27,1.19,7.62.21,15.25.29,22.88.55,2.22.08,4.44.15,6.66.21.87.18,1.74.38,2.61.57.57.13,1.13.28,1.7.41.49-.1.98-.2,1.48-.29,1.27-.22,2.53-.4,3.8-.56,2.18,0,4.36-.04,6.54-.12Z"/>
        <path class="st7" d="M826.32,970.74c-.19,1.01-.5,2.01-.9,2.98-1.09-1.67-2.2-3.34-3.32-5,1.4.69,2.8,1.36,4.22,2.02Z"/>
        <path class="st7" d="M857.62,974.67c-2.69-1.43-5.24-3.13-7.75-4.85-.97-.67-1.93-1.34-2.89-2.02.22-.07.44-.13.67-.18,1.1-.25,2.13-.18,3.22.06.78.16,1.53.54,2.23.9.5.27.98.59,1.41.96,1.31,1.09,2.34,2.32,2.89,3.95.13.39.2.78.22,1.18Z"/>
        <path class="st7" d="M919.45,1000.73c-1.63,2.28-2.99,4.74-3.9,7.5-.11.35-.22.7-.32,1.05-.1.33-.19.66-.27,1-.26,1-.5,2-.73,3.01-.3,1.34-.6,2.68-.95,4.01-.83,3.12-2.17,5.82-4.09,8.42-2.88,3.91-6.57,6.21-11.23,7.42-4.97,1.3-9.83,2.39-14.63,4.28-.96.38-1.92.78-2.86,1.2-.55.23-1.1.47-1.64.73-.74.33-1.48.68-2.22,1.03-.61.28-1.22.57-1.82.86-1.43.68-2.85,1.36-4.29,2.02-1.41.65-2.84,1.28-4.28,1.85-.25.1-.51.2-.76.3-.64.25-1.28.47-1.93.68-.01,0-.01.01-.02,0-3.27,1.06-6.63,1.67-10.04,2.04-5.11-.1-10.21.07-15.28.7-3.2.02-6.4-.04-9.59-.13-4.18-.91-8.4-1.75-12.63-2.45-1.26-.21-2.52-.41-3.79-.59-1.01-.15-2.03-.28-3.05-.41-.67-.08-1.35-.16-2.03-.24-.84-.09-1.69-.18-2.54-.26-.85-.08-1.7-.15-2.55-.21-4.91-.36-9.83-.42-14.75-.07-6.78.47-13.53,1.31-20.3,1.88-1.68.15-3.36.28-5.04.39-.5.03-2.27.06-5.16.09-.81,0-1.7.01-2.67.02-.72,0-1.49,0-2.3.02-.72,0-1.48,0-2.27.01-.44,0-.9,0-1.36.01-.79,0-1.62,0-2.48.01-.81,0-1.65,0-2.52.01-5.64.02-12.41.04-20.12.07-.58-.01-1.17-.01-1.77,0-2.7,0-5.52,0-8.45.02h-.34c-4.35,0-8.93.01-13.71.03-24.81.04-55.03.07-87.08.1-2.14.01-4.29.01-6.45.01-1.03,0-2.07,0-3.1.01-49.11.03-101.65.07-145.23.13h-1.82c-53.23.06-92.68.15-95.38.31-9.84.59-19.67,1.52-29.5,2.25-14.71-.6-29.41-1.18-44.12-1.21-7.47-.01-14.93.12-22.4.46-.08,0-.16.01-.24.01.43.04.88.07,1.31.1,2.48.18,4.96.35,7.44.52,1.16.08,2.31.15,3.46.23,1.37.08,2.73.17,4.1.25,1.54.09,3.08.18,4.62.26-25.38.01-40.8,0-41.9-.02.71-.01,1.42-.03,2.13-.06.35-.02.69-.03,1.03-.05.55-.02,1.09-.05,1.64-.08.51-.03,1.02-.07,1.53-.1,4.87-.32,9.74-.81,14.62-1.05-1.68-.12-3.35-.24-5.02-.36-.87-.06-1.74-.13-2.61-.19-2.34-.17-4.69-.41-7.05-.65-4.24-.44-8.52-.9-12.76-.99-1.67-.04-3.34-.02-5,.08-7.35.44-14.45,2.38-21.65,3.72-3.96.74-7.88,1.34-11.91.92-4.09-.41-8.09-1.42-12.07-2.45-3.77-.98-7.54-2-11.4-2.59-3.84-.59-7.72-.57-11.59-.81-7.56-.46-15.11-1.17-22.66-1.84-3.73-.33-7.46-.66-11.2-.95-5-.38-10-.69-15.02-.84-7.37-.23-14.85-.48-21.95,1.75-3.49,1.1-6.83,2.61-10.15,4.13-1.62.75-3.24,1.5-4.88,2.2-.7.3-1.4.59-2.11.88-.45.18-.91.36-1.37.53-2.97,1.12-6.2,2.15-9.41,2.1-3.37-.05-6.75-.68-10.03-1.41-.68-.15-1.36-.31-2.03-.48-.64-.16-1.29-.32-1.93-.5-.4-.1-.8-.21-1.2-.32-.06-.02-.12-.03-.18-.05-.68-.19-1.35-.38-2.03-.58-4.05-1.18-8.05-2.53-12.02-3.95-.34-.91-.71-1.81-1.17-2.68-1.01-1.93-2.37-3.69-3.72-5.38-.49-.61-.99-1.21-1.5-1.81s-1.02-1.18-1.54-1.77c.9-.8,1.81-1.61,2.71-2.41,10.61-9.41,21.34-18.63,33.64-25.35,1.07-.58,2.15-1.15,3.24-1.69,1.11.99,2.29,1.9,3.52,2.75,4.26,2.94,9.19,5.22,14.34,6.68,1.01-.89,2.03-1.77,3.05-2.65,5.18-4.47,10.43-8.87,15.71-13.23-2.03,6-4.38,11.88-6.87,17.7,1.58.04,3.14,0,4.69-.14,5.11-.44,10.13-1.89,14.64-4.36,3.7-2.03,7.33-4.44,11.46-5.53,3.6-.94,7.36-.59,11-.18,1.63.18,3.26.39,4.88.63.25-.6.51-1.19.77-1.79.07.64.12,1.28.16,1.92,3.85.58,7.66,1.31,11.47,2.22,5.73,1.39,11.45,2.98,17.31,3.76,5.55.74,11.15.44,16.74.37,5.5-.08,10.81.48,16.13,1.88,5.26,1.39,10.6,3.49,16.12,3.33,5.52-.16,9.93-3.49,15.01-5.15,1.66-.54,3.28-.81,4.91-.92.89-3.33,1.99-6.59,3.33-9.76.71,3.22,1.31,6.46,1.81,9.72.29,1.79.54,3.59.76,5.4.94-.1,1.88-.17,2.83-.22,5.31-.28,10.7.23,16.05.72.62-2.02,1.26-4.03,1.94-6.02,2.85,1.76,6.54,2.52,9.57,3.07,2.9.52,5.83.87,8.78,1.11,3.57.31,7.15.47,10.71.63,6.97.31,13.94,1.13,20.92.83,10.13-.44,20.15-2.26,30.28-2.69,5.1-.21,10.2.12,15.3.1,4.77-.02,337.27-.19,385.76-.47,3.93-.89,7.88-1.62,11.9-1.94,5.33-.43,10.67-.44,16.01-.29.17.01.34.01.51.02,2.78-.34,5.57-.64,8.35-.75,4.5-.18,8.82.85,13.16,1.83,3.3.16,6.59.27,9.89.29.52,0,1.03,0,1.55-.01,1.16-3.46,2.42-6.89,3.78-10.28.75,3.35,1.12,6.74,1.23,10.16,5.78-.24,11.55-.84,17.29-1.62,5-.67,10.02-1.52,14.89-2.91,1.56-.44,3.11-.94,4.63-1.5,5.49-2.03,11.28-5.08,14.24-10.38,1.42-2.55,2.33-5.93,1.43-8.8-.22-.7-.55-1.34-.95-1.93.52.2,1.03.39,1.55.59,3.56,1.35,7.11,2.73,10.64,4.14.42-1.65.82-3.3,1.42-4.91.82-2.21,2.06-4.18,3.54-6.01-.42-4.95-.91-9.9-1.38-14.85-.75-7.72-1.46-15.42-1.56-23.18-.1-7.66.04-15.32-.15-22.99-.19-7.94-.85-15.82-2.2-23.67-.01-.03-.01-.07-.02-.1-2.09-.08-4.17-.17-6.26-.29-.31-3.19-.62-6.37-.99-9.54,1.92-.39,3.85-.78,5.78-1.15-.26-2.77-.4-5.54-.4-8.31.01-6.37.87-679.33,2.07-685.6.67-3.56,1.31-110.85,1.19-114.47-.12-3.29-.68-6.55-1.48-9.75-1.04-4.11-2.44-8.17-3.82-12.22-.26.12-.51.24-.77.37-2.04.99-4.07,2.02-6.09,3.07-1.1-3.54-2.32-7.06-3.98-10.37-.67-1.33-1.5-2.91-2.64-4.04,1.59-1.23,3.13-2.51,4.61-3.88.25-.23.5-.46.74-.7.43-.41.85-.83,1.25-1.26,1.43-1.46,2.77-2.98,4.07-4.55.08-.1.16-.2.24-.29,1.75-2.14,3.43-4.34,5.1-6.54,3.47-4.58,7.05-8.79,11.16-12.6.93-.86,1.88-1.7,2.87-2.51,2.34,1.4,4.58,2.95,6.71,4.65.09.06.17.12.25.19.08.06.17.13.25.2.17.13.33.26.5.4.02.02.03.03.05.04.44.37.87.73,1.3,1.11.15.13.3.26.44.38.05.05.1.09.15.14.03.02.05.04.07.06.02.02.04.04.07.06.4.36.79.72,1.18,1.09.04.04.08.08.12.12.15.14.3.28.45.43.14.13.28.26.41.4.25.24.49.49.73.74.14.13.27.27.4.41.11.11.21.22.32.33.37.4.74.8,1.11,1.21.57,2.41,1.21,4.8,1.9,7.19.17.6.34,1.19.52,1.79.17.6.35,1.19.53,1.79.3,1.02.61,2.04.91,3.06.05.17.1.34.15.51,1.34,4.43,2.64,8.86,3.64,13.35.89,4.01,1.5,8.08,1.63,12.19.13,4.53-.57,8.86-1.31,13.3-1.31,7.85-2.27,786.2-2.28,794.16,0,2.8.1,5.6.29,8.4.09,1.3.19,2.6.31,3.9s.26,2.6.4,3.9c.09.7.17,1.41.26,2.12.08.65.17,1.31.26,1.97.17,1.32.36,2.63.56,3.94,1.49,9.82,2.21,19.67,2.42,29.59.21,9.58.06,19.16.17,28.73.11,9.7.89,19.31,1.71,28.97.53,6.18,1.06,12.37,1.53,18.56Z"/>
        <g>
          <path class="st2" d="M809.36,186.12c-1.2,3.3-2.39,5.35-3.6,5.7-.13.04-.26.07-.39.11,1.32-1.21,2.65-3.19,3.99-5.81Z"/>
          <path class="st2" d="M837.04,74.59c-.08,4.5-.15,9.33-.23,14.35-.36,1.32-.71,2.65-1.08,3.99.12-8.61.23-14.69.33-17.84.33-.16.66-.33.98-.5Z"/>
          <path class="st2" d="M842.48,70.06c-.03.55-.06,1.12-.09,1.72-.2.11-.39.21-.59.32.22-.69.45-1.37.68-2.04Z"/>
          <path class="st2" d="M909.87,37.65h0c-1.11.52-2.21,1.04-3.31,1.58-6.11,2.91-12.15,5.93-18.22,8.92-4.49,2.21-9.04,4.3-13.55,6.5-.26.12-.51.24-.77.37-2.04.99-4.07,2.02-6.09,3.07-1.1-3.54-2.32-7.06-3.98-10.37-.67-1.33-1.5-2.91-2.64-4.04-3.12,2.4-6.41,4.57-9.72,6.74.62-.75,1.24-1.36,1.86-1.83,2.41-1.82,4.83-3.64,7.26-5.44,1.62-1.2,3.25-2.4,4.87-3.6.78-.57,1.55-1.14,2.33-1.71,8.99-6.61,18.05-13.12,27.1-19.65,1.02-.73,2.03-1.46,3.05-2.19,0,0,0,0,0,0,.08.06.16.13.24.2.08.06.17.13.25.2.17.13.33.26.5.4.02.02.03.03.05.04.44.37.87.73,1.3,1.11.15.13.3.26.44.38.05.05.1.09.15.14.02.02.05.04.07.05h0s.04.05.07.07c.4.36.79.72,1.18,1.09.04.04.08.08.12.12.15.14.3.28.45.43.14.13.28.26.41.4.25.24.49.49.73.74.14.13.27.27.4.41.11.11.21.22.32.33.37.4.74.8,1.11,1.21.57,2.41,1.21,4.8,1.9,7.19.17.6.34,1.19.52,1.79.17.6.35,1.19.53,1.79.3,1.02.61,2.04.91,3.06.06.17.11.34.16.51Z"/>
          <path class="st2" d="M913.84,896.54c-1.22-.01-2.43-.02-3.65-.03-.92-.01-1.85-.02-2.77-.02-9.58-.07-19.16-.14-28.73-.51-2.09-.08-4.17-.17-6.26-.29-.31-3.19-.62-6.37-.99-9.54,1.92-.39,3.85-.78,5.78-1.15.23-.05.47-.09.7-.14,10.07-1.94,20.18-3.65,30.31-5.24,1.2-.2,2.4-.38,3.6-.57.09,1.3.19,2.6.31,3.9s.26,2.6.4,3.9c.09.7.17,1.41.26,2.12.08.65.17,1.31.26,1.97.17,1.32.36,2.63.56,3.94.09.56.14,1.11.22,1.66Z"/>
          <path class="st2" d="M826.32,970.74c-.19,1.01-.5,2.01-.9,2.98-1.09-1.67-2.2-3.34-3.32-5,1.4.69,2.8,1.36,4.22,2.02Z"/>
          <path class="st2" d="M915.24,1009.29c-.1.33-.19.66-.28.99-.26,1-.5,2-.73,3.01-.3,1.34-.6,2.68-.95,4.01-.83,3.12-2.17,5.82-4.09,8.42-2.88,3.91-6.57,6.21-11.23,7.42-4.97,1.3-9.83,2.39-14.63,4.28-.96.38-1.92.78-2.86,1.2-.55.23-1.1.47-1.64.73-.74.33-1.48.68-2.22,1.03-.61.28-1.22.57-1.82.86-1.43.68-2.85,1.36-4.29,2.02-.61.28-1.22.55-1.84.82-.67-1.03-1.33-2.05-1.99-3.08-1.35-2.11-2.7-4.23-4.02-6.36-2.07-3.32-4.11-6.65-6.13-10-.58-.95-1.15-1.9-1.72-2.85-.37-.6-.73-1.2-1.09-1.8-.24-.4-.48-.81-.72-1.21-.04-.06-.07-.11-.11-.17h-.01c-1.48-2.49-2.96-4.98-4.43-7.46-.32-.53-.64-1.06-.94-1.58,1.56-.44,3.11-.94,4.63-1.5,5.49-2.03,11.28-5.08,14.24-10.38,1.42-2.55,2.33-5.93,1.43-8.8-.22-.7-.55-1.34-.95-1.93.52.2,1.03.39,1.55.59,3.56,1.35,7.11,2.73,10.64,4.14,4.94,1.98,9.85,4.04,14.7,6.24,6.24,2.83,12.38,5.93,18.28,9.42,1.08.63,2.15,1.27,3.21,1.93,0,.01.01.01.01.01Z"/>
          <path class="st2" d="M102.48,998.91c-2.03,6-4.38,11.88-6.87,17.7-.89,2.08-1.8,4.15-2.72,6.21-1.21,2.7-2.44,5.39-3.67,8.07-1.87,4.06-3.75,8.1-5.59,12.16-.76,1.66-1.5,3.32-2.24,4.98-1.62.75-3.24,1.5-4.88,2.2-.7.3-1.4.59-2.11.88-.45.18-.91.36-1.37.53-2.97,1.12-6.2,2.15-9.41,2.1-3.37-.05-6.75-.68-10.03-1.41-.68-.15-1.36-.31-2.03-.48-.64-.16-1.29-.32-1.93-.5-.4-.1-.8-.21-1.2-.32-.06-.02-.12-.03-.18-.05-.68-.19-1.35-.38-2.03-.58.94-.99,1.87-1.97,2.82-2.95,2.4-2.49,4.83-4.96,7.29-7.39,7.12-7.03,14.44-13.83,21.92-20.47,1.81-1.61,3.63-3.21,5.47-4.8,1.01-.89,2.03-1.77,3.05-2.65,5.18-4.47,10.43-8.87,15.71-13.23Z"/>
          <path class="st2" d="M143.36,1013.94c-.11,4.41-.55,8.82-1.1,13.17-.57,4.43-1.27,8.84-1.98,13.25-.19,1.19-.38,2.39-.57,3.58h0c-3.74-.33-7.47-.65-11.21-.93t.01-.02c.35-1.18.72-2.37,1.11-3.54,2.8-8.7,6.21-17.21,9.74-25.61.06-.13.11-.27.17-.4.9-2.15,1.82-4.28,2.75-6.41.25-.6.51-1.19.77-1.79.07.64.12,1.28.16,1.92.16,2.26.2,4.52.15,6.78Z"/>
          <path class="st2" d="M286.15,1045.02c-.01.61-.02,1.21-.03,1.82v.07c0,.57-.02,1.15-.03,1.72-.01.61-.03,1.22-.04,1.83v.07c-.47-.02-.95-.05-1.42-.07-1.62-.08-3.25-.17-4.87-.26-1.37-.08-2.73-.17-4.1-.25-1.15-.08-2.3-.15-3.46-.23-2.48-.17-4.96-.34-7.44-.52-.43-.03-.88-.06-1.31-.1h-.02c-1.68-.12-3.35-.24-5.02-.36.12-.63.24-1.27.37-1.9.07-.37.14-.74.21-1.1.04-.2.08-.39.12-.58.7-3.53,1.45-7.04,2.28-10.54.88-3.74,1.83-7.48,2.87-11.2.15-.57.31-1.14.48-1.71.1-.37.21-.75.32-1.13.1-.33.2-.67.3-1,.04-.14.08-.27.12-.4h0c.07-.23.14-.45.2-.67.62-2.02,1.26-4.03,1.94-6.02,2.85,1.76,6.54,2.52,9.57,3.07,2.9.52,5.83.87,8.78,1.11.04.82.07,1.64.1,2.46v.03s0,.06.01.08c0,.23.01.45.02.68,0,.22.01.43.02.65.01.38.02.77.03,1.15.02.63.03,1.25.04,1.88.01.08.01.15.01.23.14,7.06.07,14.13-.05,21.19Z"/>
          <path class="st2" d="M815.37,1016.36c0,.27,0,.54,0,.82,0,.48-.01.96-.02,1.44,0,.19-.01.38-.02.57-.01.3-.02.6-.04.9-.06,1.54-.16,3.07-.31,4.6-.19,2.22-.44,4.43-.73,6.63-.46,3.58-1.02,7.16-1.55,10.75-.12.84-.24,1.69-.36,2.53-.05.35-.1.71-.15,1.06-1.01-.15-2.03-.28-3.05-.41-.67-.08-1.35-.16-2.03-.24-.84-.09-1.69-.18-2.54-.26-.85-.07-1.7-.14-2.55-.2h0c.01-.06.02-.11.04-.16.25-1.14.52-2.28.78-3.42,1.28-5.46,2.66-10.89,4.21-16.28.44-1.54.9-3.07,1.37-4.59.08-.28.17-.56.26-.83.06-.22.13-.44.2-.65.12-.39.24-.77.36-1.15.11-.34.22-.69.34-1.03.06-.22.13-.43.21-.64.17-.53.34-1.06.53-1.58,1.16-3.46,2.42-6.89,3.78-10.28.75,3.35,1.12,6.74,1.23,10.16.04.75.05,1.51.05,2.26Z"/>
          <path class="st2" d="M248.81,1050.15c-.51.03-1.02.07-1.53.1-.55.03-1.09.06-1.64.08-.34.02-.68.03-1.03.05-.71.03-1.42.05-2.13.06-2.25.05-4.49.01-6.74-.05.08-1.16.17-2.32.25-3.48.09-1.21.18-2.42.28-3.63.6-7.62,1.37-15.22,2.82-22.71.01-.06.02-.12.03-.18.04-.22.09-.43.13-.64.03-.16.06-.32.1-.48.01-.07.02-.13.04-.19.34-1.71.73-3.41,1.16-5.11.11-.44.23-.88.35-1.32.89-3.33,1.99-6.59,3.33-9.76.71,3.22,1.31,6.46,1.81,9.72.29,1.79.54,3.59.76,5.4.05.41.1.82.14,1.23.03.21.06.42.08.63.01.03.01.06.01.1.03.2.05.4.07.6.87,7.85,1.3,15.76,1.55,23.67.02.76.04,1.53.06,2.29.01.1.01.2.01.3.01.35.02.71.03,1.07l.06,2.25Z"/>
          <path class="st2" d="M71.48,932.66c-7.21,5.78-14.59,11.36-22.11,16.74-4.46,3.19-8.96,6.31-13.52,9.35-8.57,5.73-17.32,11.2-26.23,16.39-1.52.89-3.05,1.78-4.58,2.65.12-.41.23-.81.34-1.21,1.15-3.94,2.61-7.78,3.99-11.64,1.44-4.03,2.81-8.1,3.72-12.28.94-4.33,1.15-8.64,1.2-13.05v-.46c0-.95-.02-1.89-.03-2.84h.03c1.21.02,2.42.01,3.63-.02,3.08-.08,6.16-.32,9.21-.64,8.56-.92,17.05-2.5,25.62-3.29,1.43-.14,2.86-.25,4.3-.33,2.78-.16,5.57-.2,8.35-.04,1.42.08,2.84.2,4.25.4.61.07,1.22.17,1.83.27Z"/>
          <path class="st2" d="M67.21,50.71c-2.84-1.33-5.64-2.74-8.4-4.21-1.26-.68-2.51-1.37-3.76-2.07-6.8-3.85-13.39-8.08-19.87-12.45-4.43-2.99-8.82-6.06-13.2-9.12-1.01-.7-2.02-1.41-3.03-2.11.39-.39.79-.78,1.19-1.16l.03-.03c.8-.75,1.61-1.48,2.45-2.19.84-.72,1.71-1.42,2.59-2.09.66-.5,1.33-1,2.01-1.48.69-.48,1.38-.94,2.08-1.4.47-.3.94-.6,1.41-.89.47-.28.95-.56,1.42-.84.01,0,.02,0,.02-.01.49-.27.97-.54,1.47-.81.49-.26.98-.52,1.48-.77.49-.25.98-.49,1.48-.72.01,0,.02-.01.03-.01.51-.24,1.02-.47,1.53-.7.52-.22,1.03-.44,1.55-.65.53-.21,1.05-.41,1.58-.61h.01c.77,1.02,1.52,2.02,2.28,3.03,6.74,8.96,13.24,18.09,18.34,28.1.16.32.32.64.48.96.51,1.02.99,2.06,1.45,3.1,1.33,2.97,2.47,6.01,3.38,9.13Z"/>
          <path class="st2" d="M263.88,8.91c-.01.17-.03.33-.04.5-.06.65-.11,1.29-.16,1.94-.03.39-.07.78-.1,1.18-.01.16-.02.33-.04.5-.51,6.4-1.02,12.81-1.89,19.17-.03.28-.07.56-.12.83-.07.53-.15,1.05-.23,1.58,0,.05-.01.11-.02.16-.15,1-.32,1.99-.51,2.98-.32,1.78-.69,3.55-1.09,5.31-.81-1.86-1.48-3.78-2.05-5.73-.32-1.11-.62-2.24-.87-3.37-.09-.36-.18-.72-.25-1.08-.05-.22-.1-.44-.13-.66-.4-1.88-.71-3.76-.98-5.65-.67-4.66-1.02-9.36-1.21-14.07-.02-.23-.03-.46-.03-.69-.01-.13-.01-.26-.02-.38-.03-.85-.06-1.7-.08-2.55h.76c1.27.01,2.54.01,3.81.01.55.01,1.11.01,1.66.01,1.2,0,2.39.01,3.59.01Z"/>
          <path class="st2" d="M842.48,70.06c-.03.55-.06,1.12-.09,1.72-.2.11-.39.21-.59.32.22-.69.45-1.37.68-2.04Z"/>
          <path class="st2" d="M855.04,12.18c-.08.23-.15.45-.23.68-.35,1.06-.69,2.13-1.01,3.21-.8,2.67-1.51,5.36-2.17,8.03-.67,2.73-1.28,5.46-1.86,8.21-.05.22-.1.44-.14.66-.23,1.04-.44,2.08-.66,3.13-.16.78-.32,1.55-.48,2.33-.71,3.45-1.41,6.9-2.16,10.34-.56.52-1.11,1.05-1.66,1.58-2.54,2.46-4.93,5.06-7.26,7.72,0-.26.01-.51.02-.76.17-6.23.36-10.66.54-12.43.17-1.61.34-3.22.52-4.84.07-.61.14-1.23.21-1.85.02-.25.05-.5.08-.76.15-1.36.3-2.72.44-4.08.02-.15.03-.3.05-.45.51-4.96.97-9.93,1.22-14.9.06-1.22.1-2.45.13-3.67,1.2-.15,2.4-.31,3.61-.47,2.3-.32,4.6-.67,6.9-1.04.37-.06.74-.12,1.11-.18.17-.03.33-.05.5-.08.77-.13,1.53-.25,2.3-.38Z"/>
          <path class="st2" d="M340.95,9.39c-.2.6-.39,1.19-.58,1.78-.15.47-.3.94-.45,1.41-.07.22-.14.44-.21.66-.06.19-.12.39-.18.58-1.87,6.05-3.51,12.16-5.18,18.26-.03.13-.06.25-.1.37-.11.4-.21.79-.33,1.18-.59,2.17-1.19,4.33-1.8,6.48-.76,2.64-1.54,5.26-2.37,7.88-1.64,5.18-3.49,10.29-5.68,15.26-.15-7.87.2-15.72.77-23.56.12-1.61.24-3.22.38-4.83.02-.32.05-.63.08-.95,0-.18.02-.35.04-.53.01-.07.01-.15.02-.22.03-.36.06-.72.09-1.08.49-5.6,1.05-11.2,1.58-16.79.07-.78.15-1.55.22-2.33.04-.47.09-.93.13-1.4.78-.13,1.56-.25,2.34-.38.35-.06.7-.11,1.05-.17,1.13-.19,2.27-.37,3.39-.55,1.14-.19,2.26-.37,3.4-.55,1.13-.17,2.26-.35,3.39-.52Z"/>
          <path class="st2" d="M774.41,8.42c-.03.13-.07.27-.1.4-.23.95-.44,1.9-.62,2.86-.02.1-.04.2-.06.31-1.05,5.62-1.33,11.44-1.47,17.24-.01.22-.02.44-.02.67-.02.9-.04,1.8-.06,2.7v.05c-.03,1.54-.05,3.07-.09,4.59-.05,1.9-.11,3.78-.21,5.64-.18,3.37-.48,6.73-1.01,10.05-1.5-5-2.4-10.19-3.03-15.38-.12-1.03-.23-2.05-.34-3.07-.06-.58-.11-1.15-.16-1.73-.01-.06-.02-.11-.02-.16-.09-1-.18-1.99-.25-2.98-.01-.06-.01-.11-.02-.16-.44-5.76-.7-11.53-1.04-17.29-.01-.09-.01-.17-.02-.26,0-.08-.01-.17-.01-.25-.05-.76-.1-1.52-.16-2.27-.02-.37-.04-.73-.07-1.1h.14c.73-.02,1.46-.03,2.19-.03.63,0,1.26,0,1.88.01.51.01,1.02.02,1.52.03.42.01.83.03,1.25.04.14.01.29.01.45.02.44.02.89.04,1.33.07Z"/>
          <path class="st2" d="M203.86,33.25c-.03,1.13-.08,2.26-.14,3.39-.05.97-.11,1.94-.19,2.91-.31,3.88-.84,7.75-1.68,11.56-2.63-4.31-4.63-8.99-6.25-13.81-.37-1.09-.72-2.19-1.05-3.3-.76-2.53-1.43-5.08-2.05-7.61-1.19-4.85-2.17-9.74-3-14.66-.2-1.2-.4-2.4-.59-3.6h0c4.82-.53,9.63-1.08,14.44-1.66v.02c.04,1.21.08,2.43.12,3.64.27,7.71.62,15.42.39,23.12Z"/>
        </g>
        <path class="st5" d="M882.62,965.92c-.75-7.72-1.46-15.42-1.56-23.18-.1-7.66.04-15.32-.15-22.99-.19-7.94-.85-15.82-2.2-23.67-.01-.03-.01-.07-.02-.1-2.09-.08-4.17-.17-6.26-.29-.31-3.19-.62-6.37-.99-9.54,1.92-.39,3.85-.78,5.78-1.15-.26-2.77-.4-5.54-.4-8.31.01-6.37.87-679.33,2.07-685.6.67-3.56,1.31-110.85,1.19-114.47-.12-3.29-.68-6.55-1.48-9.75-1.04-4.11-2.44-8.17-3.82-12.22-.26.12-.51.24-.77.37-2.04.99-4.07,2.02-6.09,3.07-1.1-3.54-2.32-7.06-3.98-10.37-.67-1.33-1.5-2.91-2.64-4.04-3.12,2.4-6.41,4.57-9.72,6.74-.4.27-.81.53-1.21.8-1.82,1.21-3.72,2.49-5.49,3.92.51-2.12.99-4.24,1.45-6.37-.56.52-1.11,1.05-1.66,1.58-2.54,2.46-4.93,5.06-7.26,7.72-.31.35-.61.7-.92,1.05-.37.43-.73.86-1.09,1.29.52-.78,1.05-1.57,1.56-2.36.16-.24.32-.49.47-.74.17-6.23.36-10.66.54-12.43.17-1.61.34-3.22.52-4.84-4.61.65-9.17,1.21-13.75,2.24-5.51,1.25-10.98,1.46-16.54.35-5.39-1.07-10.55-3.04-15.93-4.14-5.1-1.04-10.15-1.61-15.37-1.49-1.64.04-3.27.13-4.91.24-.05,1.9-.11,3.78-.21,5.64-.18,3.37-.48,6.73-1.01,10.05-1.5-5-2.4-10.19-3.03-15.38-2.27.17-4.55.34-6.83.42-5.57.21-10.91-.76-16.44-1.03-11.26-.55-398.53,2.52-409.71,3.11-.89.05-1.77.07-2.64.06-.76,2.64-1.54,5.26-2.37,7.88-1.64,5.18-3.49,10.29-5.68,15.26-.15-7.87.2-15.72.77-23.56-1.17-.1-2.33-.2-3.51-.28-1.13,1.1-2.31,2.16-3.43,3.21-2.49,2.33-5.01,4.64-7.6,6.86-.15.13-.3.26-.45.38-.53,2.4-.75,4.9-.99,7.38.09,1.39.22,2.76.34,4.1.4,4.41.96,8.84.82,13.27-.04,1.05-2.08,1.79-2.13.45-.12-2.68-.51-5.34-.95-8-.28.73-.62,1.45-1.02,2.14.04-2.43.12-4.86.22-7.29-.03-.16-.05-.32-.07-.48-.34-2.55-.66-5.15-.66-7.73-3.55,3.12-6.99,6.37-9.94,10.02-.59.73-2.13.28-1.43-.66,3.66-4.93,7.58-9.55,11.77-14,.04-.19.06-.38.1-.57.1-.45.39-.81.76-1.07.07-3.49.05-6.97-.14-10.45-.02-.38-.31-.72-.73-.72-.5,0-.99.01-1.49.03-1.56.19-3.12.37-4.68.52-2.15.21-4.27.35-6.39.42-2.36.29-4.73.61-7.1.89-6.33.75-12.55.96-18.91.38-2.16-.2-4.31-.45-6.46-.74-.32,1.78-.69,3.55-1.09,5.31-.81-1.86-1.48-3.78-2.05-5.73-3.23-.45-6.45-.93-9.69-1.34-6.52-.83-13-1.11-19.57-.96-8.25.18-16.45.91-24.65,1.61-.05.97-.11,1.94-.19,2.91-.31,3.88-.84,7.75-1.68,11.56-2.63-4.31-4.63-8.99-6.25-13.81-1.6.13-3.21.24-4.82.34-10.16.63-20.35-1.01-30.24-3.3-.01-.01-.03-.01-.04-.01-6.96-.91-13.85-2.3-20.83-3.02-2.78-.29-5.58-.47-8.38-.47s-5.44.39-8.17.48c-5.41.19-10.51,2.09-15.92,2.29-4.14.15-8.04-.83-11.9-2-9.19,1.49-18.67,3.02-27,7.24-1.56.79-3.06,1.7-4.47,2.73,1.33,2.97,2.47,6.01,3.38,9.13-2.84-1.33-5.64-2.74-8.4-4.21-.22.28-.42.56-.62.85-1.3,1.9-2.27,4.03-2.91,6.24-1.04,3.58-.81,7.29-.14,10.92.73,4,2.04,7.93,2.22,12.01.09,2.08-.59,108.04-1.26,110-.66,1.95-1.47,3.85-2.22,5.78-.72,1.82-1.47,670.32-1.73,672.27-.3,2.25-.52,4.5-.66,6.76-.29,4.37-.32,8.76-.21,13.14.28,10.99,1.32,22.02.93,32.96.38,4.8.6,9.61.55,14.43,0,.17-.01.33-.01.5,1.43-.14,2.86-.25,4.3-.33,2.78-.16,5.57-.2,8.35-.04,1.42.08,2.84.2,4.25.4.61.07,1.22.17,1.83.27-7.21,5.78-14.59,11.36-22.11,16.74-.35.91-.71,1.82-1.08,2.73-1.26,3.09-2.59,6.16-3.63,9.32-.17.51-.33,1.03-.48,1.56,1.54,3.98,3.94,7.56,6.19,11.19,1.38,2.22,2.85,4.54,3.71,7.02.73,2.1.44,4.2.73,6.34.22,1.63,1.21,3.4,1.88,4.91.95,2.14,2.01,4.22,3.29,6.17,1.65,2.52,3.64,4.76,5.88,6.72,1.11.99,2.29,1.9,3.52,2.75,4.26,2.94,9.19,5.22,14.34,6.68,1.01-.89,2.03-1.77,3.05-2.65,5.18-4.47,10.43-8.87,15.71-13.23-2.03,6-4.38,11.88-6.87,17.7,1.58.04,3.14,0,4.69-.14,5.11-.44,10.13-1.89,14.64-4.36,3.7-2.03,7.33-4.44,11.46-5.53,3.6-.94,7.36-.59,11-.18,1.63.18,3.26.39,4.88.63.25-.6.51-1.19.77-1.79.07.64.12,1.28.16,1.92,3.85.58,7.66,1.31,11.47,2.22,5.73,1.39,11.45,2.98,17.31,3.76,5.55.74,11.15.44,16.74.37,5.5-.08,10.81.48,16.13,1.88,5.26,1.39,10.6,3.49,16.12,3.33,5.52-.16,9.93-3.49,15.01-5.15,1.66-.54,3.28-.81,4.91-.92.89-3.33,1.99-6.59,3.33-9.76.71,3.22,1.31,6.46,1.81,9.72.29,1.79.54,3.59.76,5.4.94-.1,1.88-.17,2.83-.22,5.31-.28,10.7.23,16.05.72.62-2.02,1.26-4.03,1.94-6.02,2.85,1.76,6.54,2.52,9.57,3.07,2.9.52,5.83.87,8.78,1.11,3.57.31,7.15.47,10.71.63,6.97.31,13.94,1.13,20.92.83,10.13-.44,20.15-2.26,30.28-2.69,5.1-.21,10.2.12,15.3.1,4.77-.02,337.27-.19,385.76-.47,3.93-.89,7.88-1.62,11.9-1.94,5.33-.43,10.67-.44,16.01-.29.17.01.34.01.51.02,2.78-.34,5.57-.64,8.35-.75,4.5-.18,8.82.85,13.16,1.83,3.3.16,6.59.27,9.89.29.52,0,1.03,0,1.55-.01,1.16-3.46,2.42-6.89,3.78-10.28.75,3.35,1.12,6.74,1.23,10.16,5.78-.24,11.55-.84,17.29-1.62,5-.67,10.02-1.52,14.89-2.91,1.56-.44,3.11-.94,4.63-1.5,5.49-2.03,11.28-5.08,14.24-10.38,1.42-2.55,2.33-5.93,1.43-8.8-.22-.7-.55-1.34-.95-1.93.52.2,1.03.39,1.55.59,3.56,1.35,7.11,2.73,10.64,4.14.42-1.65.82-3.3,1.42-4.91.82-2.21,2.06-4.18,3.54-6.01-.42-4.95-.91-9.9-1.38-14.85ZM266.83,978.82c.1-.4.2-.81.3-1.21-.08.4-.16.81-.25,1.21-.22,1.08-.47,2.16-.74,3.24.21-1.09.44-2.17.69-3.24ZM760.76,987.09c.09.17.2.4.28.61-.08-.16-.17-.36-.28-.61ZM760.91,986.71c.08.07.15.13.17.16-.03-.02-.08-.07-.17-.16ZM773.97,953.22c-.04.22-.09.44-.13.65-.05.12-.09.23-.13.35-.01.05-.02.1-.03.15-.01.05-.04.1-.06.15-.05.14-.09.28-.12.43,0-.03.01-.05.01-.07-.05.25-.14.5-.29.72-.13.17-.26.34-.4.51-.17.14-.35.29-.52.44-.28.21-.58.36-.91.44-.19.09-.39.13-.6.13-.29.05-.57.04-.85-.05-.08-.04-.15-.07-.23-.11-.35.08-.7.09-1.05.01-.24,0-.47-.07-.68-.2-.33-.11-.6-.32-.8-.62-.09-.21-.19-.41-.28-.62-.1-.36-.09-.71.01-1.06.05-.39.19-.75.42-1.08.02-.03.04-.07.07-.1.49-.74,1.28-1.38,2.09-1.71.29-.13.6-.22.9-.3.04-.01.08-.02.13-.02.32-.04.71-.11,1.06-.08.04,0,.07.01.1.01.26.04.51.07.77.12.07.01.14.03.21.04.33.08.59.24.79.48.17.12.29.29.34.49.05.09.1.18.12.28.07.2.09.4.06.62ZM805.76,191.82c-.13.04-.26.07-.39.11,1.32-1.21,2.65-3.19,3.99-5.81-1.2,3.3-2.39,5.35-3.6,5.7ZM825.42,973.72c-1.09-1.67-2.2-3.34-3.32-5,1.4.69,2.8,1.36,4.22,2.02-.19,1.01-.5,2.01-.9,2.98ZM836.81,88.94c-.36,1.32-.71,2.65-1.08,3.99.12-8.61.23-14.69.33-17.84.33-.16.66-.33.98-.5-.08,4.5-.15,9.33-.23,14.35ZM842.39,71.78c-.2.11-.39.21-.59.32.22-.69.45-1.37.68-2.04-.03.55-.06,1.12-.09,1.72ZM849.87,969.82c-.97-.67-1.93-1.34-2.89-2.02.22-.07.44-.13.67-.18,1.1-.25,2.13-.18,3.22.06.78.16,1.53.54,2.23.9.5.27.98.59,1.41.96,1.31,1.09,2.34,2.32,2.89,3.95.13.39.2.78.22,1.18-2.69-1.43-5.24-3.13-7.75-4.85Z"/>
        <path class="st6" d="M68.3,38.85c-1.56.79-3.06,1.7-4.47,2.73,1.33,2.97,2.47,6.01,3.38,9.13-2.84-1.33-5.64-2.74-8.4-4.21-.22.28-.42.56-.62.85-1.3,1.9-2.27,4.03-2.91,6.24-1.04,3.58-.81,7.29-.14,10.92.73,4,2.04,7.93,2.22,12.01.09,2.08-.59,108.04-1.26,110-.66,1.95-1.47,3.85-2.22,5.78-.72,1.82-1.47,670.32-1.73,672.27-.3,2.25-.52,4.5-.66,6.76-.29,4.37-.32,8.76-.21,13.14.28,10.99,1.32,22.02.93,32.96-.11-1.54-.24-3.08-.39-4.61-.14-1.58-.3-3.16-.46-4.73-1.63-15.82-3.89-698.43-1.75-714.3.55-4.05,1.17-8.06,1.41-12.13.23-3.93.26-111.68.18-115.61-.1-4.81-.36-9.63-.6-14.44,1.4-2.38,2.83-4.74,4.33-7.07.04-.04.08-.08.12-.11,2.24-2.18,4.7-4.17,7.33-5.95,6.86-4.68,14.94-8.01,23.75-9.53.42.09.84.19,1.26.3,2.65.67,5.27,1.56,7.91,2.36-9.19,1.49-18.67,3.02-27,7.24Z"/>
        <path class="st6" d="M71.48,932.66c-7.21,5.78-14.59,11.36-22.11,16.74.35-.91.68-1.82.99-2.74h0c.49-1.44.93-2.89,1.29-4.36.01-.04.02-.09.03-.13.79-3.24,1-6.5,1.06-9.81,1.43-.14,2.86-.25,4.3-.33,2.78-.16,5.57-.2,8.35-.04,1.42.08,2.84.2,4.25.4.61.07,1.22.17,1.83.27Z"/>
        <path class="st6" d="M293.24,37.22c-2.36.29-4.73.61-7.1.89-6.33.75-12.55.96-18.91.38-2.16-.2-4.31-.45-6.46-.74-.32,1.78-.69,3.55-1.09,5.31-.81-1.86-1.48-3.78-2.05-5.73-3.23-.45-6.45-.93-9.69-1.34-6.52-.83-13-1.11-19.57-.96-8.25.18-16.45.91-24.65,1.61-.05.97-.11,1.94-.19,2.91-.31,3.88-.84,7.75-1.68,11.56-2.63-4.31-4.63-8.99-6.25-13.81-1.6.13-3.21.24-4.82.34-10.16.63-20.35-1.01-30.24-3.3,1.49.2,2.99.37,4.5.51,1.52.14,3.04.25,4.57.31.5.03,1.01.04,1.52.05.56.02,1.13.02,1.7.02,5.73-.03,11.5-.52,17.21-.91,1.5-.1,3.01-.21,4.51-.32,3.11-.24,6.21-.49,9.31-.75,1.17-.1,2.33-.2,3.5-.31,8.52-.77,17.03-1.66,25.53-2.61,4.58.93,9.25,1.54,13.96,1.95-3.15.03-4.57.07-4.04.11,4.67.36,9.31.93,13.95,1.57,1.51.21,3.03.43,4.54.65,3.5.51,6.99,1.02,10.5,1.47,7.23.93,14.27,1.41,21.44,1.14Z"/>
        <path class="st6" d="M256.51,32.88c-3.22-.13-6.44-.32-9.66-.6,2.29-.02,5.49-.05,9.53-.06,1.62-.01,3.38-.02,5.27-.02,14.46-.06,36.52-.1,63.8-.12,2.91,0,5.88-.01,8.9,0,1.77-.01,3.55-.01,5.36-.01-1.82.11-3.64.23-5.46.38-1.71.13-3.41.29-5.11.48-1.23.14-2.46.29-3.69.44-.04,0-.08,0-.11,0-1.54.2-3.07.41-4.6.63-.04.01-.08.01-.11,0-.98.03-1.97.04-2.95.05-9.21.08-18.36-.67-27.56-.81-8.37-.13-16.75-.02-25.12-.15-1.15-.02-2.31-.04-3.47-.07-1.67-.03-3.34-.09-5.02-.15Z"/>
        <path class="st6" d="M267.13,977.61c-.08.4-.16.81-.25,1.21-.22,1.08-.47,2.16-.74,3.24.21-1.09.44-2.17.69-3.24.1-.4.2-.81.3-1.21Z"/>
        <path class="st6" d="M761.04,987.7c-.08-.16-.17-.36-.28-.61.09.17.2.4.28.61Z"/>
        <path class="st6" d="M761.08,986.87s-.08-.07-.17-.16c.08.07.15.13.17.16Z"/>
        <path class="st6" d="M339.71,32.07c6.41-.37,12.84-.53,19.24-.89,10.22-.57,392.31-1.23,406.91-1.68.07,0,.15,0,.22,0,.29-.01.58-.03.87-.04,1.73-.07,3.47-.15,5.21-.22,8.09-.33,16.24-.51,24.27.34,7.47.8,14.83,2.28,22.27,3.22-7.83-.04-16.42-.08-25.67-.11-6.65-.03-13.65-.05-20.95-.08-1.6,0-3.22,0-4.86-.01-118.24-.37-311.51-.57-427.51-.52Z"/>
        <path class="st6" d="M773.97,953.22c-.04.22-.09.44-.13.65-.05.12-.09.23-.13.35-.01.05-.02.1-.03.15-.01.05-.04.1-.06.15-.05.14-.09.28-.12.43,0-.03.01-.05.01-.07-.05.25-.14.5-.29.72-.13.17-.26.34-.4.51-.17.14-.35.29-.52.44-.28.21-.58.36-.91.44-.19.09-.39.13-.6.13-.29.05-.57.04-.85-.05-.08-.04-.15-.07-.23-.11-.35.08-.7.09-1.05.01-.24,0-.47-.07-.68-.2-.33-.11-.6-.32-.8-.62-.09-.21-.19-.41-.28-.62-.1-.36-.09-.71.01-1.06.05-.39.19-.75.42-1.08.02-.03.04-.07.07-.1.49-.74,1.28-1.38,2.09-1.71.29-.13.6-.22.9-.3.04-.01.08-.02.13-.02.32-.04.71-.11,1.06-.08.04,0,.07.01.1.01.26.04.51.07.77.12.07.01.14.03.21.04.33.08.59.24.79.48.17.12.29.29.34.49.05.09.1.18.12.28.07.2.09.4.06.62Z"/>
        <path class="st6" d="M809.36,186.12c-1.2,3.3-2.39,5.35-3.6,5.7-.13.04-.26.07-.39.11,1.32-1.21,2.65-3.19,3.99-5.81Z"/>
        <path class="st6" d="M837.04,74.59c-.08,4.5-.15,9.33-.23,14.35-.36,1.32-.71,2.65-1.08,3.99.12-8.61.23-14.69.33-17.84.33-.16.66-.33.98-.5Z"/>
        <path class="st6" d="M825.22,33.44c-2.18-.15-4.36-.38-6.52-.65,7.61.03,14.5.07,20.57.11,1.7.01,3.33.02,4.9.03-1.65.17-3.3.31-4.95.42-4.65.32-9.31.41-14,.09Z"/>
        <path class="st6" d="M842.48,70.06c-.03.55-.06,1.12-.09,1.72-.2.11-.39.21-.59.32.22-.69.45-1.37.68-2.04Z"/>
        <path class="st6" d="M816.12,1019.17c2.76-.1,5.54-.21,8.28-.49,1.66.3,3.32.62,4.97.94.52.1,1.03.22,1.54.32.45-.07.9-.16,1.35-.23.78-.12,1.56-.21,2.34-.3.47-.06.94-.13,1.41-.18h.01c2.5-.27,5.01-.42,7.53-.5,3.14-.09,6.29-.06,9.44.05,5.93.2,11.87.67,17.75,1.07.65.04-5.48.09-17.03.14-2.03,0-4.23.01-6.59.02-8.6.02-19.34.05-31.84.08-2.23,0-4.53,0-6.87.01-92.65.18-270,.33-403.15.41,97.61-.49,250.89-1.26,311.83-1.85h.15c14.29-.14,23.47-.27,25.62-.38,6.07-.32,12.15-.3,18.23-.48,4.51.25,9.02.65,13.53.75,1.27.03,2.53.06,3.8.08,5.66.12,11.33.19,16.99.37,4.42.13,8.84.26,13.26.27,2.22.01,4.44-.02,6.65-.08.27,0,.53-.01.8-.02Z"/>
        <path class="st6" d="M874.78,54.65c-.26.12-.51.24-.77.37-2.04.99-4.07,2.02-6.09,3.07-1.1-3.54-2.32-7.06-3.98-10.37-.67-1.33-1.5-2.91-2.64-4.04-3.12,2.4-6.41,4.57-9.72,6.74-.4.27-.81.53-1.21.8-1.82,1.21-3.72,2.49-5.49,3.92.51-2.12.99-4.24,1.45-6.37-.56.52-1.11,1.05-1.66,1.58-2.54,2.46-4.93,5.06-7.26,7.72-.31.35-.61.7-.92,1.05-.37.43-.73.86-1.09,1.29.52-.78,1.05-1.57,1.56-2.36.16-.24.32-.49.47-.74.17-6.23.36-10.66.54-12.43.17-1.61.34-3.22.52-4.84-4.61.65-9.17,1.21-13.75,2.24-5.51,1.25-10.98,1.46-16.54.35-5.39-1.07-10.55-3.04-15.93-4.14-5.1-1.04-10.15-1.61-15.37-1.49-1.64.04-3.27.13-4.91.24-.05,1.9-.11,3.78-.21,5.64-.18,3.37-.48,6.73-1.01,10.05-1.5-5-2.4-10.19-3.03-15.38-2.27.17-4.55.34-6.83.42-5.57.21-10.91-.76-16.44-1.03-11.26-.55-398.53,2.52-409.71,3.11-.89.05-1.77.07-2.64.06-.76,2.64-1.54,5.26-2.37,7.88-1.64,5.18-3.49,10.29-5.68,15.26-.15-7.87.2-15.72.77-23.56-1.17-.1-2.33-.2-3.51-.28-1.13,1.1-2.31,2.16-3.43,3.21-2.49,2.33-5.01,4.64-7.6,6.86-.15.13-.3.26-.45.38-.53,2.4-.75,4.9-.99,7.38.09,1.39.22,2.76.34,4.1.4,4.41.96,8.84.82,13.27-.04,1.05-2.08,1.79-2.13.45-.12-2.68-.51-5.34-.95-8-.28.73-.62,1.45-1.02,2.14.04-2.43.12-4.86.22-7.29-.03-.16-.05-.32-.07-.48-.34-2.55-.66-5.15-.66-7.73-3.55,3.12-6.99,6.37-9.94,10.02-.59.73-2.13.28-1.43-.66,3.66-4.93,7.58-9.55,11.77-14,.04-.19.06-.38.1-.57.1-.45.39-.81.76-1.07.07-3.49.05-6.97-.14-10.45-.02-.38-.31-.72-.73-.72-.5,0-.99.01-1.49.03,5.45-.66,10.88-1.5,16.31-2.25.02-.01.04-.01.06-.01s.04,0,.06-.01c1.52-.02,3.04-.05,4.56-.1.08,0,.16,0,.23-.01,2.8-.07,5.6-.17,8.39-.27,4.77-.17,9.53-.34,14.29-.41,10.13-.16,396.53.92,406.63.24,4.2-.28,8.31-.57,12.4-.71,1.62-.06,3.23-.1,4.84-.1,4.22-.01,8.44.2,12.77.78,8.23,1.12,16.3,2.97,24.52,4.1.84.12,1.68.23,2.53.33,8.94,1.05,17.92.58,26.88-.43,3.4-.38,6.8-.84,10.19-1.33,2.97-.42,5.93-.87,8.89-1.29.78.4,1.55.81,2.31,1.26,1.88,1.06,3.68,2.22,5.4,3.48.12.09.23.17.34.25,2.04,1.51,3.95,3.15,5.74,4.9.89,3.34,2,6.64,3.13,9.95Z"/>
        <path class="st6" d="M849.63,32.97c-1.72-.01-3.54-.02-5.46-.04,1.87-.18,3.73-.39,5.6-.62.65-.08,1.3-.16,1.95-.24.78.3,1.55.61,2.31.94-1.38-.01-2.85-.03-4.4-.04Z"/>
        <path class="st6" d="M857.86,34.81c-1.25-.65-2.52-1.25-3.83-1.8,10.31.09,15.82.19,15.36.29-.03,0-.05,0-.08,0-3.8.42-7.62.94-11.45,1.5Z"/>
        <path class="st6" d="M826.32,970.74c-.19,1.01-.5,2.01-.9,2.98-1.09-1.67-2.2-3.34-3.32-5,1.4.69,2.8,1.36,4.22,2.02Z"/>
        <path class="st6" d="M857.62,974.67c-2.69-1.43-5.24-3.13-7.75-4.85-.97-.67-1.93-1.34-2.89-2.02.22-.07.44-.13.67-.18,1.1-.25,2.13-.18,3.22.06.78.16,1.53.54,2.23.9.5.27.98.59,1.41.96,1.31,1.09,2.34,2.32,2.89,3.95.13.39.2.78.22,1.18Z"/>
        <path class="st6" d="M878.69,895.98c-2.09-.08-4.17-.17-6.26-.29-.31-3.19-.62-6.37-.99-9.54,1.92-.39,3.85-.78,5.78-1.15.33,3.68.85,7.34,1.47,10.98Z"/>
        <path class="st6" d="M236.4,1019.62c-2.14.4-4.28.8-6.44,1.15-3.6.59-7.16,1.07-10.81.74-3.72-.33-7.36-1.14-10.97-1.97-3.43-.78-6.85-1.6-10.36-2.07-3.49-.47-7.01-.45-10.53-.64-14.66-.78-29.24-2.46-43.93-2.89-.16-.01-.32-.02-.48-.02-1.17-.03-2.35-.06-3.52-.08-5.54-.11-11.1.01-16.42,1.48-5.82,1.61-11.13,4.31-16.82,6.2-2.7.89-5.63,1.72-8.54,1.68-1.57-.03-3.14-.17-4.69-.38-1.49-.2-2.97-.47-4.43-.75-3.45-.68-6.85-1.53-10.21-2.48-2.49-.7-4.95-1.46-7.4-2.23-.31-.73-.65-1.45-1.07-2.15-.92-1.54-2.15-2.94-3.38-4.3-1.21-1.32-2.48-2.61-3.78-3.86-.47-.46-.95-.9-1.43-1.35-3.68-3.43-7.57-6.71-11.68-9.75.04-1.97.02-3.94-.1-5.9-.22-3.56-1.24-6.72-2.79-10-1.42-3.04-3.27-6.21-3.52-9.54-.05-.64-.05-1.28-.01-1.92.01-.25.03-.5.06-.74.02-.27.06-.54.1-.81v-.03c.04-.26.08-.53.13-.79.1-.54.22-1.08.36-1.62.06-.25.13-.5.2-.75.08-.28.16-.56.24-.84,1.54,3.98,3.94,7.56,6.19,11.19,1.38,2.22,2.85,4.54,3.71,7.02.73,2.1.44,4.2.73,6.34.22,1.63,1.21,3.4,1.88,4.91.95,2.14,2.01,4.22,3.29,6.17,1.65,2.52,3.64,4.76,5.88,6.72,1.11.99,2.29,1.9,3.52,2.75,4.26,2.94,9.19,5.22,14.34,6.68,1.01-.89,2.03-1.77,3.05-2.65,5.18-4.47,10.43-8.87,15.71-13.23-2.03,6-4.38,11.88-6.87,17.7,1.58.04,3.14,0,4.69-.14,5.11-.44,10.13-1.89,14.64-4.36,3.7-2.03,7.33-4.44,11.46-5.53,3.6-.94,7.36-.59,11-.18,1.63.18,3.26.39,4.88.63.25-.6.51-1.19.77-1.79.07.64.12,1.28.16,1.92,3.85.58,7.66,1.31,11.47,2.22,5.73,1.39,11.45,2.98,17.31,3.76,5.55.74,11.15.44,16.74.37,5.5-.08,10.81.48,16.13,1.88,5.26,1.39,10.6,3.49,16.12,3.33,5.52-.16,9.93-3.49,15.01-5.15,1.66-.54,3.28-.81,4.91-.92.89-3.33,1.99-6.59,3.33-9.76.71,3.22,1.31,6.46,1.81,9.72.29,1.79.54,3.59.76,5.4-2.49.25-4.95.63-7.41,1.07-.38.06-.76.13-1.14.2-.61.11-1.21.22-1.82.34h-.03Z"/>
        <path class="st6" d="M879.04,991.69c-.2.79-.41,1.57-.64,2.35-.75,2.49-1.97,4.66-3.71,6.73-2.62,3.13-5.98,4.97-10.21,5.94-4.52,1.04-8.93,1.91-13.29,3.42-.93.32-1.84.66-2.75,1.02-4.52,1.75-8.88,3.81-13.49,5.38-1.74.59-3.51,1.04-5.3,1.39-1.52.3-3.03.52-4.58.7-.02-.01-.04-.01-.05,0t-.02,0h0c-.2.02-.4.04-.59.06-.11-.03-.22-.05-.34-.06t-.02,0s-.01-.01-.02,0c-2.86-.53-5.77-1.02-8.66-1.44-1.93-.28-3.85-.54-5.79-.74-6.67-.76-13.4-1.08-20.12-.67-.96.06-1.92.12-2.88.2-2.88.21-5.76.47-8.63.73-2.88.26-5.75.51-8.64.71-.96.07-1.92.13-2.88.18-1.78.1-3.55.17-5.33.21-2.53-.13-5.07-.23-7.61-.2-3.92.05-143.94.61-256.31,1.24h-1.14c-73.96.41-135.67.86-138.22,1.2-1.6.22-3.19.39-4.77.51,16.03-.02,33.19-.03,51.16-.03-21.8.11-40.77.2-55.25.28-3.54.16-7.09.15-10.7.06h-.08c-10.34.06-16.95.1-18.74.12-7.02.09-14.07-.09-21.13-.41,9.17,0,19.15-.01,29.82-.01-.53-.01-1.07-.03-1.6-.05h-.08c-11.06-.37-22.12-.83-33.18-1.11-.03-.01-.05-.01-.08,0,0,0-.01-.01-.02,0-2.36-.07-4.72-.12-7.08-.16-1.72-.04-3.43-.06-5.15-.08,0,0-.01-.01-.02,0-.03-.01-.06-.01-.1,0-.03-.01-.06-.01-.09,0-.24-.01-.47-.01-.71-.02h-.37c-2.12-.02-4.23-.03-6.35-.03.22.02.43.03.65.05h.05s.02-.01.03,0h.01c.44.03.88.06,1.32.08.02.01.04,0,.05,0,3.56.24,7.13.47,10.7.68,3.22.2,6.45.38,9.68.53.84.05,1.68.09,2.52.12h-12.18c-7.8.01-14.85.01-21.06.01-7.15,0-13.19,0-17.96-.01-3.29.01-5.97.01-8.01,0-2.7,0-4.26,0-4.55-.01,1.53-.03,3.05-.09,4.58-.17,2.22-.12,4.45-.28,6.67-.44.02.01.03.01.05,0,.39-.02.79-.05,1.18-.08,2.26-.16,4.52-.3,6.78-.39,3.61-.14,7.23-.24,10.84-.3h.46c.13-.01.25-.01.38-.01,2.59-.04,5.17-.06,7.76-.06-.36-.02-.71-.05-1.07-.07-2.15-.13-4.32-.33-6.49-.53.62-2.02,1.26-4.03,1.94-6.02,2.85,1.76,6.54,2.52,9.57,3.07,2.9.52,5.83.87,8.78,1.11,3.57.31,7.15.47,10.71.63,6.97.31,13.94,1.13,20.92.83,10.13-.44,20.15-2.26,30.28-2.69,5.1-.21,10.2.12,15.3.1,4.77-.02,337.27-.19,385.76-.47,3.93-.89,7.88-1.62,11.9-1.94,5.33-.43,10.67-.44,16.01-.29.17.01.34.01.51.02,2.78-.34,5.57-.64,8.35-.75,4.5-.18,8.82.85,13.16,1.83,3.3.16,6.59.27,9.89.29.52,0,1.03,0,1.55-.01,1.16-3.46,2.42-6.89,3.78-10.28.75,3.35,1.12,6.74,1.23,10.16,5.78-.24,11.55-.84,17.29-1.62,5-.67,10.02-1.52,14.89-2.91,1.56-.44,3.11-.94,4.63-1.5,5.49-2.03,11.28-5.08,14.24-10.38,1.42-2.55,2.33-5.93,1.43-8.8-.22-.7-.55-1.34-.95-1.93.52.2,1.03.39,1.55.59,3.56,1.35,7.11,2.73,10.64,4.14Z"/>
        <path class="st0" d="M95.3,31.61c-9.19,1.49-18.67,3.02-27,7.24-1.56.79-3.06,1.7-4.47,2.73-1.89,1.4-3.61,3.03-5.02,4.92-.22.28-.42.56-.62.85-1.3,1.9-2.27,4.03-2.91,6.24-1.04,3.58-.81,7.29-.14,10.92.73,4,2.04,7.93,2.22,12.01.09,2.08-.59,108.04-1.26,110-.66,1.95-1.47,3.85-2.22,5.78-.72,1.82-1.47,670.32-1.73,672.27-.3,2.25-.52,4.5-.66,6.76-.29,4.37-.32,8.76-.21,13.14.28,10.99,1.32,22.02.93,32.96v.11c-.12-1.58-.25-3.15-.39-4.72-.15-1.58-.3-3.16-.46-4.73-1.63-15.82-3.89-698.43-1.75-714.3.55-4.05,1.17-8.06,1.41-12.13.23-3.93.26-111.68.18-115.61-.1-4.81-.36-9.63-.6-14.44,1.4-2.38,2.83-4.74,4.33-7.07.04-.04.08-.08.12-.11,2.24-2.18,4.7-4.17,7.33-5.95,6.86-4.68,14.94-8.01,23.75-9.53.42.09.84.19,1.26.3,2.65.67,5.27,1.56,7.91,2.36Z"/>
        <path class="st0" d="M246.04,1012.61c.29,1.79.54,3.59.76,5.4-2.49.25-4.95.63-7.41,1.07-.38.06-.76.13-1.14.2-.61.11-1.21.22-1.82.34h-.03c-2.14.4-4.28.8-6.44,1.15-3.6.59-7.16,1.07-10.81.74-3.72-.33-7.36-1.14-10.97-1.97-3.43-.78-6.85-1.6-10.36-2.07-3.49-.47-7.01-.45-10.53-.64-14.66-.78-29.24-2.46-43.93-2.89-.16-.01-.32-.02-.48-.02-1.17-.03-2.35-.06-3.52-.08-5.54-.11-11.1.01-16.42,1.48-5.82,1.61-11.13,4.31-16.82,6.2-2.7.89-5.63,1.72-8.54,1.68-1.57-.03-3.14-.17-4.69-.38-1.49-.2-2.97-.47-4.43-.75-3.45-.68-6.85-1.53-10.21-2.48-2.49-.7-4.95-1.46-7.4-2.23-.31-.73-.65-1.45-1.07-2.15-.92-1.54-2.15-2.94-3.38-4.3-1.21-1.32-2.48-2.61-3.78-3.86-.47-.46-.95-.9-1.43-1.35-3.68-3.43-7.57-6.71-11.68-9.75.04-1.97.02-3.94-.1-5.9-.22-3.56-1.24-6.72-2.79-10-1.42-3.04-3.27-6.21-3.52-9.54-.05-.64-.05-1.28-.01-1.92.01-.25.03-.5.06-.74.02-.27.06-.54.1-.81v-.03c.04-.26.08-.53.13-.79.1-.54.22-1.08.36-1.62.06-.25.13-.5.2-.75.08-.28.16-.56.24-.84,1.54,3.98,3.94,7.56,6.19,11.19,1.38,2.22,2.85,4.54,3.71,7.02.73,2.1.44,4.2.73,6.34.22,1.63,1.21,3.4,1.88,4.91.95,2.14,2.01,4.22,3.29,6.17,1.65,2.52,3.64,4.76,5.88,6.72,1.11.99,2.29,1.9,3.52,2.75,4.26,2.94,9.19,5.22,14.34,6.68,3.89,1.1,7.92,1.73,11.89,1.82,1.58.04,3.14,0,4.69-.14,5.11-.44,10.13-1.89,14.64-4.36,3.7-2.03,7.33-4.44,11.46-5.53,3.6-.94,7.36-.59,11-.18,1.63.18,3.26.39,4.88.63.31.04.62.09.93.13,3.85.58,7.66,1.31,11.47,2.22,5.73,1.39,11.45,2.98,17.31,3.76,5.55.74,11.15.44,16.74.37,5.5-.08,10.81.48,16.13,1.88,5.26,1.39,10.6,3.49,16.12,3.33,5.52-.16,9.93-3.49,15.01-5.15,1.66-.54,3.28-.81,4.91-.92,1.71-.13,3.41-.1,5.14-.04Z"/>
        <path class="st0" d="M836.08,1019.25c-.49.05-.99.1-1.48.16-.78.1-1.56.18-2.34.3-.45.07-.9.16-1.35.23-.51-.1-1.02-.22-1.54-.32-1.65-.32-3.31-.64-4.97-.94-.11-.03-.22-.05-.34-.06t-.02,0s-.01-.01-.02,0c-2.86-.53-5.77-1.02-8.66-1.44-1.93-.28-3.85-.54-5.79-.74-6.67-.76-13.4-1.08-20.12-.67-.96.06-1.92.12-2.88.2-2.88.21-5.76.47-8.63.73-2.88.26-5.75.51-8.64.71-.96.07-1.92.13-2.88.18-1.78.1-3.55.17-5.33.21-6.08.18-12.16.16-18.23.48-2.15.11-11.33.24-25.62.38h-.53c-61.19.59-214.04,1.36-311.45,1.85-.35,0-.71.01-1.06.01-21.8.11-40.77.2-55.25.28-3.9.02-7.48.04-10.7.06h-.08c-10.34.06-16.95.1-18.74.12-7.02.09-14.07-.09-21.13-.41-.84-.03-1.68-.07-2.52-.12-3.23-.15-6.46-.33-9.68-.53-3.57-.21-7.14-.44-10.7-.68-.01,0-.03.01-.05,0-.44-.02-.88-.05-1.32-.08h-.01s-.02-.01-.03,0h-.05c-.22-.02-.43-.03-.65-.05h-.05c-.36-.02-.71-.05-1.07-.07-2.15-.13-4.32-.33-6.49-.53.62-2.02,1.26-4.03,1.94-6.02,2.85,1.76,6.54,2.52,9.57,3.07,2.9.52,5.83.87,8.78,1.11,3.57.31,7.15.47,10.71.63,6.97.31,13.94,1.13,20.92.83,10.13-.44,20.15-2.26,30.28-2.69,5.1-.21,10.2.12,15.3.1,4.77-.02,337.27-.19,385.76-.47,3.47-.03,5.48-.05,5.82-.07,5.19-.33,10.37-.78,15.54-1.3,2.34-.24,4.7-.55,7.06-.84,2.78-.34,5.57-.64,8.35-.75,4.5-.18,8.82.85,13.16,1.83.62.14,1.23.28,1.85.42,2.99.67,6.02,1.11,9.06,1.44,1.61.19,3.23.34,4.84.49.25.02.5.05.75.07,4.74.42,9.55.8,14.28,1.56,1.25.2,2.49.43,3.72.69h.02c.89.19,1.75.39,2.62.62h.01s.04,0,.06.02Z"/>
        <path class="st0" d="M873.7,32.86c-.58.14-1.15.29-1.73.43-3.92.98-7.86,1.91-11.8,2.78-3.88.86-7.77,1.65-11.68,2.36-1.88.34-3.76.66-5.65.95-.87.15-1.74.28-2.61.41-.58.09-1.16.17-1.74.25-4.61.65-9.17,1.21-13.75,2.24-5.51,1.25-10.98,1.46-16.54.35-5.39-1.07-10.55-3.04-15.93-4.14-5.1-1.04-10.15-1.61-15.37-1.49-1.64.04-3.27.13-4.91.24-1.42.09-2.83.2-4.25.31-2.27.17-4.55.34-6.83.42-5.57.21-10.91-.76-16.44-1.03-11.26-.55-398.53,2.52-409.71,3.11-.89.05-1.77.07-2.64.06-2.45-.02-4.86-.22-7.28-.42-1.17-.1-2.33-.2-3.51-.28-.41-.03-.82-.06-1.23-.08-3.31-.19-5.66,1.05-7.52,3.8-1.41,2.08-2.22,4.36-2.73,6.73-.53,2.4-.75,4.9-.99,7.38-.32,3.39-.69,6.75-1.92,9.82-.28.73-.62,1.45-1.02,2.14.04-2.43.12-4.86.22-7.29.2-4.83.45-9.66.53-14.49.07-3.49.05-6.97-.14-10.45-.02-.38-.31-.72-.73-.72-.5,0-.99.01-1.49.03-3.71.1-7.39.49-11.07.94-2.36.29-4.73.61-7.1.89-6.33.75-12.55.96-18.91.38-2.16-.2-4.31-.45-6.46-.74-1.05-.13-2.09-.27-3.14-.42-3.23-.45-6.45-.93-9.69-1.34-6.52-.83-13-1.11-19.57-.96-8.25.18-16.45.91-24.65,1.61-2.71.23-5.41.46-8.12.66-1.6.13-3.21.24-4.82.34-10.16.63-20.35-1.01-30.24-3.3,1.49.2,2.99.37,4.5.51,1.52.14,3.04.25,4.57.31.5.03,1.01.04,1.52.05.56.02,1.13.02,1.7.02,5.73-.03,11.5-.52,17.21-.91,1.5-.1,3.01-.21,4.51-.32,3.11-.24,6.21-.49,9.31-.75,1.17-.1,2.33-.2,3.5-.31,8.52-.77,17.03-1.66,25.53-2.61,4.58.93,9.25,1.54,13.96,1.95,3.22.28,6.44.47,9.66.6,1.68.06,3.35.12,5.02.15,1.16.03,2.32.05,3.47.07,8.37.13,16.75.02,25.12.15,9.2.14,18.35.89,27.56.81.98,0,1.97-.02,2.95-.05.01.01.03.01.05.01s.04,0,.06-.01c1.52-.02,3.04-.05,4.56-.1.08,0,.16,0,.23-.01,2.8-.07,5.6-.17,8.39-.27,4.77-.17,9.53-.34,14.29-.41,10.13-.16,396.53.92,406.63.24,4.2-.28,8.31-.57,12.4-.71,1.62-.06,3.23-.1,4.84-.1,4.22-.01,8.44.2,12.77.78,8.23,1.12,16.3,2.97,24.52,4.1.84.12,1.68.23,2.53.33,8.94,1.05,17.92.58,26.88-.43,3.4-.38,6.8-.84,10.19-1.33,2.97-.42,5.93-.87,8.89-1.29,3.83-.56,7.65-1.08,11.45-1.5.03,0,.05,0,.08,0,.94-.11,1.88-.2,2.82-.3.5-.05.99-.09,1.49-.14Z"/>
        <path class="st0" d="M874.78,54.65c-.26.12-.51.24-.77.37-2.04.99-4.07,2.02-6.09,3.07-1.1-3.54-2.32-7.06-3.98-10.37-.67-1.33-1.5-2.91-2.64-4.04-.19-.19-.39-.37-.6-.53-.59-.46-1.26-.8-2.02-.94-2.23-.4-4.52.74-6.36,1.88-2.15,1.33-4.12,2.96-5.99,4.68-.56.52-1.11,1.05-1.66,1.58-2.54,2.46-4.93,5.06-7.26,7.72-.31.35-.61.7-.92,1.05-.37.43-.73.86-1.09,1.29.52-.78,1.05-1.57,1.56-2.36.16-.24.32-.49.47-.74,2.29-3.56,4.55-7.3,5.9-11.32.7-2.1,1.28-5.01-.49-6.61-.23-.2-.5-.38-.81-.54-1.02-.52-2.17-.68-3.33-.65-1.2.01-2.42.21-3.53.41-3.02.55-5.97,1.43-8.96,2.11-2.61.6-5.42,1.26-8.06.5-3.06-.89-5.88-2.39-8.78-3.68-.99-.44-1.99-.86-3.01-1.22-4.32-1.53-8.8-2.71-13.33-3.63-4.01-.82-8.05-1.45-12.07-1.94-2.93-.36-5.87-.64-8.82-.84-1.72-.12-3.44-.21-5.17-.29-.6-.02-1.19-.05-1.79-.07.17-.01.33-.01.49-.03.06,0,.13,0,.19-.01.07,0,.15,0,.22,0,.29-.01.58-.03.87-.04,1.73-.07,3.47-.15,5.21-.22,8.09-.33,16.24-.51,24.27.34,7.47.8,14.83,2.28,22.27,3.22,2.16.27,4.34.5,6.52.65,4.69.32,9.35.23,14-.09,1.65-.11,3.3-.25,4.95-.42,1.87-.18,3.73-.39,5.6-.62.65-.08,1.3-.16,1.95-.24.78.3,1.55.61,2.31.94,1.31.55,2.58,1.15,3.83,1.8.78.4,1.55.81,2.31,1.26,1.88,1.06,3.68,2.22,5.4,3.48.12.09.23.17.34.25,2.04,1.51,3.95,3.15,5.74,4.9.89,3.34,2,6.64,3.13,9.95Z"/>
        <path class="st0" d="M878.69,895.98c-2.09-.08-4.17-.17-6.26-.29-.31-3.19-.62-6.37-.99-9.54,1.92-.39,3.85-.78,5.78-1.15.33,3.68.85,7.34,1.47,10.98Z"/>
        <path class="st0" d="M879.04,991.69c-.2.79-.41,1.57-.64,2.35-.75,2.49-1.97,4.66-3.71,6.73-2.62,3.13-5.98,4.97-10.21,5.94-4.52,1.04-8.93,1.91-13.29,3.42-.93.32-1.84.66-2.75,1.02-4.52,1.75-8.88,3.81-13.49,5.38-1.74.59-3.51,1.04-5.3,1.39-1.52.3-3.03.52-4.58.7-.02-.01-.04-.01-.05,0t-.02,0h0c-.2.02-.4.04-.59.06-2.74.28-5.52.39-8.28.49-.27.01-.53.02-.8.02-2.21.06-4.43.09-6.65.08-4.42-.01-8.84-.14-13.26-.27-5.64-.18-11.31-.25-16.95-.37-.01-.01-.03-.01-.04,0-1.27-.02-2.53-.05-3.8-.08-4.51-.1-9.02-.5-13.53-.75-2.53-.13-5.07-.23-7.61-.2-3.92.05-143.94.61-256.31,1.24h-1.14c-73.96.41-135.67.86-138.22,1.2-1.6.22-3.19.39-4.77.51-1.37.12-2.73.2-4.09.25-3.54.16-7.09.15-10.7.06h-.08c-.29,0-.58,0-.88-.02-2.66-.07-5.33-.15-8-.24-.38-.01-.76-.02-1.14-.04-.01.01-.02.01-.03,0-.53-.01-1.07-.03-1.6-.05,3.98,0,7.96.02,11.93.03.85,0,1.7,0,2.55.02.66,0,1.32,0,1.98-.01,1.26,0,2.52-.06,3.78-.17,2.52-.23,5.02-.59,7.5-1.05.58-.11,6.33-.22,16.04-.34,0,0,.02,0,.03,0t.02,0s.1,0,.15,0c.02,0,.05,0,.07,0,.07,0,.13,0,.2,0,.11,0,.22,0,.33,0,74.44-.88,369.88-2.01,374.19-3.06,1.22-.3,2.43-.59,3.65-.86,3.93-.89,7.88-1.62,11.9-1.94,5.33-.43,10.67-.44,16.01-.29.17.01.34.01.51.02,7.17.22,14.34.75,21.51,1.08,3.3.16,6.59.27,9.89.29.52,0,1.03,0,1.55-.01,1.67,0,3.34-.05,5.01-.12,5.78-.24,11.55-.84,17.29-1.62,5-.67,10.02-1.52,14.89-2.91,1.56-.44,3.11-.94,4.63-1.5,5.49-2.03,11.28-5.08,14.24-10.38,1.42-2.55,2.33-5.93,1.43-8.8-.22-.7-.55-1.34-.95-1.93.52.2,1.03.39,1.55.59,3.56,1.35,7.11,2.73,10.64,4.14Z"/>
        <path class="st0" d="M267.13,977.61c-.08.4-.16.81-.25,1.21-.22,1.08-.47,2.16-.74,3.24.21-1.09.44-2.17.69-3.24.1-.4.2-.81.3-1.21Z"/>
        <g class="st3">
          <path class="st1" d="M826.32,970.74c-.19,1.01-.5,2.01-.9,2.98-1.09-1.67-2.2-3.34-3.32-5,1.4.69,2.8,1.36,4.22,2.02Z"/>
          <path class="st1" d="M857.62,974.67c-2.69-1.43-5.24-3.13-7.75-4.85-.97-.67-1.93-1.34-2.89-2.02.22-.07.44-.13.67-.18,1.1-.25,2.13-.18,3.22.06.78.16,1.53.54,2.23.9.5.27.98.59,1.41.96,1.31,1.09,2.34,2.32,2.89,3.95.13.39.2.78.22,1.18Z"/>
          <path class="st1" d="M773.97,953.22c-.04.22-.09.44-.13.65-.05.12-.09.23-.13.35-.01.05-.02.1-.03.15-.01.05-.04.1-.06.15-.05.14-.09.28-.12.43,0-.03.01-.05.01-.07-.05.25-.14.5-.29.72-.13.17-.26.34-.4.51-.17.14-.35.29-.52.44-.28.21-.58.36-.91.44-.19.09-.39.13-.6.13-.29.05-.57.04-.85-.05-.08-.04-.15-.07-.23-.11-.35.08-.7.09-1.05.01-.24,0-.47-.07-.68-.2-.33-.11-.6-.32-.8-.62-.09-.21-.19-.41-.28-.62-.1-.36-.09-.71.01-1.06.05-.39.19-.75.42-1.08.02-.03.04-.07.07-.1.49-.74,1.28-1.38,2.09-1.71.29-.13.6-.22.9-.3.04-.01.08-.02.13-.02.32-.04.71-.11,1.06-.08.04,0,.07.01.1.01.26.04.51.07.77.12.07.01.14.03.21.04.33.08.59.24.79.48.17.12.29.29.34.49.05.09.1.18.12.28.07.2.09.4.06.62Z"/>
          <g>
            <path class="st1" d="M760.91,986.71c.09.09.14.14.17.16-.02-.03-.09-.09-.17-.16Z"/>
            <path class="st1" d="M761.04,987.7c-.08-.16-.17-.36-.28-.61.09.17.2.4.28.61Z"/>
          </g>
        </g>
        <path class="st0" d="M69.65,932.39c-1.1.65-2.18,1.32-3.26,2.01-2.67,1.7-5.28,3.5-7.78,5.44-2.62,2.04-4.87,4.57-7.52,6.53-.21.16-.47.25-.72.29h0c-.99.14-2.02-.53-1.23-1.64.72-1.02,1.6-1.96,2.56-2.85,1.42-1.32,3-2.52,4.45-3.67,2.47-1.97,5.05-3.79,7.7-5.52.52-.34,1.04-.67,1.56-.99,1.42.08,2.84.2,4.25.4Z"/>
        <path class="st0" d="M325.53,33.9c-.01.29-.1.62-.31.96-.02.05-.06.1-.09.15-1.06,1.6-2.39,3.04-3.8,4.4-1.13,1.1-2.31,2.16-3.43,3.21-2.49,2.33-5.01,4.64-7.6,6.86-.15.13-.3.26-.45.38-.28.24-.55.47-.82.7-.33,2.18-.3,4.45-.17,6.68.09,1.39.22,2.76.34,4.1.4,4.41.96,8.84.82,13.27-.04,1.05-2.08,1.79-2.13.45-.12-2.68-.51-5.34-.95-8-.27-1.72-.56-3.43-.8-5.15-.03-.16-.05-.32-.07-.48-.34-2.55-.66-5.15-.66-7.73-3.55,3.12-6.99,6.37-9.94,10.02-.59.73-2.13.28-1.43-.66,3.66-4.93,7.58-9.55,11.77-14,.04-.19.06-.38.1-.57.1-.45.39-.81.76-1.07.34-.24.74-.4,1.14-.46,2.2-2.25,4.49-4.41,6.72-6.64,2.06-2.06,3.97-4.3,6.09-6.29,0,0,0-.01.01-.02.43-.41.88-.8,1.33-1.19,1.13-.96,2.85-.65,3.4.34.03.07.06.14.09.21.06.16.09.34.08.53Z"/>
        <path class="st0" d="M295.16,1019.51c-14.22-.95-28.54.21-42.77.45-6.83.12-13.63-.16-20.44-.59-6.87-.44,641.79-.87,634.91-.73-3.82.07-7.65.18-11.47.05-3.92-.14-8.14-.15-11.88-1.34-.61-.19-1.47.86-.7,1.13,3.07,1.06,6.02,2.34,9.23,2.9,3.25.56,6.53.88,9.81,1.14,6.79.52,13.53,1.34,20.31,1.96,7.11.65-641.51-.12-634.53-1.42,7.25-1.35,14.74-1.32,22.09-1.37,8.24-.06,16.55.28,24.78-.24,1.01-.06,2.16-1.82.66-1.92Z"/>
      </g>
    </g>
  </g>
</svg>