<?xml version="1.0" encoding="UTF-8"?>
<svg xmlns="http://www.w3.org/2000/svg" version="1.1" viewBox="0 0 949.63 244.09">
  <!-- Generator: Adobe Illustrator 30.1.0, SVG Export Plug-In . SVG Version: 2.1.1 Build 136)  -->
  <defs>
    <style>
      .st0 {
        fill: #723666;
      }

      .st1 {
        fill: #6d3562;
        mix-blend-mode: screen;
      }

      .st2, .st3 {
        fill: #6c336d;
      }

      .st4 {
        fill: #fff;
      }

      .st5 {
        isolation: isolate;
      }

      .st6 {
        fill: #542b55;
      }

      .st7 {
        opacity: .39;
      }

      .st7, .st3 {
        mix-blend-mode: multiply;
      }

      .st8 {
        fill: #af92b3;
      }

      .st3 {
        opacity: .52;
      }
    </style>
  </defs>
  <g class="st5">
    <g id="Layer_1">
      <g>
        <g>
          <g>
            <path class="st0" d="M936.95,153.95c-.1-7.77.03-15.55-.15-23.32-.19-8.06-.82-16.05-2.13-24.02-1.07-6.5-1.84-13.09-1.83-19.67,0-6.46.85-12.89,2-19.25.65-3.61,1.27-7.12,1.15-10.8-.11-3.33-.65-6.64-1.43-9.89-1.82-7.57-4.81-14.95-6.72-22.48-5.31-5.47-11.89-9.87-19.3-12.82-8.52,1.14-17.04,2.01-25.66,1.39-9.38-.68-18.54-2.88-27.87-3.92-9.72-1.08-19.63-.52-29.38-.08-9.96.45-19.91,1.13-29.86,1.71-9.61.57-19.3.65-28.86,1.77-9.55,1.12-19,2.93-28.57,3.92-9.13.94-17.88.5-26.94-.73-9.35-1.27-18.64-3-28.06-3.74-9.4-.74-104.24-.15-113.58.93-18.31,2.12-37.04,6.89-55.57,4.62-8.81-1.08-17.41-3.25-26.19-4.49-9.85-1.4-19.19-.66-29.05.03-9.78.68-19.58-.41-29.38-.25-9.86.16-94.05.76-103.91.85-8.91.08-17.78-.68-26.68-.82-8.1-.13-16.21-.02-24.31-.15-10.33-.17-20.95-.66-31.09-2.81-8.22.97-16.46,1.87-24.71,2.65-5.58.53-11.18,1-16.77,1.4-5.53.4-61.08.9-66.63.92-10.86.05-21.37-2.81-32.09-3.97-2.69-.29-5.41-.48-8.12-.48-2.66,0-5.26.39-7.91.49-5.24.19-10.18,2.11-15.41,2.32-7.18.28-13.61-3.14-20.4-4.72-11.86,2.14-22.37,7.83-30.2,15.82-1.45,2.36-2.84,4.75-4.2,7.17.23,4.88.48,9.77.58,14.66.08,3.98.06,7.97-.17,11.95-.23,4.13-.84,8.2-1.37,12.31-2.08,16.11.11,32.32,1.69,48.37.79,8.02,1.45,16.06,1.35,24.11-.04,3.58-.23,7.08-1.06,10.59-.8,3.4-2,6.7-3.27,9.97-1.21,3.13-2.5,6.25-3.51,9.45-.92,2.94-1.73,6.11-1.51,9.19.24,3.39,2.03,6.6,3.41,9.68,1.49,3.33,2.48,6.54,2.69,10.15.12,1.99.14,3.98.1,5.98,3.97,3.09,7.74,6.42,11.3,9.9,1.75,1.7,3.45,3.45,5.04,5.28,1.19,1.37,2.38,2.8,3.27,4.36.4.71.73,1.44,1.04,2.18,5.59,1.84,11.25,3.58,17.05,4.78,2.89.59,5.86,1.1,8.83,1.14,2.82.04,5.66-.8,8.27-1.7,5.51-1.91,10.65-4.65,16.28-6.28,6.25-1.81,12.83-1.61,19.31-1.42,14.37.41,28.65,2.14,43,2.95,3.4.19,56.79.18,60.16.65,3.39.48,6.71,1.31,10.03,2.1,3.5.84,7.02,1.65,10.62,1.99,3.54.33,6.99-.15,10.47-.75,6.34-1.09,12.59-2.67,19.04-3.02,7.23-.4,14.61.79,21.82,1.27,15.17,1.01,30.54,2.17,45.75,1.97,15.25-.2,104.77-1.91,119.99-2.74,7.6-.42,15.22-.26,22.81-.69,7.45-.43,14.85-1.37,22.29-1.85,13-.84,26,1.3,38.65,3.9.5.1.99.22,1.49.33.43-.08.87-.16,1.3-.23,12.31-1.96,110.41-.74,122.77.14,6.21.44,12.44.83,18.67.72,6.23-.11,12.43-.83,18.65-1.1,26.94-1.14,53.9.63,80.82,1.38,6.72.19,13.2.14,19.87-.81,6.23-.89,12.45-2.39,18.77-2.47,6.84-.09,13.64.79,20.46.96,6.71.17,13.42.23,20.12.45,6.68.21,13.37.41,20.05.18,6.18-.21,12.42-.61,18.23-2.68,5.36-1.91,10.37-4.55,15.72-6.49,4.22-1.53,8.49-2.41,12.87-3.47,4.1-.99,7.35-2.85,9.88-6.03,1.69-2.11,2.87-4.3,3.59-6.84.7-2.45,1.14-4.95,2-7.36.8-2.24,2-4.24,3.43-6.09-.41-5.03-.88-10.05-1.34-15.06-.72-7.84-1.41-15.65-1.51-23.51Z"/>
            <path class="st6" d="M62.8,238.5c-.08,0-.16,0-.24,0-3.38-.05-6.69-.64-9.47-1.21-6.11-1.25-11.99-3.08-17.43-4.88-.88-.29-1.58-.93-1.91-1.74-.31-.75-.58-1.33-.87-1.85-.77-1.36-1.87-2.67-2.94-3.89-1.36-1.57-2.91-3.19-4.87-5.1-3.65-3.56-7.36-6.81-11.04-9.67-.73-.57-1.15-1.41-1.14-2.3.03-2.17,0-4.06-.1-5.78-.18-2.95-.93-5.78-2.46-9.18-.24-.53-.49-1.06-.74-1.6-1.25-2.68-2.67-5.71-2.91-9.01-.26-3.59.68-7.17,1.63-10.2.82-2.63,1.83-5.2,2.81-7.68l.76-1.94c1.18-3.06,2.39-6.34,3.16-9.61.8-3.4.95-6.82.99-10,.09-8-.59-16.18-1.34-23.82-.19-1.97-.4-3.94-.6-5.91-1.45-14.08-2.95-28.64-1.08-43.08l.28-2.16c.45-3.42.88-6.64,1.06-9.95.2-3.53.25-7.37.16-11.75-.09-4.51-.31-9.11-.52-13.55l-.05-1.03c-.02-.51.1-1.03.36-1.48,1.52-2.71,2.91-5.09,4.26-7.27.11-.19.25-.36.41-.52,8.41-8.58,19.75-14.52,31.95-16.73.46-.08.94-.07,1.39.03,2.4.56,4.72,1.32,6.97,2.06,4.29,1.41,8.34,2.73,12.52,2.58,2.32-.09,4.65-.57,7.11-1.09,2.65-.55,5.39-1.12,8.31-1.23,1.05-.04,2.11-.13,3.22-.22,1.54-.13,3.14-.27,4.8-.27h.01c2.62,0,5.4.16,8.49.5,4.06.44,8.1,1.12,12.01,1.77,6.76,1.14,13.13,2.23,19.7,2.18,4.48-.02,9.1-.37,13.58-.7l52.82-.21c5.32-.38,10.93-.85,16.7-1.39,7.4-.7,15.46-1.56,24.63-2.64.37-.04.75-.03,1.12.05,10.03,2.13,20.55,2.57,30.43,2.74,4.05.07,8.19.07,12.19.07,3.97,0,8.07,0,12.12.07,3.83.06,7.68.24,11.41.41,4.99.23,10.15.46,15.19.42,5.25-.05,10.6-.25,15.79-.44,4.5-.17,83.5-.34,88.1-.41,4.14-.07,8.3.08,12.33.23,5.56.2,11.31.41,16.86.02l1.14-.08c9.67-.68,18.81-1.32,28.64.07,4.12.58,8.23,1.37,12.2,2.13,4.56.88,9.28,1.78,13.93,2.35,13.07,1.61,26.64-.48,39.76-2.5,4.92-.76,10-1.54,15-2.12,11.41-1.32,105.78-1.61,114.25-.94,6.54.52,13.06,1.51,19.36,2.46,2.96.45,5.92.9,8.89,1.3,9.74,1.32,18.04,1.55,26.12.71,5.13-.53,10.35-1.32,15.39-2.08,4.29-.65,8.72-1.32,13.13-1.84,6.66-.78,13.42-1.07,19.96-1.35,3.04-.13,6.07-.26,9.1-.44,2.88-.17,5.77-.35,8.65-.52,6.96-.43,14.16-.87,21.26-1.19l1.92-.09c9.17-.42,18.65-.86,28,.19,4.13.46,8.25,1.15,12.23,1.81,5.09.85,10.34,1.72,15.51,2.1,8.4.6,16.96-.3,24.96-1.37.58-.08,1.18,0,1.72.21,7.73,3.08,14.79,7.77,20.41,13.55.36.37.61.81.73,1.29.89,3.52,2.06,7.12,3.19,10.59,1.26,3.87,2.56,7.88,3.54,11.93.91,3.78,1.4,7.2,1.51,10.44.13,4.04-.57,7.93-1.2,11.37-1.33,7.35-1.95,13.31-1.96,18.77,0,5.62.57,11.73,1.8,19.23,1.25,7.62,1.96,15.6,2.16,24.4.1,4.53.11,9.12.11,13.55,0,3.27,0,6.53.04,9.8h0c.09,7.52.73,15,1.5,23.3l.09,1.02c.43,4.69.86,9.38,1.25,14.07.06.69-.15,1.37-.58,1.93-1.38,1.79-2.36,3.52-2.99,5.3-.48,1.35-.82,2.76-1.19,4.25-.24.98-.48,1.97-.76,2.95-.81,2.82-2.15,5.38-4.11,7.83-2.88,3.6-6.69,5.93-11.64,7.13-.82.2-1.64.39-2.46.58-3.5.82-6.8,1.6-10.05,2.78-2.51.91-4.93,1.98-7.49,3.1-2.65,1.17-5.4,2.38-8.25,3.39-6.36,2.27-13,2.66-19.27,2.88-6.63.22-13.11.05-20.27-.18-3.98-.13-8.04-.2-11.96-.28-2.71-.05-5.42-.1-8.13-.17-2.97-.07-5.94-.28-8.82-.48-3.97-.27-7.71-.53-11.52-.49-4.14.05-8.24.76-12.58,1.51-1.88.32-3.81.66-5.75.93-7.28,1.04-14.13,1.01-20.45.84-7.02-.2-14.15-.46-21.05-.73-19.54-.74-39.74-1.5-59.53-.66-2.61.11-5.29.31-7.88.5-3.54.26-7.2.53-10.86.6-6.4.11-98.13-.28-104.48-.73l-3.6-.26c-10.89-.8-22.15-1.62-32.87.09-.3.05-.6.1-.9.16l-.34.06c-.44.08-.89.07-1.33-.02l-.73-.16c-.25-.06-.49-.11-.74-.16-12.05-2.48-24.96-4.66-37.74-3.84-3.47.22-7.02.56-10.45.88-3.87.36-7.88.74-11.86.97-3.93.23-7.9.3-11.73.36-3.65.06-7.42.13-11.09.33-5.55.3-11.21.73-16.67,1.15-9.51.72-93.7,1.47-103.46,1.6-13.96.19-28.16-.77-41.88-1.69l-4.15-.28c-2.25-.15-4.53-.37-6.74-.58-4.87-.47-9.9-.95-14.66-.69-4.38.24-8.65,1.07-13.18,1.95-1.82.36-3.64.71-5.47,1.02-3.53.61-7.32,1.17-11.38.79-3.73-.35-7.23-1.15-11.1-2.07l-.81-.19c-3.06-.74-5.95-1.43-8.9-1.85-2.21-.31-4.46-.4-6.84-.49-1.02-.04-52.01-.08-53.03-.14-5.97-.33-12.01-.83-17.84-1.32-8.22-.68-16.72-1.39-25.06-1.62h-.18c-6.37-.19-12.39-.36-18.07,1.29-3.02.88-5.9,2.1-8.95,3.39-2.31.98-4.7,1.99-7.16,2.84-2.71.94-5.91,1.89-9.2,1.89ZM39.15,227.31c4.86,1.58,10.04,3.15,15.32,4.23,2.47.51,5.38,1.03,8.19,1.07,2.31.04,4.77-.71,7.1-1.51,2.26-.78,4.44-1.71,6.75-2.68,3.09-1.31,6.29-2.66,9.69-3.65,6.71-1.95,13.56-1.75,20.18-1.56h.18c8.53.25,17.12.96,25.43,1.65,5.79.48,11.78.98,17.66,1.31.98.05,51.93.09,52.91.13,2.45.09,4.99.19,7.54.55,3.28.46,6.47,1.23,9.55,1.97l.8.19c3.61.87,6.86,1.61,10.14,1.91,3.22.31,6.49-.19,9.56-.72,1.78-.31,3.55-.65,5.33-1,4.55-.89,9.26-1.8,14.11-2.07,5.28-.29,10.58.22,15.7.71,2.16.21,4.39.42,6.54.56l4.15.28c13.59.91,27.64,1.86,41.32,1.68,9.55-.13,93.62-.87,103.03-1.58,5.51-.42,11.2-.85,16.82-1.16,3.8-.21,7.63-.27,11.34-.34,3.77-.07,7.67-.14,11.46-.35,3.86-.22,7.8-.59,11.61-.95,3.48-.33,7.08-.66,10.65-.89,13.6-.88,27.05,1.39,39.57,3.96.29.06.57.12.86.19.23-.04.46-.08.7-.12,11.51-1.84,23.18-.98,34.46-.16l89.09.26c6.19.44,12.24.82,18.36.71,3.46-.06,7.03-.32,10.47-.58,2.64-.2,5.38-.4,8.1-.51,20.07-.85,40.41-.08,60.08.66,6.88.26,14,.53,20.98.72,6.02.17,12.51.19,19.29-.77,1.83-.26,3.72-.59,5.55-.9,4.42-.76,8.98-1.55,13.67-1.61,4.09-.06,8.15.23,12.08.5,2.8.19,5.7.39,8.51.46,2.7.07,5.4.12,8.09.17,3.95.07,8.03.15,12.06.28,7.04.23,13.39.39,19.82.18,5.72-.19,11.77-.55,17.2-2.48,2.62-.93,5.14-2.04,7.8-3.22,2.54-1.12,5.17-2.28,7.9-3.27,3.62-1.32,7.28-2.17,10.81-3,.8-.19,1.61-.38,2.42-.57,3.54-.86,6.12-2.42,8.12-4.93,1.49-1.87,2.47-3.72,3.08-5.84.26-.91.48-1.82.7-2.73.38-1.56.77-3.18,1.35-4.79.72-2.04,1.77-4.01,3.19-5.99-.36-4.33-.76-8.66-1.16-12.98l-.09-1.02c-.77-8.41-1.42-16.01-1.52-23.73h0c-.04-3.29-.04-6.58-.04-9.87,0-4.41,0-8.96-.1-13.43-.2-8.54-.88-16.28-2.09-23.64-1.28-7.8-1.87-14.19-1.87-20.11,0-5.79.66-12.06,2.04-19.73.6-3.32,1.22-6.76,1.11-10.23-.09-2.87-.54-5.93-1.36-9.34-.92-3.84-2.19-7.74-3.42-11.51-1.08-3.32-2.2-6.75-3.1-10.19-4.72-4.71-10.51-8.56-16.84-11.2-8.1,1.06-16.76,1.91-25.46,1.29-5.48-.4-10.9-1.3-16.14-2.17-3.89-.65-7.92-1.32-11.86-1.76-8.81-.98-18.02-.56-26.92-.15l-1.92.09c-7.04.32-14.21.76-21.15,1.19-2.89.18-5.78.36-8.67.53-3.06.18-6.14.31-9.21.44-6.41.27-13.04.56-19.45,1.31-4.3.51-8.67,1.17-12.91,1.81-5.12.78-10.42,1.57-15.71,2.12-8.64.89-17.46.66-27.76-.74-3-.41-6-.86-9-1.32-6.18-.94-12.58-1.91-18.87-2.41-8.01-.63-101.97-.35-112.91.92-4.87.56-9.89,1.34-14.74,2.08-13.58,2.09-27.63,4.25-41.65,2.53-4.88-.6-9.71-1.53-14.38-2.42-3.89-.75-7.92-1.52-11.87-2.08-9.11-1.29-17.89-.67-27.18-.02l-1.14.08c-5.92.41-11.86.2-17.6-.01-3.94-.14-8-.29-11.97-.23-4.53.07-83.49.24-87.96.41-5.23.19-10.63.39-15.98.44-5.22.05-10.48-.19-15.56-.42-3.68-.17-7.48-.34-11.21-.4-4-.06-8.08-.07-12.02-.07-4.03,0-8.19,0-12.3-.08-10.05-.17-20.77-.62-31.19-2.77-8.99,1.05-16.92,1.9-24.23,2.59-5.81.55-11.48,1.02-16.85,1.41l-52.8.21c-4.59.34-9.34.7-14.06.72-7.15.07-14.12-1.14-20.87-2.27-3.81-.64-7.76-1.3-11.61-1.72-2.84-.31-5.37-.46-7.75-.46h0c-1.37,0-2.75.12-4.21.24-1.15.1-2.34.2-3.56.24-2.34.08-4.68.57-7.16,1.09-2.63.55-5.35,1.11-8.24,1.23-5.42.22-10.25-1.38-14.93-2.91-1.96-.64-3.83-1.26-5.7-1.73-10.47,2.04-20.21,7.18-27.51,14.53-1.13,1.85-2.31,3.85-3.57,6.09v.24c.23,4.48.45,9.12.54,13.71.09,4.52.04,8.49-.17,12.16-.2,3.51-.66,7-1.1,10.36l-.28,2.14c-1.78,13.82-.32,28.06,1.1,41.83.2,1.98.41,3.96.6,5.93.77,7.79,1.46,16.14,1.37,24.41-.04,3.49-.21,7.27-1.13,11.19-.85,3.59-2.13,7.09-3.38,10.34l-.77,1.96c-.94,2.4-1.91,4.88-2.68,7.32-.8,2.54-1.59,5.49-1.4,8.17.16,2.28,1.25,4.61,2.4,7.06.27.57.53,1.13.78,1.69,1.81,4.04,2.71,7.47,2.93,11.11.09,1.47.13,3.05.12,4.79,3.49,2.78,6.99,5.87,10.42,9.22,2.08,2.03,3.74,3.76,5.21,5.47,1.26,1.45,2.57,3.01,3.61,4.84.22.38.42.78.63,1.22Z"/>
          </g>
          <path class="st3" d="M936.95,153.95c-.1-7.77.03-15.55-.15-23.32-.19-8.06-.82-16.05-2.13-24.02-1.07-6.5-1.84-13.09-1.83-19.67,0-6.46.85-12.89,2-19.25.65-3.61,1.27-7.12,1.15-10.8-.11-3.33-.65-6.64-1.43-9.89-1.82-7.57-4.81-14.95-6.72-22.48-3.69-3.8-8.01-7.07-12.77-9.71-4.7,3.6-8.6,7.71-12.34,12.26-2.93,3.57-5.87,7.14-9.37,10.26-4.33,3.85-9.32,6.8-14.32,9.84-3.86,2.35-8.09,5.06-10.27,8.95-1.47,2.62-1.73,5.61-2.2,8.48-1.34,8.11-4.46,16.08-9.83,22.68-10.87,13.38-28.66,20.7-45.43,25.72-19.46,5.82-39.76,8.9-59.95,11.61-24.69,3.32-49.16,7.58-73.72,11.64-33.21,5.48-151.98,10.73-185.28,15.77-66.4,10.06-207.29,19.3-273.94,27.87-16.18,2.08-82.35,4.47-98.6,6.06-14.68,1.43-29.65,2.07-43.85,6.11-18.28,5.19-32.24,16.67-46.23,28.15.92.95,1.81,1.91,2.67,2.9,1.19,1.37,2.38,2.8,3.27,4.36.4.71.73,1.44,1.04,2.18,5.59,1.84,11.25,3.58,17.05,4.78,2.89.59,5.86,1.1,8.83,1.14,2.82.04,5.66-.8,8.27-1.7,5.51-1.91,10.65-4.65,16.28-6.28,6.25-1.81,12.83-1.61,19.31-1.42,14.37.41,28.65,2.14,43,2.95,3.4.19,56.79.18,60.16.65,3.39.48,6.71,1.31,10.03,2.1,3.5.84,7.02,1.65,10.62,1.99,3.54.33,6.99-.15,10.47-.75,6.34-1.09,12.59-2.67,19.04-3.02,7.23-.4,14.61.79,21.82,1.27,15.17,1.01,30.54,2.17,45.75,1.97,15.25-.2,104.77-1.91,119.99-2.74,7.6-.42,15.22-.26,22.81-.69,7.45-.43,14.85-1.37,22.29-1.85,13-.84,26,1.3,38.65,3.9.5.1.99.22,1.49.33.43-.08.87-.16,1.3-.23,12.31-1.96,110.41-.74,122.77.14,6.21.44,12.44.83,18.67.72,6.23-.11,12.43-.83,18.65-1.1,26.94-1.14,53.9.63,80.82,1.38,6.72.19,13.2.14,19.87-.81,6.23-.89,12.45-2.39,18.77-2.47,6.84-.09,13.64.79,20.46.96,6.71.17,13.42.23,20.12.45,6.68.21,13.37.41,20.05.18,6.18-.21,12.42-.61,18.23-2.68,5.36-1.91,10.37-4.55,15.72-6.49,4.22-1.53,8.49-2.41,12.87-3.47,4.1-.99,7.35-2.85,9.88-6.03,1.69-2.11,2.87-4.3,3.59-6.84.7-2.45,1.14-4.95,2-7.36.8-2.24,2-4.24,3.43-6.09-.41-5.03-.88-10.05-1.34-15.06-.72-7.84-1.41-15.65-1.51-23.51Z"/>
          <g>
            <path class="st3" d="M839.47,77.11c.11-.03.23-.05.34-.08,8.38-2.27,16.37-5.68,24.15-9.3,8.25-3.83,16.31-8,24.45-12.03,3.78-1.87,7.57-3.71,11.43-5.45,4.19-1.88,8.42-3.67,12.6-5.57,6.3-2.86,12.58-5.77,18.94-8.52-1.26-3.87-2.54-7.74-3.53-11.65-2.1-2.16-4.39-4.14-6.86-5.94-13.14,8.75-26.31,17.46-39.24,26.47-14.56,10.15-28.82,20.7-42.28,32.08Z"/>
            <path class="st3" d="M873.12,104.77c6.02.95,12.09,1.61,18.19,2.05,12.61.92,25.27,1,37.91,1.08,1.88.01,3.77.03,5.65.04-.07-.45-.12-.89-.19-1.34-.7-4.25-1.27-8.55-1.58-12.86-9.97,1.43-19.93,2.96-29.83,4.72-10.12,1.8-20.18,3.87-30.15,6.3Z"/>
            <path class="st3" d="M917.19,190.25c-7.31-3.07-14.78-5.78-22.29-8.42-7.45-2.62-14.93-5.15-22.34-7.86-6.22-2.28-12.38-4.69-18.38-7.42,4.33,5.92,8.48,11.96,12.51,18.06,7.8,11.77,15.24,23.75,23.15,35.45,1.74,2.57,3.5,5.12,5.29,7.66,4.32-1.75,8.5-3.81,12.9-5.41,4.22-1.53,8.49-2.41,12.87-3.47,4.1-.99,7.35-2.85,9.88-6.03,1.69-2.11,2.87-4.3,3.59-6.84.62-2.16,1.05-4.36,1.73-6.5-6.06-3.48-12.42-6.5-18.91-9.23Z"/>
            <path class="st3" d="M78.23,230.93c2.24-4.66,4.58-9.29,6.89-13.92,4.24-8.51,8.4-17.08,11.67-25.96-4.64,3.54-9.26,7.11-13.82,10.73-9.17,7.3-18.15,14.81-26.77,22.67-3.02,2.75-5.97,5.56-8.89,8.39,2.14.58,4.3,1.12,6.48,1.57,2.89.59,5.86,1.1,8.83,1.14,2.82.04,5.66-.8,8.27-1.7,2.5-.87,4.93-1.9,7.35-2.93Z"/>
            <path class="st3" d="M132.47,196.19c-1.04,2.21-2.09,4.43-3.1,6.65-3.58,7.86-7.02,15.83-9.7,24,3.29.23,6.57.49,9.86.76.79-4.55,1.61-9.1,2.24-13.67.81-5.86,1.35-11.85.7-17.75Z"/>
            <path class="st3" d="M304.4,178.21c-2.96,3.9-5.43,8.1-7.55,12.43-4.61,9.39-7.77,19.37-10.33,29.39-.97,3.8-1.82,7.63-2.62,11.46,8.07.54,16.19,1.1,24.31,1.45.16-7.22.29-14.45.14-21.67-.24-11.1-1.18-22.24-3.94-33.07Z"/>
            <path class="st3" d="M516.04,195.13c-1.57,3.61-2.99,7.28-4.27,10.99-2.51,7.23-4.54,14.58-6.35,21.98,2.99.2,5.97.51,8.95.9.59-3.88,1.27-7.76,1.82-11.64,1.04-7.36,1.63-14.94-.13-22.23Z"/>
            <path class="st3" d="M676.87,194.28c-1.35,2.91-2.4,5.93-3.24,8.99-2.65,9.67-3.46,19.63-4.22,29.56,1.97.05,3.95.08,5.93.04,1.86-.03,3.71-.13,5.57-.24-.33-12.86-1.01-25.81-4.02-38.36Z"/>
            <path class="st3" d="M14.89,163.47c-1.21,3.13-2.5,6.25-3.51,9.45-.1.33-.2.66-.3.99,9.23-4.86,18.27-10.01,27.1-15.46,10.77-6.64,21.23-13.71,31.34-21.18-4.19-.66-8.46-.73-12.69-.51-8.83.46-17.53,2.07-26.32,2.94-3.75.37-7.54.59-11.32.54,0,.89.04,1.78.03,2.67-.04,3.58-.23,7.08-1.06,10.59-.8,3.4-2,6.7-3.27,9.97Z"/>
            <path class="st3" d="M37.59,31.54c9.02,5.62,18.29,10.95,28.17,15.21-1.17-3.7-2.78-7.27-4.67-10.71-4.99-9.04-11.51-17.2-18.15-25.27-7.43,2.56-14.1,6.58-19.62,11.66,4.75,3.06,9.48,6.13,14.28,9.11Z"/>
            <path class="st3" d="M285.02,40.54c.55-2.23,1.03-4.47,1.4-6.73,1.16-6.96,1.65-13.99,2.29-21-2.88,0-5.76,0-8.65-.03.14,4.8.45,9.61,1.19,14.37.71,4.55,1.77,9.15,3.76,13.38Z"/>
            <path class="st3" d="M537.04,42.02c-1.01,9-2.05,18.26-.96,27.3,2.4-4.38,4.15-9.03,5.58-13.75,3.04-10.02,4.73-20.33,7.4-30.42.86-3.23,1.82-6.49,2.99-9.67-4.22.64-8.45,1.26-12.68,1.74-.21,8.29-1.41,16.57-2.33,24.8Z"/>
            <path class="st3" d="M747.09,56.92c1.93-4.03,3.56-8.18,5-12.38,3.15-9.17,5.53-18.55,8.6-27.74.4-1.2.82-2.4,1.25-3.6-3.98.55-7.96,1.17-11.94,1.76-1.39,13.96-3.19,27.92-2.92,41.96Z"/>
            <path class="st3" d="M473.66,15.45c.39,6.04.66,12.1,1.32,18.12.55,5.05,1.38,10.11,2.96,14.98.47-2.7.74-5.43.89-8.16.53-9.16-.16-18.97,2.31-27.98-2.58-.14-5.15-.17-7.71-.12.08,1.05.16,2.1.23,3.15Z"/>
            <path class="st3" d="M225.93,27c1.83,6.9,4.17,13.96,8.22,20.07.74-3.09,1.21-6.23,1.48-9.39.75-8.94.13-17.9-.15-26.85-4.23.47-8.47.92-12.71,1.34.84,4.98,1.86,9.94,3.16,14.83Z"/>
          </g>
          <path class="st1" d="M291.57,173.76c-.33,1.19-.61,2.39-.87,3.61.33-1.2.62-2.4.87-3.61Z"/>
          <g>
            <path class="st8" d="M917.55,145.46c-.09-6.22.03-12.44-.14-18.66-.18-6.45-.76-12.84-1.98-19.22-1-5.2-1.72-10.48-1.71-15.74,0-5.17.79-10.31,1.87-15.41.61-2.89,1.19-5.7,1.08-8.64-.1-2.67-.61-5.31-1.34-7.92-1.7-6.06-4.49-11.96-6.27-17.99-4.96-4.38-11.1-7.9-18-10.25-7.94.91-15.9,1.61-23.94,1.11-8.75-.54-17.3-2.3-26-3.14-9.06-.87-18.31-.42-27.41-.07-9.29.36-18.57.9-27.86,1.37-8.97.45-18,.52-26.92,1.42-8.91.9-17.72,2.35-26.66,3.14-8.51.75-16.68.4-25.13-.58-8.72-1.02-17.38-2.4-26.18-3-8.76-.6-105.28-.12-113.99.74-17.09,1.7-34.55,5.52-51.84,3.7-8.22-.87-16.24-2.6-24.43-3.59-9.19-1.12-17.9-.52-27.1.03-9.12.55-18.26-.32-27.41-.2-9.2.13-94.72.61-103.92.68-8.32.07-16.58-.55-24.89-.66-7.56-.1-15.12-.01-22.68-.12-9.64-.14-19.55-.53-29.01-2.25-7.67.77-15.35,1.5-23.05,2.12-5.21.42-10.43.8-15.65,1.12-5.16.32-10.37.72-15.55.74-10.13.04-71.25-2.25-81.25-3.18-2.51-.23-5.04-.38-7.57-.38-2.48,0-4.91.31-7.38.39-4.88.15-9.49,1.69-14.38,1.85-6.7.22-12.7-2.51-19.03-3.78-11.06,1.72-20.87,6.26-28.17,12.66-1.36,1.89-2.65,3.8-3.92,5.74.22,3.91.45,7.81.54,11.73.07,3.19.05,6.38-.16,9.56-.22,3.31-.78,6.56-1.28,9.85-1.94,12.89.11,25.86,1.58,38.71.73,6.41,1.35,12.85,1.26,19.3-.04,2.87-.22,5.67-.99,8.48-.75,2.72-1.87,5.36-3.05,7.98-1.13,2.51-2.33,5-3.27,7.56-.86,2.35-1.62,4.89-1.41,7.35.23,2.71,1.89,5.28,3.18,7.75,1.39,2.67,2.31,5.23,2.51,8.12.11,1.59.13,3.19.1,4.79,3.71,2.47,7.22,5.13,10.55,7.92,1.63,1.36,3.22,2.76,4.7,4.23,1.11,1.1,2.22,2.24,3.05,3.49.38.57.68,1.15.97,1.74,5.22,1.47,10.49,2.87,15.9,3.82,2.69.47,5.47.88,8.24.91,2.63.03,5.28-.64,7.71-1.36,5.14-1.53,9.94-3.72,15.19-5.03,5.83-1.45,11.97-1.29,18.01-1.14,13.41.33,78.04,1.72,91.42,2.36,3.17.15,6.36.14,9.51.52,3.16.38,6.26,1.04,9.35,1.68,3.26.67,6.54,1.32,9.9,1.6,3.3.27,6.52-.12,9.77-.6,5.91-.87,11.74-2.13,17.76-2.42,6.74-.32,13.63.63,20.36,1.01,14.15.81,28.49,1.73,42.68,1.57,14.23-.16,104.72-1.53,118.92-2.19,7.09-.33,14.2-.21,21.28-.56,6.95-.34,13.85-1.09,20.79-1.48,12.13-.67,24.25,1.04,36.06,3.12.47.08.93.18,1.39.26.41-.06.81-.13,1.22-.18,11.48-1.57,23.23-.59,34.75.11,5.79.35,99.4.66,105.21.58,5.81-.09,11.6-.67,17.4-.88,25.13-.91,50.28.51,75.4,1.11,6.27.15,12.31.11,18.53-.64,5.81-.71,11.61-1.92,17.51-1.98,6.38-.07,12.72.64,19.09.77,6.26.13,12.52.19,18.77.36,6.23.17,12.47.32,18.7.14,5.76-.17,11.59-.49,17.01-2.14,5-1.53,9.67-3.64,14.66-5.19,3.94-1.23,7.92-1.93,12-2.78,3.82-.79,6.85-2.28,9.22-4.82,1.57-1.69,2.67-3.44,3.35-5.47.65-1.96,1.07-3.96,1.86-5.89.74-1.8,1.86-3.39,3.2-4.88-.39-4.02-.82-8.04-1.25-12.05-.67-6.27-1.31-12.52-1.41-18.82Z"/>
            <path class="st1" d="M41.2,124.99c.36-8.91-.59-17.89-.84-26.84-.1-3.56-.07-7.12.19-10.67.13-1.83.33-3.66.6-5.48.23-1.59.91-3.11,1.56-4.59.68-1.56,1.41-3.1,2.01-4.69.6-1.59,1.21-3.32,1.13-5.01-.16-3.32-1.34-6.51-2-9.75-.61-2.95-.81-5.96.13-8.86.58-1.79,1.45-3.52,2.62-5.06,2.28-3.01,5.55-5.27,9.14-6.9,7.52-3.43,16.09-4.67,24.38-5.88-2.75-.75-5.49-1.6-8.28-2.15-11.06,1.72-20.87,6.26-28.17,12.66-1.36,1.89-2.65,3.8-3.92,5.74.22,3.91.45,7.81.54,11.73.07,3.19.05,6.38-.16,9.56-.22,3.31-.78,6.56-1.28,9.85-1.94,12.89.11,25.86,1.58,38.71.29,2.55.55,5.11.77,7.67Z"/>
            <path class="st1" d="M517.58,205.16c-4.21-.34-8.43-.74-12.56-1.56-4.49-.89-8.91-2-13.55-1.83-4.64.16-9.3.87-13.92,1.29-4.67.42-9.35.79-14.03,1.06-4.6.26-9.21.42-13.82.44-4.61.01-9.21-.25-13.82-.08-9.15.34-94.54,1.82-103.69,2.18-6.3.24-12.6-.42-18.89-.68-5.88-.24-11.8-.46-17.6-1.41-3.94-.64-9.1-1.63-11.47-4.87-1.62-2.23-2.02-4.91-1.89-7.62-1.76,4.94-4.89,10.1-11.3,10.15-4.33.03-8.34-.51-12.56.73-4.59,1.35-8.57,4.05-13.55,4.18-4.99.13-9.81-1.58-14.56-2.7-4.81-1.14-9.61-1.59-14.57-1.53-5.04.06-10.1.3-15.12-.3-5.29-.63-61.76-1.92-66.94-3.05-5.16-1.12-10.33-1.89-15.6-2.42-3.29-.33-6.69-.62-9.94.14-3.73.88-7.01,2.84-10.36,4.49-4.07,2-8.6,3.18-13.22,3.54-9.57.75-20.03-1.89-27.93-6.79-3.34-2.07-6.26-4.62-8.49-7.69-1.15-1.59-2.11-3.28-2.97-5.01-.61-1.23-1.5-2.67-1.7-3.99-.27-1.73,0-3.44-.66-5.14-.78-2.02-2.11-3.9-3.35-5.7-2.04-2.95-4.2-5.86-5.6-9.09-.66,1.98-1.14,4.06-.97,6.09.23,2.71,1.89,5.28,3.18,7.75,1.39,2.67,2.31,5.23,2.51,8.12.11,1.59.13,3.19.1,4.79,3.71,2.47,7.22,5.13,10.55,7.92,1.63,1.36,3.22,2.76,4.7,4.23,1.11,1.1,2.22,2.24,3.05,3.49.38.57.68,1.15.97,1.74,5.22,1.47,10.49,2.87,15.9,3.82,2.69.47,5.47.88,8.24.91,2.63.03,5.28-.64,7.71-1.36,5.14-1.53,9.94-3.72,15.19-5.03,5.83-1.45,11.97-1.29,18.01-1.14,13.41.33,78.04,1.72,91.42,2.36,3.17.15,6.36.14,9.51.52,3.16.38,6.26,1.04,9.35,1.68,3.26.67,6.54,1.32,9.9,1.6,3.3.27,6.52-.12,9.77-.6,5.91-.87,11.74-2.13,17.76-2.42,6.74-.32,13.63.63,20.36,1.01,14.15.81,28.49,1.73,42.68,1.57,14.23-.16,104.72-1.53,118.92-2.19,7.09-.33,14.2-.21,21.28-.56,6.95-.34,13.85-1.09,20.79-1.48,12.13-.67,24.25,1.04,36.06,3.12.47.08.93.18,1.39.26.41-.06.81-.13,1.22-.19,1.15-.16,2.3-.27,3.45-.38-6.3-1.47-12.91-1.87-19.38-2.4Z"/>
            <path class="st1" d="M217.66,36.14c11.33-.63,22.58-1.9,33.95-2.12,5.94-.12,11.79.11,17.68.78,5.81.66,11.59,1.55,17.42,2.03,5.74.47,11.36.3,17.07-.31,5.91-.63,11.79-1.47,17.76-1.51.37,0,.64.27.65.59.53,8.72-.39,17.44-.55,26.16,4.08-6.4,1.26-14.88,6.01-21.17,1.68-2.22,3.81-3.24,6.8-3.08,4.45.23,8.74.8,13.23.59,10.1-.48,96.36-2.97,106.54-2.53,4.99.22,9.82,1,14.85.84,4.82-.16,9.62-.69,14.44-.79,4.71-.1,9.28.36,13.88,1.21,4.86.89,9.52,2.49,14.38,3.37,5.02.9,9.97.73,14.94-.28,4.65-.94,9.28-1.4,13.99-2.02,10.19-1.35,20.23-3.37,30.22-5.63-1.32.11-2.64.23-3.96.36-17.09,1.7-34.55,5.52-51.84,3.7-8.22-.87-16.24-2.6-24.43-3.59-9.19-1.12-17.9-.52-27.1.03-9.12.55-18.26-.32-27.41-.2-9.2.13-94.72.61-103.92.68-8.32.07-16.58-.55-24.89-.66-7.56-.1-15.12-.01-22.68-.12-9.64-.14-19.55-.53-29.01-2.25-7.67.77-15.35,1.5-23.05,2.12-5.21.42-10.43.8-15.65,1.12-5.16.32-10.37.72-15.55.74-3.75.01-58.76-.29-62.44-.73,8.95,1.87,69.47,3.2,78.66,2.69Z"/>
            <path class="st1" d="M918.95,164.27c-.67-6.27-1.31-12.52-1.41-18.82-.09-6.22.03-12.44-.14-18.66-.18-6.45-.76-12.84-1.98-19.22-1-5.2-1.72-10.48-1.71-15.74,0-5.17.79-10.31,1.87-15.41.61-2.89,1.19-5.7,1.08-8.64-.1-2.67-.61-5.31-1.34-7.92-1.7-6.06-4.49-11.96-6.27-17.99-4.96-4.38-11.1-7.9-18-10.25-7.94.91-15.9,1.61-23.94,1.11-8.75-.54-17.3-2.3-26-3.14-9.06-.87-18.31-.42-27.41-.06-.27.01-.54.02-.81.03,4.77.16,9.52.45,14.26.98,7.72.86,15.59,2.18,22.93,4.52,3.63,1.16,6.94,3.02,10.65,3.98,2.38.62,4.92.08,7.28-.4,2.7-.56,5.37-1.27,8.09-1.71,1.98-.32,4.32-.66,6.19.19,2.46,1.11,1.89,3.88,1.17,5.81-1.3,3.49-3.54,6.71-5.75,9.79-.46.64-.94,1.28-1.41,1.91.33-.35.65-.7.99-1.05,2.37-2.45,4.8-4.85,7.39-7.11,2.13-1.86,4.38-3.68,6.92-5.09,1.66-.92,3.73-1.85,5.74-1.52,2.39.39,3.76,2.69,4.75,4.47,1.73,3.11,2.95,6.46,4.06,9.78.51,1.51.98,3.03,1.43,4.56.46,1.57,1.01,3.13,1.38,4.72,1.23,5.37.16,10.82-.67,16.17-.43,2.77-.76,5.56-.73,8.36.03,2.45.33,4.87.7,7.29.79,5.13,1.3,10.26,1.86,15.41.59,5.38,1.16,10.77,1.13,16.18-.01,2.75-.18,5.5-.56,8.23-.38,2.73-1.03,5.41-1.65,8.1-.53,2.32-1.21,4.64-1.33,7.01-.12,2.45.39,4.97,1.61,7.16,1.79,3.2,5.23,6.45,4.47,10.31-.58,2.93-3.52,5.72-6.82,6.23-2.83.44-5.7-.41-8.25-1.44-3.31-1.33-6.37-3.14-9.34-4.97-3.09-1.91-6.09-3.92-9.2-5.8-1.35-.81-2.76-1.67-4.24-2.38.96.79,1.91,1.57,2.87,2.36,6.9,5.65,13.77,11.38,21.44,16.17,2.13,1.33,4.51,2.79,5.32,5.13.82,2.33,0,5.07-1.29,7.14-2.67,4.3-7.9,6.78-12.86,8.42-5.66,1.88-11.66,2.86-17.63,3.58-7.15.86-14.33,1.46-21.54,1.42-9.62-.05-19.21-.88-28.82-1.13-4.82-.13-9.65-.11-14.45.23-4.76.34-9.41,1.26-14.05,2.28-4.43.97-8.84,2.02-13.32,2.76-2.24.37-4.5.67-6.78.85-2.5.2-5,.14-7.51.13-3.61,0-7.23-.02-10.84-.03,3.27.1,6.53.19,9.8.27,6.27.15,12.31.11,18.53-.64,5.81-.71,11.61-1.92,17.51-1.98,6.38-.07,12.72.64,19.09.77,6.26.13,12.52.19,18.77.36,6.23.17,12.47.32,18.7.14,5.76-.17,11.59-.49,17.01-2.15,5-1.53,9.67-3.64,14.66-5.19,3.94-1.23,7.92-1.93,12-2.78,3.82-.79,6.85-2.28,9.22-4.82,1.57-1.69,2.67-3.44,3.35-5.47.65-1.96,1.07-3.96,1.86-5.89.74-1.8,1.86-3.39,3.2-4.88-.39-4.02-.82-8.04-1.25-12.05Z"/>
            <g class="st7">
              <path class="st2" d="M866.83,161.66c-1.3-1.58-3.34-2.6-5.46-2.98-5.38-.98-11.79.44-14.58,5.06-.96,1.6-1.44,3.33-1.44,5.07-.33.96-.51,1.96-.46,2.95.12,2.45,1.35,4.57,3.62,5.97,8.44,5.23,19.26-3,19.82-10.98.13-1.77-.3-3.65-1.49-5.09Z"/>
              <path class="st2" d="M896.17,170.42c-.49-1.33-1.42-2.32-2.6-3.21-.39-.3-.82-.56-1.28-.77-.63-.29-1.31-.6-2.01-.74-.99-.19-1.92-.25-2.91-.04-1.72.35-3.17,1.29-4.16,2.59-.05.07-.1.14-.14.22-.19.32-.4.66-.51,1.01-.15.44-.26.92-.28,1.38-.02.36.02.73.06,1.09-.06.3-.12.6-.14.9-.05.7.03,1.48.31,2.14.37.87.85,1.55,1.69,2.12.87.59,2.02.83,3.09.87,1.39.06,2.75-.28,4.05-.7,1.2-.39,2.28-1.06,3.19-1.85,1.41-1.23,2.3-3.26,1.65-5Z"/>
              <path class="st2" d="M895.78,135.88c-.53-2.59-2.92-4.62-5.76-5.15-3.48-.65-7.09.21-9.66,2.43-1.23,1.06-2.13,2.59-2.22,4.14-.04.69.09,1.35.31,2-.18,2.28,1.07,4.7,3.34,5.75,3.18,1.48,6.75,1.06,9.76-.55,3.3-1.77,4.93-5.27,4.24-8.62Z"/>
              <path class="st2" d="M820.67,153.23c-.05-.17-.15-.3-.31-.4-.18-.2-.42-.33-.71-.39-.06-.02-.13-.03-.2-.04-.23-.04-.46-.06-.69-.09-.03,0-.06,0-.09,0-.32-.03-.67.03-.96.06-.04,0-.07,0-.11.02-.27.07-.55.14-.81.24-.77.29-1.52.84-1.95,1.47-.21.27-.33.56-.38.88-.1.28-.1.57-.01.86l.26.5c.18.25.42.41.72.51.19.11.39.16.62.16.31.06.63.05.94,0,.07.03.14.06.21.09.25.07.51.08.76.04.19,0,.37-.03.55-.1.3-.07.57-.19.82-.36.16-.12.31-.24.47-.36.12-.14.24-.27.36-.41.14-.18.22-.38.26-.59,0,.02,0,.04-.01.06.03-.12.07-.23.11-.35.02-.04.04-.08.05-.12.01-.04.02-.08.03-.12.03-.1.07-.19.11-.28.04-.18.08-.35.12-.53.04-.27-.02-.51-.16-.73Z"/>
              <g>
                <path class="st2" d="M808.78,181.23c-.05-.09-.09-.18-.14-.28-.1-.19-.11-.24-.14-.28,1.78,1.58-.4-.37-.49-.43,0,0-.64-.27-.64-.27-.01,0-.03,0-.04,0,0,0-.02,0-.03,0-.13-.03-.23-.03-.39-.05-.13-.02-.26-.03-.38-.05-.44-.01-.86.05-1.26.2-.14.04-.29.08-.43.12-.28.14-.56.28-.84.43-.27.16-.52.36-.74.57-.09.08-.18.17-.27.25-.06.05-.11.1-.17.16-.1.1-.18.21-.27.31-.16.11-.32.22-.45.35-.14.14-.28.31-.4.47-.02.02-.03.04-.05.07-.06.09-.1.17-.15.28-.15.27-.24.45-.26.79-.01.19.03.41.07.61.1.33.3.6.62.79.33.19.7.29,1.1.29.47-.04.93-.09,1.4-.16.29-.04.56-.14.84-.22h.04c.07-.03.79-.24.86-.26.62-.22.78-.38,1.21-.71.12-.09.24-.19.37-.28.25-.21.43-.46.59-.73,0,0,0,0,0,0,0,0,0-.02.01-.02.04-.07.09-.14.13-.22.21-.39.14-.22.18-.35,0,0,0-.01,0-.02,0-.01,0-.03.01-.04h0s.15-.66.15-.66c-.02-.21-.04-.42-.06-.63,0,0,0,0,0,0Z"/>
                <path class="st2" d="M808.78,181.23c1.3,2.56-.02-.08,0,0h0Z"/>
              </g>
            </g>
            <path class="st1" d="M89.44,134.67c-4.32.96-8.39-.02-12.48-1.32-1.87-.6-3.72-1.2-5.63-1.7-1.12-.29-2.2-.43-3.29-.49.11-.09.24-.16.35-.24,3.39-2.71,5.14-6.21,6.44-10.05,1.32-3.9,1.95-8.07,3.8-11.8.43-.86-1.17-.8-1.52-.2-2.16,3.67-3.61,7.49-5.12,11.39-1.32,3.41-3.03,7.33-6.21,9.7-1.97,1.47-4.46,2.45-6.69,3.58-2.5,1.27-4.97,2.59-7.38,4-2.39,1.4-4.72,2.88-6.96,4.48-2.18,1.56-4.71,3.23-6.33,5.29-.9,1.14.83,1.72,1.77,1.1,2.39-1.59,4.43-3.65,6.8-5.3,2.26-1.57,4.61-3.04,7.02-4.42,2.62-1.5,5.31-2.93,8.05-4.26.43-.21.86-.41,1.29-.61.02,0,.02.02.04.02,2.02.39,3.97,1.1,6,1.55,2.18.48,4.33.97,6.55,1.29,4.64.67,9.17.27,13.59-1.18.49-.16.6-.96-.08-.81Z"/>
            <path class="st1" d="M752.43,32.22c-2.42,1.84-4.47,4.07-6.71,6.09-2.01,1.81-4.07,3.56-6.06,5.39-.76.11-1.55.56-1.72,1.25-.04.15-.06.31-.09.46-3.78,3.62-7.32,7.37-10.62,11.36-.64.77.75,1.13,1.28.54,2.67-2.96,5.78-5.6,8.98-8.13,0,2.1.29,4.2.6,6.27.55,3.68,1.45,7.35,1.64,11.07.05,1.09,1.89.49,1.93-.37.13-3.6-.37-7.19-.73-10.77-.29-2.83-.64-5.88-.16-8.75.38-.29.76-.59,1.14-.88,2.35-1.8,4.62-3.68,6.87-5.57,2.28-1.92,4.79-3.83,6.53-6.18,1.34-1.81-1.35-2.93-2.87-1.78Z"/>
          </g>
          <path class="st1" d="M721.67,207.77c-12.51-.77-25.1.17-37.62.36-6.01.09-11.99-.13-17.98-.48-6.04-.36-97.56-.7-103.61-.59-3.36.06-6.73.15-10.09.04-3.44-.11-7.16-.12-10.45-1.09-.54-.16-1.29.7-.62.92,2.7.86,5.29,1.9,8.12,2.36,2.86.46,5.74.72,8.63.92,5.97.42,97.41,1.09,103.37,1.59,6.25.53,12.29-.1,18.44-1.15,6.38-1.1,12.97-1.07,19.43-1.11,7.25-.05,14.56.23,21.8-.2.89-.05,1.9-1.48.58-1.56Z"/>
        </g>
        <g>
          <path class="st2" d="M172.08,173.93c-10.24,0-18.99-2.02-26.26-6.06s-12.86-9.72-16.77-17.04c-3.91-7.32-5.86-15.96-5.86-25.93,0-7.45,1.1-14.16,3.3-20.13,2.2-5.97,5.41-11.09,9.63-15.35,4.22-4.26,9.36-7.56,15.42-9.9,6.06-2.33,12.91-3.5,20.54-3.5,4.49,0,9.04.56,13.67,1.68,4.62,1.12,8.64,2.72,12.05,4.78,2.24,1.26,3.77,2.83,4.58,4.71.81,1.89,1.05,3.77.74,5.66-.32,1.89-1.08,3.5-2.29,4.85-1.21,1.35-2.72,2.2-4.51,2.56-1.8.36-3.82-.04-6.06-1.21-2.69-1.62-5.52-2.78-8.48-3.5-2.96-.72-5.97-1.08-9.02-1.08-6.02,0-11.07,1.19-15.15,3.57-4.09,2.38-7.16,5.81-9.23,10.3-2.07,4.49-3.1,10.01-3.1,16.56s1.03,11.99,3.1,16.57c2.06,4.58,5.14,8.06,9.23,10.44,4.08,2.38,9.13,3.57,15.15,3.57,2.87,0,5.81-.36,8.82-1.08,3.01-.72,5.9-1.84,8.69-3.37,2.33-1.17,4.42-1.59,6.26-1.28,1.84.32,3.37,1.12,4.58,2.42,1.21,1.3,1.97,2.85,2.29,4.65.31,1.8.11,3.59-.61,5.39-.72,1.8-2.07,3.32-4.04,4.58-3.32,2.25-7.41,4-12.26,5.25-4.85,1.26-9.65,1.89-14.41,1.89Z"/>
          <path class="st2" d="M243.46,173.93c-7.09,0-13.27-1.39-18.52-4.17s-9.32-6.78-12.19-11.99c-2.87-5.21-4.31-11.36-4.31-18.45,0-5.3.81-10.05,2.42-14.28,1.62-4.22,3.97-7.83,7.07-10.84,3.1-3.01,6.8-5.3,11.11-6.87,4.31-1.57,9.11-2.36,14.41-2.36,7.09,0,13.27,1.39,18.52,4.17,5.25,2.78,9.34,6.73,12.26,11.85,2.92,5.12,4.38,11.22,4.38,18.32,0,5.39-.83,10.19-2.49,14.41-1.66,4.22-4.02,7.86-7.07,10.91-3.05,3.05-6.76,5.37-11.11,6.94-4.36,1.57-9.18,2.36-14.48,2.36ZM243.46,158.71c2.96,0,5.52-.72,7.68-2.15,2.15-1.44,3.86-3.57,5.12-6.4,1.26-2.83,1.89-6.44,1.89-10.84,0-6.55-1.35-11.38-4.04-14.48-2.69-3.1-6.24-4.65-10.64-4.65-2.87,0-5.41.67-7.61,2.02-2.2,1.35-3.91,3.43-5.12,6.26-1.21,2.83-1.82,6.44-1.82,10.84,0,6.55,1.35,11.43,4.04,14.61,2.69,3.19,6.2,4.78,10.5,4.78Z"/>
          <path class="st2" d="M316.72,173.93c-5.75,0-10.8-1.39-15.15-4.17-4.36-2.78-7.74-6.78-10.17-11.99-2.42-5.21-3.64-11.36-3.64-18.45s1.21-13.2,3.64-18.32c2.42-5.12,5.81-9.07,10.17-11.85,4.35-2.78,9.4-4.17,15.15-4.17,5.21,0,9.81,1.26,13.8,3.77,3.99,2.51,6.71,5.79,8.15,9.83h-1.48v-31.92c0-3.41.85-5.99,2.56-7.74,1.7-1.75,4.22-2.63,7.54-2.63s5.75.88,7.54,2.63c1.79,1.75,2.69,4.33,2.69,7.74v76.63c0,3.32-.88,5.88-2.63,7.68s-4.24,2.69-7.47,2.69-5.72-.9-7.47-2.69c-1.75-1.79-2.63-4.35-2.63-7.68v-9.16l1.48,5.25c-1.26,4.4-3.93,7.92-8.01,10.57-4.09,2.65-8.78,3.97-14.07,3.97ZM322.78,158.71c2.96,0,5.52-.72,7.68-2.15,2.15-1.44,3.86-3.57,5.12-6.4,1.26-2.83,1.89-6.44,1.89-10.84,0-6.55-1.35-11.38-4.04-14.48-2.69-3.1-6.24-4.65-10.64-4.65-2.87,0-5.41.67-7.61,2.02-2.2,1.35-3.91,3.43-5.12,6.26-1.21,2.83-1.82,6.44-1.82,10.84,0,6.55,1.35,11.43,4.04,14.61,2.69,3.19,6.2,4.78,10.5,4.78Z"/>
          <path class="st2" d="M407.5,173.93c-7.81,0-14.52-1.41-20.13-4.24-5.61-2.83-9.92-6.82-12.93-11.99-3.01-5.16-4.51-11.25-4.51-18.25s1.44-12.82,4.31-17.98c2.87-5.16,6.89-9.2,12.05-12.12,5.16-2.92,11.02-4.38,17.58-4.38,4.76,0,9.07.79,12.93,2.36,3.86,1.57,7.18,3.82,9.97,6.73,2.78,2.92,4.89,6.46,6.33,10.64,1.44,4.17,2.16,8.82,2.16,13.94,0,1.71-.54,2.99-1.62,3.84-1.08.85-2.65,1.28-4.71,1.28h-42.29v-10.5h33.94l-2.15,1.88c0-3.68-.54-6.75-1.62-9.22-1.08-2.47-2.63-4.33-4.65-5.59-2.02-1.26-4.51-1.89-7.47-1.89-3.32,0-6.15.76-8.48,2.29-2.34,1.53-4.13,3.73-5.39,6.6-1.26,2.87-1.89,6.33-1.89,10.37v1.08c0,6.82,1.59,11.85,4.78,15.08,3.19,3.23,7.92,4.85,14.21,4.85,2.15,0,4.62-.27,7.41-.81,2.78-.54,5.39-1.39,7.81-2.56,2.06-.99,3.91-1.32,5.52-1.01,1.62.32,2.87,1.06,3.77,2.22.9,1.17,1.41,2.51,1.55,4.04.13,1.53-.2,3.03-1.01,4.51s-2.15,2.72-4.04,3.7c-3.05,1.71-6.49,2.99-10.3,3.84-3.82.85-7.52,1.28-11.11,1.28Z"/>
          <path class="st2" d="M525.88,173.66c-2.87,0-5.23-.65-7.07-1.95-1.84-1.3-3.35-3.3-4.51-5.99l-33.94-75.42c-1.26-2.69-1.62-5.09-1.08-7.21.54-2.11,1.66-3.77,3.37-4.98,1.7-1.21,3.77-1.82,6.2-1.82,3.05,0,5.39.7,7,2.09,1.62,1.39,2.96,3.43,4.04,6.13l29.76,68.82h-6.73l29.76-68.95c1.17-2.69,2.56-4.71,4.17-6.06s3.86-2.02,6.73-2.02c2.42,0,4.42.61,5.99,1.82,1.57,1.21,2.56,2.88,2.96,4.98.4,2.11.02,4.51-1.14,7.21l-33.94,75.42c-1.26,2.69-2.76,4.69-4.51,5.99-1.75,1.3-4.11,1.95-7.07,1.95Z"/>
          <path class="st2" d="M608.16,173.93c-7.81,0-14.52-1.41-20.13-4.24-5.61-2.83-9.92-6.82-12.93-11.99-3.01-5.16-4.51-11.25-4.51-18.25s1.43-12.82,4.31-17.98c2.87-5.16,6.89-9.2,12.05-12.12,5.16-2.92,11.02-4.38,17.58-4.38,4.76,0,9.07.79,12.93,2.36,3.86,1.57,7.18,3.82,9.97,6.73,2.78,2.92,4.89,6.46,6.33,10.64,1.44,4.17,2.16,8.82,2.16,13.94,0,1.71-.54,2.99-1.62,3.84-1.08.85-2.65,1.28-4.71,1.28h-42.29v-10.5h33.94l-2.15,1.88c0-3.68-.54-6.75-1.62-9.22-1.08-2.47-2.63-4.33-4.65-5.59-2.02-1.26-4.51-1.89-7.47-1.89-3.32,0-6.15.76-8.48,2.29-2.34,1.53-4.13,3.73-5.39,6.6-1.26,2.87-1.88,6.33-1.88,10.37v1.08c0,6.82,1.59,11.85,4.78,15.08,3.19,3.23,7.92,4.85,14.21,4.85,2.15,0,4.62-.27,7.41-.81,2.78-.54,5.39-1.39,7.81-2.56,2.06-.99,3.91-1.32,5.52-1.01,1.62.32,2.87,1.06,3.77,2.22.9,1.17,1.41,2.51,1.55,4.04.13,1.53-.2,3.03-1.01,4.51-.81,1.48-2.16,2.72-4.04,3.7-3.05,1.71-6.49,2.99-10.3,3.84-3.82.85-7.52,1.28-11.11,1.28Z"/>
          <path class="st2" d="M658.26,173.66c-3.41,0-6.02-.9-7.81-2.69-1.8-1.79-2.69-4.35-2.69-7.68v-47.81c0-3.32.88-5.86,2.63-7.61s4.2-2.63,7.34-2.63,5.7.88,7.41,2.63c1.7,1.75,2.56,4.29,2.56,7.61v7h-1.35c1.08-5.39,3.46-9.56,7.14-12.52,3.68-2.96,8.44-4.62,14.28-4.98,2.24-.18,3.97.38,5.18,1.68,1.21,1.3,1.86,3.43,1.95,6.4.18,2.78-.38,4.98-1.68,6.6-1.3,1.62-3.48,2.61-6.53,2.96l-3.1.27c-5.12.45-8.91,1.93-11.38,4.44-2.47,2.51-3.7,6.15-3.7,10.91v25.05c0,3.32-.88,5.88-2.63,7.68-1.75,1.79-4.29,2.69-7.61,2.69Z"/>
          <path class="st2" d="M727.89,173.93c-3.95,0-8.01-.36-12.19-1.08-4.17-.72-7.97-1.93-11.38-3.64-1.8-.9-3.08-2.04-3.84-3.43-.76-1.39-1.1-2.81-1.01-4.24.09-1.43.56-2.74,1.41-3.91.85-1.17,1.97-1.95,3.37-2.36,1.39-.4,2.94-.25,4.65.47,3.68,1.53,7.05,2.61,10.1,3.23,3.05.63,6.06.94,9.02.94,3.86,0,6.67-.61,8.42-1.82s2.63-2.81,2.63-4.78c0-1.79-.58-3.14-1.75-4.04-1.17-.9-2.88-1.53-5.12-1.89l-14.14-2.56c-5.57-.99-9.85-3.03-12.86-6.13-3.01-3.1-4.51-7.07-4.51-11.92,0-4.49,1.26-8.37,3.77-11.65,2.51-3.28,5.99-5.79,10.44-7.54s9.5-2.63,15.15-2.63c4.04,0,7.76.36,11.18,1.08,3.41.72,6.69,1.89,9.83,3.5,1.62.81,2.76,1.89,3.43,3.23.67,1.35.9,2.74.67,4.17-.22,1.44-.79,2.74-1.68,3.91-.9,1.17-2.04,1.93-3.43,2.29-1.39.36-2.99.18-4.78-.54-2.87-1.35-5.52-2.31-7.95-2.9-2.42-.58-4.76-.88-7-.88-4.04,0-6.96.65-8.75,1.95-1.8,1.3-2.69,2.94-2.69,4.92,0,1.53.52,2.81,1.55,3.84,1.03,1.03,2.63,1.73,4.78,2.09l14.14,2.56c5.84.99,10.28,2.94,13.33,5.86,3.05,2.92,4.58,6.89,4.58,11.92,0,6.82-2.67,12.19-8.01,16.09-5.34,3.91-12.46,5.86-21.35,5.86Z"/>
          <path class="st2" d="M803.17,173.93c-7.81,0-14.52-1.41-20.13-4.24-5.61-2.83-9.92-6.82-12.93-11.99-3.01-5.16-4.51-11.25-4.51-18.25s1.43-12.82,4.31-17.98c2.87-5.16,6.89-9.2,12.05-12.12,5.16-2.92,11.02-4.38,17.58-4.38,4.76,0,9.07.79,12.93,2.36,3.86,1.57,7.18,3.82,9.97,6.73,2.78,2.92,4.89,6.46,6.33,10.64,1.43,4.17,2.15,8.82,2.15,13.94,0,1.71-.54,2.99-1.62,3.84-1.08.85-2.65,1.28-4.71,1.28h-42.29v-10.5h33.94l-2.15,1.88c0-3.68-.54-6.75-1.62-9.22-1.08-2.47-2.63-4.33-4.65-5.59-2.02-1.26-4.51-1.89-7.47-1.89-3.32,0-6.15.76-8.48,2.29-2.34,1.53-4.13,3.73-5.39,6.6-1.26,2.87-1.89,6.33-1.89,10.37v1.08c0,6.82,1.59,11.85,4.78,15.08,3.19,3.23,7.92,4.85,14.21,4.85,2.15,0,4.62-.27,7.41-.81,2.78-.54,5.39-1.39,7.81-2.56,2.06-.99,3.91-1.32,5.52-1.01,1.62.32,2.87,1.06,3.77,2.22.9,1.17,1.41,2.51,1.55,4.04.13,1.53-.2,3.03-1.01,4.51-.81,1.48-2.16,2.72-4.04,3.7-3.05,1.71-6.49,2.99-10.3,3.84-3.82.85-7.52,1.28-11.11,1.28Z"/>
        </g>
        <g>
          <path class="st4" d="M162.3,164.14c-10.24,0-18.99-2.02-26.26-6.06s-12.86-9.72-16.77-17.04c-3.91-7.32-5.86-15.96-5.86-25.93,0-7.45,1.1-14.16,3.3-20.13,2.2-5.97,5.41-11.09,9.63-15.35,4.22-4.26,9.36-7.56,15.42-9.9,6.06-2.33,12.91-3.5,20.54-3.5,4.49,0,9.04.56,13.67,1.68,4.62,1.12,8.64,2.72,12.05,4.78,2.24,1.26,3.77,2.83,4.58,4.71.81,1.89,1.05,3.77.74,5.66-.32,1.89-1.08,3.5-2.29,4.85-1.21,1.35-2.72,2.2-4.51,2.56-1.8.36-3.82-.04-6.06-1.21-2.69-1.62-5.52-2.78-8.48-3.5-2.96-.72-5.97-1.08-9.02-1.08-6.02,0-11.07,1.19-15.15,3.57-4.09,2.38-7.16,5.81-9.23,10.3-2.07,4.49-3.1,10.01-3.1,16.56s1.03,11.99,3.1,16.56c2.06,4.58,5.14,8.06,9.23,10.44,4.08,2.38,9.13,3.57,15.15,3.57,2.87,0,5.81-.36,8.82-1.08,3.01-.72,5.9-1.84,8.69-3.37,2.33-1.17,4.42-1.59,6.26-1.28,1.84.32,3.37,1.12,4.58,2.42,1.21,1.3,1.97,2.85,2.29,4.65.31,1.8.11,3.59-.61,5.39-.72,1.8-2.07,3.32-4.04,4.58-3.32,2.25-7.41,4-12.26,5.25-4.85,1.26-9.65,1.89-14.41,1.89Z"/>
          <path class="st4" d="M233.68,164.14c-7.09,0-13.27-1.39-18.52-4.17s-9.32-6.78-12.19-11.99c-2.87-5.21-4.31-11.36-4.31-18.45,0-5.3.81-10.05,2.42-14.28,1.62-4.22,3.97-7.83,7.07-10.84,3.1-3.01,6.8-5.3,11.11-6.87,4.31-1.57,9.11-2.36,14.41-2.36,7.09,0,13.27,1.39,18.52,4.17,5.25,2.78,9.34,6.73,12.26,11.85,2.92,5.12,4.38,11.22,4.38,18.32,0,5.39-.83,10.19-2.49,14.41-1.66,4.22-4.02,7.86-7.07,10.91-3.05,3.05-6.76,5.37-11.11,6.94-4.36,1.57-9.18,2.36-14.48,2.36ZM233.68,148.92c2.96,0,5.52-.72,7.68-2.15,2.15-1.44,3.86-3.57,5.12-6.4,1.26-2.83,1.89-6.44,1.89-10.84,0-6.55-1.35-11.38-4.04-14.48-2.69-3.1-6.24-4.65-10.64-4.65-2.87,0-5.41.67-7.61,2.02-2.2,1.35-3.91,3.43-5.12,6.26-1.21,2.83-1.82,6.44-1.82,10.84,0,6.55,1.35,11.43,4.04,14.61,2.69,3.19,6.2,4.78,10.5,4.78Z"/>
          <path class="st4" d="M306.94,164.14c-5.75,0-10.8-1.39-15.15-4.17-4.36-2.78-7.74-6.78-10.17-11.99-2.42-5.21-3.64-11.36-3.64-18.45s1.21-13.2,3.64-18.32c2.42-5.12,5.81-9.07,10.17-11.85,4.35-2.78,9.4-4.17,15.15-4.17,5.21,0,9.81,1.26,13.8,3.77,3.99,2.51,6.71,5.79,8.15,9.83h-1.48v-31.92c0-3.41.85-5.99,2.56-7.74,1.7-1.75,4.22-2.63,7.54-2.63s5.75.88,7.54,2.63c1.79,1.75,2.69,4.33,2.69,7.74v76.63c0,3.32-.88,5.88-2.63,7.68s-4.24,2.69-7.47,2.69-5.72-.9-7.47-2.69c-1.75-1.79-2.63-4.35-2.63-7.68v-9.16l1.48,5.25c-1.26,4.4-3.93,7.92-8.01,10.57-4.09,2.65-8.78,3.97-14.07,3.97ZM313,148.92c2.96,0,5.52-.72,7.68-2.15,2.15-1.44,3.86-3.57,5.12-6.4,1.26-2.83,1.89-6.44,1.89-10.84,0-6.55-1.35-11.38-4.04-14.48-2.69-3.1-6.24-4.65-10.64-4.65-2.87,0-5.41.67-7.61,2.02-2.2,1.35-3.91,3.43-5.12,6.26-1.21,2.83-1.82,6.44-1.82,10.84,0,6.55,1.35,11.43,4.04,14.61,2.69,3.19,6.2,4.78,10.5,4.78Z"/>
          <path class="st4" d="M397.71,164.14c-7.81,0-14.52-1.41-20.13-4.24-5.61-2.83-9.92-6.82-12.93-11.99-3.01-5.16-4.51-11.25-4.51-18.25s1.44-12.81,4.31-17.98c2.87-5.16,6.89-9.2,12.05-12.12,5.16-2.92,11.02-4.38,17.58-4.38,4.76,0,9.07.79,12.93,2.36,3.86,1.57,7.18,3.82,9.97,6.73,2.78,2.92,4.89,6.46,6.33,10.64,1.44,4.17,2.16,8.82,2.16,13.94,0,1.71-.54,2.99-1.62,3.84-1.08.85-2.65,1.28-4.71,1.28h-42.29v-10.5h33.94l-2.15,1.88c0-3.68-.54-6.75-1.62-9.22-1.08-2.47-2.63-4.33-4.65-5.59-2.02-1.26-4.51-1.89-7.47-1.89-3.32,0-6.15.76-8.48,2.29-2.34,1.53-4.13,3.73-5.39,6.6-1.26,2.87-1.89,6.33-1.89,10.37v1.08c0,6.82,1.59,11.85,4.78,15.08,3.19,3.23,7.92,4.85,14.21,4.85,2.15,0,4.62-.27,7.41-.81,2.78-.54,5.39-1.39,7.81-2.56,2.06-.99,3.91-1.32,5.52-1.01,1.62.32,2.87,1.06,3.77,2.22.9,1.17,1.41,2.51,1.55,4.04.13,1.53-.2,3.03-1.01,4.51s-2.15,2.72-4.04,3.7c-3.05,1.71-6.49,2.99-10.3,3.84-3.82.85-7.52,1.28-11.11,1.28Z"/>
          <path class="st4" d="M516.09,163.87c-2.87,0-5.23-.65-7.07-1.95-1.84-1.3-3.35-3.3-4.51-5.99l-33.94-75.42c-1.26-2.69-1.62-5.09-1.08-7.21.54-2.11,1.66-3.77,3.37-4.98,1.7-1.21,3.77-1.82,6.2-1.82,3.05,0,5.39.7,7,2.09,1.62,1.39,2.96,3.43,4.04,6.13l29.76,68.82h-6.73l29.76-68.95c1.17-2.69,2.56-4.71,4.17-6.06s3.86-2.02,6.73-2.02c2.42,0,4.42.61,5.99,1.82,1.57,1.21,2.56,2.88,2.96,4.98.4,2.11.02,4.51-1.14,7.21l-33.94,75.42c-1.26,2.69-2.76,4.69-4.51,5.99-1.75,1.3-4.11,1.95-7.07,1.95Z"/>
          <path class="st4" d="M598.38,164.14c-7.81,0-14.52-1.41-20.13-4.24-5.61-2.83-9.92-6.82-12.93-11.99-3.01-5.16-4.51-11.25-4.51-18.25s1.43-12.81,4.31-17.98c2.87-5.16,6.89-9.2,12.05-12.12,5.16-2.92,11.02-4.38,17.58-4.38,4.76,0,9.07.79,12.93,2.36,3.86,1.57,7.18,3.82,9.97,6.73,2.78,2.92,4.89,6.46,6.33,10.64,1.44,4.17,2.16,8.82,2.16,13.94,0,1.71-.54,2.99-1.62,3.84-1.08.85-2.65,1.28-4.71,1.28h-42.29v-10.5h33.94l-2.15,1.88c0-3.68-.54-6.75-1.62-9.22-1.08-2.47-2.63-4.33-4.65-5.59-2.02-1.26-4.51-1.89-7.47-1.89-3.32,0-6.15.76-8.48,2.29-2.34,1.53-4.13,3.73-5.39,6.6-1.26,2.87-1.88,6.33-1.88,10.37v1.08c0,6.82,1.59,11.85,4.78,15.08,3.19,3.23,7.92,4.85,14.21,4.85,2.15,0,4.62-.27,7.41-.81,2.78-.54,5.39-1.39,7.81-2.56,2.06-.99,3.91-1.32,5.52-1.01,1.62.32,2.87,1.06,3.77,2.22.9,1.17,1.41,2.51,1.55,4.04.13,1.53-.2,3.03-1.01,4.51-.81,1.48-2.16,2.72-4.04,3.7-3.05,1.71-6.49,2.99-10.3,3.84-3.82.85-7.52,1.28-11.11,1.28Z"/>
          <path class="st4" d="M648.48,163.87c-3.41,0-6.02-.9-7.81-2.69-1.8-1.79-2.69-4.35-2.69-7.68v-47.81c0-3.32.88-5.86,2.63-7.61s4.2-2.63,7.34-2.63,5.7.88,7.41,2.63c1.7,1.75,2.56,4.29,2.56,7.61v7h-1.35c1.08-5.39,3.46-9.56,7.14-12.52,3.68-2.96,8.44-4.62,14.28-4.98,2.24-.18,3.97.38,5.18,1.68,1.21,1.3,1.86,3.43,1.95,6.4.18,2.78-.38,4.98-1.68,6.6-1.3,1.62-3.48,2.61-6.53,2.96l-3.1.27c-5.12.45-8.91,1.93-11.38,4.44-2.47,2.51-3.7,6.15-3.7,10.91v25.05c0,3.32-.88,5.88-2.63,7.68-1.75,1.79-4.29,2.69-7.61,2.69Z"/>
          <path class="st4" d="M718.11,164.14c-3.95,0-8.01-.36-12.19-1.08-4.17-.72-7.97-1.93-11.38-3.64-1.8-.9-3.08-2.04-3.84-3.43-.76-1.39-1.1-2.81-1.01-4.24.09-1.43.56-2.74,1.41-3.91.85-1.17,1.97-1.95,3.37-2.36,1.39-.4,2.94-.25,4.65.47,3.68,1.53,7.05,2.61,10.1,3.23,3.05.63,6.06.94,9.02.94,3.86,0,6.67-.61,8.42-1.82s2.63-2.81,2.63-4.78c0-1.79-.58-3.14-1.75-4.04-1.17-.9-2.88-1.53-5.12-1.89l-14.14-2.56c-5.57-.99-9.85-3.03-12.86-6.13-3.01-3.1-4.51-7.07-4.51-11.92,0-4.49,1.26-8.37,3.77-11.65,2.51-3.28,5.99-5.79,10.44-7.54s9.5-2.63,15.15-2.63c4.04,0,7.76.36,11.18,1.08,3.41.72,6.69,1.89,9.83,3.5,1.62.81,2.76,1.89,3.43,3.23.67,1.35.9,2.74.67,4.17-.22,1.44-.79,2.74-1.68,3.91-.9,1.17-2.04,1.93-3.43,2.29-1.39.36-2.99.18-4.78-.54-2.87-1.35-5.52-2.31-7.95-2.9-2.42-.58-4.76-.88-7-.88-4.04,0-6.96.65-8.75,1.95-1.8,1.3-2.69,2.94-2.69,4.92,0,1.53.52,2.81,1.55,3.84,1.03,1.03,2.63,1.73,4.78,2.09l14.14,2.56c5.84.99,10.28,2.94,13.33,5.86,3.05,2.92,4.58,6.89,4.58,11.92,0,6.82-2.67,12.19-8.01,16.09-5.34,3.91-12.46,5.86-21.35,5.86Z"/>
          <path class="st4" d="M793.39,164.14c-7.81,0-14.52-1.41-20.13-4.24-5.61-2.83-9.92-6.82-12.93-11.99-3.01-5.16-4.51-11.25-4.51-18.25s1.43-12.81,4.31-17.98c2.87-5.16,6.89-9.2,12.05-12.12,5.16-2.92,11.02-4.38,17.58-4.38,4.76,0,9.07.79,12.93,2.36,3.86,1.57,7.18,3.82,9.97,6.73,2.78,2.92,4.89,6.46,6.33,10.64,1.43,4.17,2.15,8.82,2.15,13.94,0,1.71-.54,2.99-1.62,3.84-1.08.85-2.65,1.28-4.71,1.28h-42.29v-10.5h33.94l-2.15,1.88c0-3.68-.54-6.75-1.62-9.22-1.08-2.47-2.63-4.33-4.65-5.59-2.02-1.26-4.51-1.89-7.47-1.89-3.32,0-6.15.76-8.48,2.29-2.34,1.53-4.13,3.73-5.39,6.6-1.26,2.87-1.89,6.33-1.89,10.37v1.08c0,6.82,1.59,11.85,4.78,15.08,3.19,3.23,7.92,4.85,14.21,4.85,2.15,0,4.62-.27,7.41-.81,2.78-.54,5.39-1.39,7.81-2.56,2.06-.99,3.91-1.32,5.52-1.01,1.62.32,2.87,1.06,3.77,2.22.9,1.17,1.41,2.51,1.55,4.04.13,1.53-.2,3.03-1.01,4.51-.81,1.48-2.16,2.72-4.04,3.7-3.05,1.71-6.49,2.99-10.3,3.84-3.82.85-7.52,1.28-11.11,1.28Z"/>
        </g>
      </g>
    </g>
  </g>
</svg>